<?xml version="1.0" encoding="UTF-8" standalone="no"?>
<!DOCTYPE svg PUBLIC "-//W3C//DTD SVG 1.1//EN"
 "http://www.w3.org/Graphics/SVG/1.1/DTD/svg11.dtd">
<!-- Generated by graphviz version 2.43.0 (0)
 -->
<!-- Title: framework Pages: 1 -->
<svg width="858pt" height="188pt"
 viewBox="0.00 0.00 858.13 188.08" xmlns="http://www.w3.org/2000/svg" xmlns:xlink="http://www.w3.org/1999/xlink">
<g id="graph0" class="graph" transform="scale(1 1) rotate(0) translate(4 184.08)">
<title>framework</title>
<polygon fill="white" stroke="transparent" points="-4,4 -4,-184.08 854.13,-184.08 854.13,4 -4,4"/>
<!-- a -->
<g id="node1" class="node">
<title>a</title>
<polygon fill="#fb8072" stroke="black" points="850.13,-108.04 699.13,-108.04 695.13,-104.04 695.13,-72.04 846.13,-72.04 850.13,-76.04 850.13,-108.04"/>
<polyline fill="none" stroke="black" points="846.13,-104.04 695.13,-104.04 "/>
<polyline fill="none" stroke="black" points="846.13,-104.04 846.13,-72.04 "/>
<polyline fill="none" stroke="black" points="846.13,-104.04 850.13,-108.04 "/>
<text text-anchor="middle" x="772.63" y="-83.84" font-family="Times,serif" font-size="24.00">Mobile App</text>
</g>
<!-- b -->
<g id="node2" class="node">
<title>b</title>
<polygon fill="#b3de69" stroke="black" points="659.13,-108.04 656.13,-112.04 635.13,-112.04 632.13,-108.04 347.13,-108.04 347.13,-72.04 659.13,-72.04 659.13,-108.04"/>
<text text-anchor="middle" x="503.13" y="-83.84" font-family="Times,serif" font-size="24.00">Nativescript Framework</text>
</g>
<!-- b&#45;&gt;a -->
<g id="edge1" class="edge">
<title>b&#45;&gt;a</title>
<path fill="none" stroke="brown" stroke-width="4" d="M659.35,-90.04C667.93,-90.04 676.4,-90.04 684.6,-90.04"/>
<polygon fill="brown" stroke="brown" stroke-width="4" points="684.83,-93.54 694.83,-90.04 684.83,-86.54 684.83,-93.54"/>
</g>
<!-- c -->
<g id="node3" class="node">
<title>c</title>
<ellipse fill="#bebada" stroke="black" cx="155.56" cy="-156.04" rx="102.56" ry="24.08"/>
<text text-anchor="middle" x="155.56" y="-149.84" font-family="Times,serif" font-size="24.00">vue&#45;plugin</text>
</g>
<!-- c&#45;&gt;b -->
<g id="edge2" class="edge">
<title>c&#45;&gt;b</title>
<path fill="none" stroke="brown" stroke-width="4" d="M235.84,-140.9C283.95,-131.71 345.9,-119.88 397.94,-109.94"/>
<polygon fill="brown" stroke="brown" stroke-width="4" points="398.71,-113.36 407.87,-108.04 397.39,-106.48 398.71,-113.36"/>
</g>
<!-- d -->
<g id="node4" class="node">
<title>d</title>
<ellipse fill="#8dd3c7" stroke="black" cx="155.56" cy="-90.04" rx="137.77" ry="24.08"/>
<text text-anchor="middle" x="155.56" y="-83.84" font-family="Times,serif" font-size="24.00">angular&#45;plugin</text>
</g>
<!-- d&#45;&gt;b -->
<g id="edge3" class="edge">
<title>d&#45;&gt;b</title>
<path fill="none" stroke="brown" stroke-width="4" d="M293.64,-90.04C307.87,-90.04 322.45,-90.04 336.96,-90.04"/>
<polygon fill="brown" stroke="brown" stroke-width="4" points="336.98,-93.54 346.98,-90.04 336.98,-86.54 336.98,-93.54"/>
</g>
<!-- e -->
<g id="node5" class="node">
<title>e</title>
<ellipse fill="#80b1d3" stroke="black" cx="155.56" cy="-24.04" rx="155.63" ry="24.08"/>
<text text-anchor="middle" x="155.56" y="-17.84" font-family="Times,serif" font-size="24.00">javascript&#45;plugin</text>
</g>
<!-- e&#45;&gt;b -->
<g id="edge4" class="edge">
<title>e&#45;&gt;b</title>
<path fill="none" stroke="brown" stroke-width="4" d="M254.2,-42.69C299.01,-51.25 352.2,-61.41 397.8,-70.12"/>
<polygon fill="brown" stroke="brown" stroke-width="4" points="397.23,-73.57 407.71,-72.01 398.54,-66.69 397.23,-73.57"/>
</g>
</g>
</svg>
