<?xml version="1.0" encoding="UTF-8" standalone="no"?>
<!DOCTYPE svg PUBLIC "-//W3C//DTD SVG 1.1//EN"
 "http://www.w3.org/Graphics/SVG/1.1/DTD/svg11.dtd">
<!-- Generated by graphviz version 2.43.0 (0)
 -->
<!-- Title: test123 Pages: 1 -->
<svg width="261pt" height="244pt"
 viewBox="0.00 0.00 261.33 244.17" xmlns="http://www.w3.org/2000/svg" xmlns:xlink="http://www.w3.org/1999/xlink">
<g id="graph0" class="graph" transform="scale(1 1) rotate(0) translate(4 240.17)">
<title>test123</title>
<polygon fill="white" stroke="transparent" points="-4,4 -4,-240.17 257.33,-240.17 257.33,4 -4,4"/>
<!-- x -->
<g id="node1" class="node">
<title>x</title>
<ellipse fill="#8dd3c7" stroke="#8dd3c7" cx="55" cy="-118.08" rx="27" ry="24.08"/>
<text text-anchor="middle" x="55" y="-111.88" font-family="Times,serif" font-size="24.00">x</text>
</g>
<!-- y -->
<g id="node2" class="node">
<title>y</title>
<ellipse fill="#ffffb3" stroke="#ffffb3" cx="27" cy="-24.04" rx="27" ry="24.08"/>
<text text-anchor="middle" x="27" y="-17.84" font-family="Times,serif" font-size="24.00">y</text>
</g>
<!-- x&#45;&#45;y -->
<g id="edge6" class="edge">
<title>x&#45;&#45;y</title>
<path fill="none" stroke="black" d="M48.22,-94.8C43.85,-80.44 38.19,-61.82 33.81,-47.44"/>
</g>
<!-- c -->
<g id="node6" class="node">
<title>c</title>
<ellipse fill="#fdb462" stroke="#fdb462" cx="209" cy="-24.04" rx="27" ry="24.08"/>
<text text-anchor="middle" x="209" y="-17.84" font-family="Times,serif" font-size="24.00">c</text>
</g>
<!-- x&#45;&#45;c -->
<g id="edge5" class="edge">
<title>x&#45;&#45;c</title>
<path fill="none" stroke="black" d="M72.48,-99.25C78.12,-94.01 84.58,-88.51 91,-84.08 121.19,-63.3 159.74,-45.43 184.4,-34.95"/>
</g>
<!-- a -->
<g id="node3" class="node">
<title>a</title>
<ellipse fill="#bebada" stroke="#bebada" cx="170" cy="-212.12" rx="27" ry="24.08"/>
<text text-anchor="middle" x="170" y="-205.92" font-family="Times,serif" font-size="24.00">A</text>
</g>
<!-- a&#45;&#45;x -->
<g id="edge3" class="edge">
<title>a&#45;&#45;x</title>
<path fill="none" stroke="black" d="M149.11,-196.38C132.92,-184.76 110.12,-167.92 91,-152.08 84.99,-147.11 78.65,-141.45 73,-136.23"/>
</g>
<!-- a&#45;&#45;y -->
<g id="edge4" class="edge">
<title>a&#45;&#45;y</title>
<path fill="none" stroke="black" d="M143.16,-209.42C107.83,-205.56 46.93,-193 19,-152.08 -2.43,-120.69 8.55,-74.13 18.06,-46.96"/>
</g>
<!-- d -->
<g id="node4" class="node">
<title>d</title>
<path fill="#fb8072" stroke="#fb8072" d="M123.78,-143.34C123.78,-143.34 108.22,-126.82 108.22,-126.82 104.11,-122.45 104.11,-113.71 108.22,-109.34 108.22,-109.34 123.78,-92.82 123.78,-92.82 127.89,-88.45 136.11,-88.45 140.22,-92.82 140.22,-92.82 155.78,-109.34 155.78,-109.34 159.89,-113.71 159.89,-122.45 155.78,-126.82 155.78,-126.82 140.22,-143.34 140.22,-143.34 136.11,-147.71 127.89,-147.71 123.78,-143.34"/>
<text text-anchor="middle" x="132" y="-111.88" font-family="Times,serif" font-size="24.00">d</text>
</g>
<!-- a&#45;&#45;d -->
<g id="edge7" class="edge">
<title>a&#45;&#45;d</title>
<path fill="none" stroke="red" stroke-width="3" d="M160.99,-189.31C155.11,-175.07 147.44,-156.49 141.47,-142.02"/>
</g>
<!-- b -->
<g id="node5" class="node">
<title>b</title>
<ellipse fill="#80b1d3" stroke="#80b1d3" cx="209" cy="-118.08" rx="27" ry="24.08"/>
<text text-anchor="middle" x="209" y="-111.88" font-family="Times,serif" font-size="24.00">b</text>
</g>
<!-- a&#45;&#45;b -->
<g id="edge1" class="edge">
<title>a&#45;&#45;b</title>
<path fill="none" stroke="black" d="M173.89,-187.9C179.14,-172.77 187.51,-153.26 194.95,-138.87"/>
</g>
<!-- a&#45;&#45;b -->
<g id="edge8" class="edge">
<title>a&#45;&#45;b</title>
<path fill="none" stroke="red" stroke-width="3" d="M184.14,-191.15C191.62,-176.67 200.02,-157.04 205.24,-141.93"/>
</g>
<!-- a&#45;&#45;c -->
<g id="edge9" class="edge">
<title>a&#45;&#45;c</title>
<path fill="none" stroke="red" stroke-width="3" d="M193.43,-200.05C211.21,-190.21 234.36,-174 245,-152.08 258.2,-124.9 253.17,-113.18 245,-84.08 240.91,-69.52 232.13,-54.99 224.26,-43.99"/>
</g>
<!-- b&#45;&#45;c -->
<g id="edge2" class="edge">
<title>b&#45;&#45;c</title>
<path fill="none" stroke="black" d="M209,-93.86C209,-79.9 209,-62.21 209,-48.26"/>
</g>
</g>
</svg>
