<?xml version="1.0" encoding="UTF-8" standalone="no"?>
<!DOCTYPE svg PUBLIC "-//W3C//DTD SVG 1.1//EN"
 "http://www.w3.org/Graphics/SVG/1.1/DTD/svg11.dtd">
<!-- Generated by graphviz version 2.43.0 (0)
 -->
<!-- Title: test123 Pages: 1 -->
<svg width="444pt" height="300pt"
 viewBox="0.00 0.00 444.33 299.95" xmlns="http://www.w3.org/2000/svg" xmlns:xlink="http://www.w3.org/1999/xlink">
<g id="graph0" class="graph" transform="scale(1 1) rotate(0) translate(4 295.95)">
<title>test123</title>
<polygon fill="white" stroke="transparent" points="-4,4 -4,-295.95 440.33,-295.95 440.33,4 -4,4"/>
<!-- x -->
<g id="node1" class="node">
<title>x</title>
<ellipse fill="#8dd3c7" stroke="#8dd3c7" cx="309.59" cy="-162.03" rx="27" ry="24.08"/>
<text text-anchor="middle" x="309.59" y="-155.83" font-family="Times,serif" font-size="24.00">x</text>
</g>
<!-- y -->
<g id="node2" class="node">
<title>y</title>
<ellipse fill="#ffffb3" stroke="#ffffb3" cx="285.43" cy="-24.04" rx="27" ry="24.08"/>
<text text-anchor="middle" x="285.43" y="-17.84" font-family="Times,serif" font-size="24.00">y</text>
</g>
<!-- x&#45;&#45;y -->
<g id="edge6" class="edge">
<title>x&#45;&#45;y</title>
<path fill="none" stroke="black" d="M305.38,-138C300.95,-112.67 294.01,-73.02 289.59,-47.8"/>
</g>
<!-- c -->
<g id="node6" class="node">
<title>c</title>
<ellipse fill="#fdb462" stroke="#fdb462" cx="355.93" cy="-218.69" rx="27" ry="24.08"/>
<text text-anchor="middle" x="355.93" y="-212.49" font-family="Times,serif" font-size="24.00">c</text>
</g>
<!-- x&#45;&#45;c -->
<g id="edge5" class="edge">
<title>x&#45;&#45;c</title>
<path fill="none" stroke="black" d="M325.54,-181.53C330.15,-187.17 335.18,-193.32 339.8,-198.97"/>
</g>
<!-- a -->
<g id="node3" class="node">
<title>a</title>
<ellipse fill="#bebada" stroke="#bebada" cx="271.47" cy="-97.92" rx="27" ry="24.08"/>
<text text-anchor="middle" x="271.47" y="-91.72" font-family="Times,serif" font-size="24.00">A</text>
</g>
<!-- a&#45;&#45;x -->
<g id="edge3" class="edge">
<title>a&#45;&#45;x</title>
<path fill="none" stroke="black" d="M284.17,-119.27C288.24,-126.12 292.75,-133.7 296.82,-140.56"/>
</g>
<!-- a&#45;&#45;y -->
<g id="edge4" class="edge">
<title>a&#45;&#45;y</title>
<path fill="none" stroke="black" d="M275.97,-74.14C277.56,-65.7 279.36,-56.21 280.95,-47.78"/>
</g>
<!-- d -->
<g id="node4" class="node">
<title>d</title>
<path fill="#fb8072" stroke="#fb8072" d="M23.78,-122.54C23.78,-122.54 8.22,-106.02 8.22,-106.02 4.11,-101.65 4.11,-92.91 8.22,-88.54 8.22,-88.54 23.78,-72.02 23.78,-72.02 27.89,-67.65 36.11,-67.65 40.22,-72.02 40.22,-72.02 55.78,-88.54 55.78,-88.54 59.89,-92.91 59.89,-101.65 55.78,-106.02 55.78,-106.02 40.22,-122.54 40.22,-122.54 36.11,-126.91 27.89,-126.91 23.78,-122.54"/>
<text text-anchor="middle" x="32" y="-91.08" font-family="Times,serif" font-size="24.00">d</text>
</g>
<!-- a&#45;&#45;d -->
<g id="edge7" class="edge">
<title>a&#45;&#45;d</title>
<path fill="none" stroke="red" stroke-width="3" d="M244.47,-97.85C200.07,-97.73 111.83,-97.5 64.23,-97.37"/>
</g>
<!-- b -->
<g id="node5" class="node">
<title>b</title>
<ellipse fill="#80b1d3" stroke="#80b1d3" cx="409.33" cy="-267.91" rx="27" ry="24.08"/>
<text text-anchor="middle" x="409.33" y="-261.71" font-family="Times,serif" font-size="24.00">b</text>
</g>
<!-- a&#45;&#45;b -->
<g id="edge1" class="edge">
<title>a&#45;&#45;b</title>
<path fill="none" stroke="black" d="M283.31,-119.56C307.22,-153.9 360.73,-219.93 389.84,-251.04"/>
</g>
<!-- a&#45;&#45;b -->
<g id="edge8" class="edge">
<title>a&#45;&#45;b</title>
<path fill="none" stroke="red" stroke-width="3" d="M291.07,-114.91C320.17,-146.04 373.52,-211.86 397.43,-246.19"/>
</g>
<!-- a&#45;&#45;c -->
<g id="edge9" class="edge">
<title>a&#45;&#45;c</title>
<path fill="none" stroke="red" stroke-width="3" d="M285.8,-118.41C301.33,-140.62 325.98,-175.86 341.54,-198.11"/>
</g>
<!-- b&#45;&#45;c -->
<g id="edge2" class="edge">
<title>b&#45;&#45;c</title>
<path fill="none" stroke="black" d="M390.35,-250.42C385.32,-245.78 379.88,-240.77 374.85,-236.13"/>
</g>
</g>
</svg>
