<?xml version="1.0" encoding="UTF-8" standalone="no"?>
<!DOCTYPE svg PUBLIC "-//W3C//DTD SVG 1.1//EN"
 "http://www.w3.org/Graphics/SVG/1.1/DTD/svg11.dtd">
<!-- Generated by graphviz version 2.43.0 (0)
 -->
<!-- Title: G Pages: 1 -->
<svg width="373pt" height="318pt"
 viewBox="0.00 0.00 372.64 317.59" xmlns="http://www.w3.org/2000/svg" xmlns:xlink="http://www.w3.org/1999/xlink">
<g id="graph0" class="graph" transform="scale(1 1) rotate(0) translate(4 313.59)">
<title>G</title>
<polygon fill="white" stroke="transparent" points="-4,4 -4,-313.59 368.64,-313.59 368.64,4 -4,4"/>
<!-- main -->
<g id="node1" class="node">
<title>main</title>
<polygon fill="none" stroke="blue" points="184.59,-309.59 130.59,-309.59 130.59,-273.59 184.59,-273.59 184.59,-309.59"/>
<text text-anchor="middle" x="157.59" y="-287.89" font-family="Times,serif" font-size="14.00">main</text>
</g>
<!-- parse -->
<g id="node2" class="node">
<title>parse</title>
<polygon fill="none" stroke="black" points="226.59,-213.8 154.01,-179.3 299.18,-179.3 226.59,-213.8"/>
<text text-anchor="middle" x="226.59" y="-187.1" font-family="Times,serif" font-size="14.00">parse</text>
</g>
<!-- main&#45;&gt;parse -->
<g id="edge1" class="edge">
<title>main&#45;&gt;parse</title>
<path fill="none" stroke="black" d="M169.61,-273.38C180.46,-257.85 196.57,-234.79 208.89,-217.14"/>
<polygon fill="black" stroke="black" points="212.09,-218.68 214.94,-208.48 206.35,-214.67 212.09,-218.68"/>
</g>
<!-- cleanup -->
<g id="node3" class="node">
<title>cleanup</title>
<ellipse fill="none" stroke="black" cx="88.59" cy="-190.8" rx="46.59" ry="46.59"/>
<text text-anchor="middle" x="88.59" y="-187.1" font-family="Times,serif" font-size="14.00">cleanup</text>
</g>
<!-- main&#45;&gt;cleanup -->
<g id="edge4" class="edge">
<title>main&#45;&gt;cleanup</title>
<path fill="none" stroke="black" d="M145.58,-273.38C138.67,-263.5 129.64,-250.56 120.81,-237.92"/>
<polygon fill="black" stroke="black" points="123.65,-235.88 115.06,-229.68 117.91,-239.89 123.65,-235.88"/>
</g>
<!-- init -->
<g id="node5" class="node">
<title>init</title>
<ellipse fill="none" stroke="black" cx="31.59" cy="-90" rx="27" ry="18"/>
<text text-anchor="middle" x="31.59" y="-86.3" font-family="Times,serif" font-size="14.00">init</text>
</g>
<!-- main&#45;&gt;init -->
<g id="edge3" class="edge">
<title>main&#45;&gt;init</title>
<path fill="none" stroke="black" stroke-dasharray="1,5" d="M130.43,-287.66C100.7,-282.84 54.37,-270.24 32.59,-237.59 8.74,-201.83 15.93,-149.44 23.58,-117.94"/>
<polygon fill="black" stroke="black" points="27.01,-118.67 26.15,-108.11 20.23,-116.9 27.01,-118.67"/>
</g>
<!-- printf -->
<g id="node6" class="node">
<title>printf</title>
<ellipse fill="none" stroke="black" cx="327.59" cy="-18" rx="37.09" ry="18"/>
<text text-anchor="middle" x="327.59" y="-14.3" font-family="Times,serif" font-size="14.00">printf</text>
</g>
<!-- main&#45;&gt;printf -->
<g id="edge5" class="edge">
<title>main&#45;&gt;printf</title>
<path fill="none" stroke="black" d="M184.72,-289.54C219.51,-286.6 278.87,-275.89 308.59,-237.59 352.27,-181.31 342.27,-90.61 333.71,-45.81"/>
<polygon fill="black" stroke="black" points="337.13,-45.06 331.71,-35.96 330.27,-46.46 337.13,-45.06"/>
</g>
<!-- execute -->
<g id="node4" class="node">
<title>execute</title>
<polygon fill="red" stroke="red" points="275.47,-85.99 265.2,-101.22 223.59,-108 181.99,-101.22 171.71,-85.99 200.51,-73.78 246.68,-73.78 275.47,-85.99"/>
<text text-anchor="middle" x="223.59" y="-86.3" font-family="Times,serif" font-size="14.00">execute</text>
</g>
<!-- parse&#45;&gt;execute -->
<g id="edge2" class="edge">
<title>parse&#45;&gt;execute</title>
<path fill="none" stroke="black" d="M226.27,-179.22C225.83,-164.79 225.03,-138.42 224.42,-118.25"/>
<polygon fill="black" stroke="black" points="227.91,-117.98 224.11,-108.09 220.92,-118.19 227.91,-117.98"/>
</g>
<!-- execute&#45;&gt;printf -->
<g id="edge7" class="edge">
<title>execute&#45;&gt;printf</title>
<path fill="none" stroke="black" d="M246.42,-73.64C261.55,-63.45 281.56,-49.98 297.93,-38.97"/>
<polygon fill="black" stroke="black" points="300.25,-41.62 306.59,-33.14 296.34,-35.82 300.25,-41.62"/>
</g>
<!-- make_string -->
<g id="node7" class="node">
<title>make_string</title>
<ellipse fill="none" stroke="black" cx="67.59" cy="-18" rx="67.69" ry="18"/>
<text text-anchor="middle" x="67.59" y="-14.3" font-family="Times,serif" font-size="14.00">make_string</text>
</g>
<!-- execute&#45;&gt;make_string -->
<g id="edge6" class="edge">
<title>execute&#45;&gt;make_string</title>
<path fill="none" stroke="black" d="M194.62,-76C170.73,-65.28 136.54,-49.94 109.65,-37.87"/>
<polygon fill="black" stroke="black" points="111.02,-34.65 100.47,-33.75 108.16,-41.04 111.02,-34.65"/>
</g>
<!-- compare -->
<g id="node8" class="node">
<title>compare</title>
<ellipse fill="none" stroke="black" cx="221.59" cy="-18" rx="50.89" ry="18"/>
<text text-anchor="middle" x="221.59" y="-14.3" font-family="Times,serif" font-size="14.00">compare</text>
</g>
<!-- execute&#45;&gt;compare -->
<g id="edge8" class="edge">
<title>execute&#45;&gt;compare</title>
<path fill="none" stroke="red" d="M223.15,-73.46C222.93,-65.59 222.65,-55.79 222.38,-46.68"/>
<polygon fill="red" stroke="red" points="225.88,-46.36 222.09,-36.46 218.88,-46.56 225.88,-46.36"/>
</g>
<!-- init&#45;&gt;make_string -->
<g id="edge9" class="edge">
<title>init&#45;&gt;make_string</title>
<path fill="none" stroke="red" d="M39.94,-72.76C44.14,-64.61 49.32,-54.53 54.06,-45.31"/>
<polygon fill="red" stroke="red" points="57.33,-46.62 58.79,-36.12 51.1,-43.42 57.33,-46.62"/>
</g>
</g>
</svg>
