<?xml version="1.0" encoding="UTF-8" standalone="no"?>
<!DOCTYPE svg PUBLIC "-//W3C//DTD SVG 1.1//EN"
 "http://www.w3.org/Graphics/SVG/1.1/DTD/svg11.dtd">
<!-- Generated by graphviz version 2.43.0 (0)
 -->
<!-- Title: %3 Pages: 1 -->
<svg width="672pt" height="604pt"
 viewBox="0.00 0.00 672.16 604.03" xmlns="http://www.w3.org/2000/svg" xmlns:xlink="http://www.w3.org/1999/xlink">
<g id="graph0" class="graph" transform="scale(1 1) rotate(0) translate(4 600.03)">
<title>%3</title>
<polygon fill="white" stroke="transparent" points="-4,4 -4,-600.03 668.16,-600.03 668.16,4 -4,4"/>
<!-- docs -->
<g id="node1" class="node">
<title>docs</title>
<polygon fill="#1f78b4" stroke="#1f78b4" points="276.1,-409.18 212.21,-374.68 339.99,-374.68 276.1,-409.18"/>
<text text-anchor="middle" x="276.1" y="-382.48" font-family="Times,serif" font-size="14.00">docs</text>
</g>
<!-- guide -->
<g id="node2" class="node">
<title>guide</title>
<polygon fill="#fb9a99" stroke="#fb9a99" points="431.94,-319.21 359.35,-284.71 504.53,-284.71 431.94,-319.21"/>
<text text-anchor="middle" x="431.94" y="-292.51" font-family="Times,serif" font-size="14.00">guide</text>
</g>
<!-- docs&#45;&gt;guide -->
<g id="edge1" class="edge">
<title>docs&#45;&gt;guide</title>
<path fill="none" stroke="black" d="M296.16,-374.6C322.79,-359.23 370.1,-331.92 401.24,-313.93"/>
<polygon fill="black" stroke="black" points="403.05,-316.93 409.96,-308.9 399.55,-310.87 403.05,-316.93"/>
</g>
<!-- README.md -->
<g id="node3" class="node">
<title>README.md</title>
<ellipse fill="#b2df8a" stroke="#b2df8a" cx="276.1" cy="-206.24" rx="71.49" ry="18"/>
<text text-anchor="middle" x="276.1" y="-202.54" font-family="Times,serif" font-size="14.00">README.md</text>
</g>
<!-- docs&#45;&gt;README.md -->
<g id="edge2" class="edge">
<title>docs&#45;&gt;README.md</title>
<path fill="none" stroke="black" d="M276.1,-374.65C276.1,-346.73 276.1,-274.81 276.1,-234.57"/>
<polygon fill="black" stroke="black" points="279.6,-234.36 276.1,-224.36 272.6,-234.36 279.6,-234.36"/>
</g>
<!-- guide&#45;&gt;README.md -->
<g id="edge12" class="edge">
<title>guide&#45;&gt;README.md</title>
<path fill="none" stroke="black" d="M411.89,-284.63C387.12,-270.33 344.49,-245.72 313.59,-227.88"/>
<polygon fill="black" stroke="black" points="315.22,-224.78 304.81,-222.81 311.72,-230.84 315.22,-224.78"/>
</g>
<!-- vuepress.md -->
<g id="node4" class="node">
<title>vuepress.md</title>
<ellipse fill="#e31a1c" stroke="#e31a1c" cx="70.19" cy="-182.46" rx="70.39" ry="18"/>
<text text-anchor="middle" x="70.19" y="-178.76" font-family="Times,serif" font-size="14.00">vuepress.md</text>
</g>
<!-- guide&#45;&gt;vuepress.md -->
<g id="edge3" class="edge">
<title>guide&#45;&gt;vuepress.md</title>
<path fill="none" stroke="black" d="M395.26,-284.68C331.31,-264.57 199.13,-223 124.52,-199.54"/>
<polygon fill="black" stroke="black" points="125.42,-196.16 114.83,-196.5 123.32,-202.83 125.42,-196.16"/>
</g>
<!-- graph.dot -->
<g id="node5" class="node">
<title>graph.dot</title>
<ellipse fill="#fdbf6f" stroke="#fdbf6f" cx="204.84" cy="-42.74" rx="55.79" ry="18"/>
<text text-anchor="middle" x="204.84" y="-39.04" font-family="Times,serif" font-size="14.00">graph.dot</text>
</g>
<!-- guide&#45;&gt;graph.dot -->
<g id="edge4" class="edge">
<title>guide&#45;&gt;graph.dot</title>
<path fill="none" stroke="black" d="M421.59,-284.66C387.09,-246.16 275.47,-121.57 227.3,-67.81"/>
<polygon fill="black" stroke="black" points="229.68,-65.23 220.4,-60.12 224.47,-69.9 229.68,-65.23"/>
</g>
<!-- one.md -->
<g id="node6" class="node">
<title>one.md</title>
<ellipse fill="#ff7f00" stroke="#ff7f00" cx="373.08" cy="-18" rx="44.69" ry="18"/>
<text text-anchor="middle" x="373.08" y="-14.3" font-family="Times,serif" font-size="14.00">one.md</text>
</g>
<!-- guide&#45;&gt;one.md -->
<g id="edge5" class="edge">
<title>guide&#45;&gt;one.md</title>
<path fill="none" stroke="black" d="M429.48,-284.61C420.84,-243.77 391.67,-105.87 379.01,-46.06"/>
<polygon fill="black" stroke="black" points="382.42,-45.23 376.92,-36.17 375.57,-46.68 382.42,-45.23"/>
</g>
<!-- missing&#45;features.md -->
<g id="node7" class="node">
<title>missing&#45;features.md</title>
<ellipse fill="#cab2d6" stroke="#cab2d6" cx="557.45" cy="-132.49" rx="105.88" ry="18"/>
<text text-anchor="middle" x="557.45" y="-128.79" font-family="Times,serif" font-size="14.00">missing&#45;features.md</text>
</g>
<!-- guide&#45;&gt;missing&#45;features.md -->
<g id="edge6" class="edge">
<title>guide&#45;&gt;missing&#45;features.md</title>
<path fill="none" stroke="black" d="M440.77,-284.7C460.7,-258.69 509.65,-194.84 537.4,-158.64"/>
<polygon fill="black" stroke="black" points="540.34,-160.57 543.64,-150.51 534.78,-156.31 540.34,-160.57"/>
</g>
<!-- graph1.dot -->
<g id="node8" class="node">
<title>graph1.dot</title>
<ellipse fill="#6a3d9a" stroke="#6a3d9a" cx="602.42" cy="-360.63" rx="61.99" ry="18"/>
<text text-anchor="middle" x="602.42" y="-356.93" font-family="Times,serif" font-size="14.00">graph1.dot</text>
</g>
<!-- guide&#45;&gt;graph1.dot -->
<g id="edge7" class="edge">
<title>guide&#45;&gt;graph1.dot</title>
<path fill="none" stroke="black" d="M458.95,-306.42C484.62,-316.12 523.79,-330.92 554.71,-342.6"/>
<polygon fill="black" stroke="black" points="553.85,-346.02 564.44,-346.28 556.32,-339.47 553.85,-346.02"/>
</g>
<!-- yeoman.md -->
<g id="node9" class="node">
<title>yeoman.md</title>
<ellipse fill="#ffff99" stroke="#ffff99" cx="495.75" cy="-522.72" rx="64.19" ry="18"/>
<text text-anchor="middle" x="495.75" y="-519.02" font-family="Times,serif" font-size="14.00">yeoman.md</text>
</g>
<!-- guide&#45;&gt;yeoman.md -->
<g id="edge8" class="edge">
<title>guide&#45;&gt;yeoman.md</title>
<path fill="none" stroke="black" d="M437.71,-316.71C449.21,-357.51 474.96,-448.91 487.94,-495.01"/>
<polygon fill="black" stroke="black" points="484.58,-495.97 490.66,-504.65 491.32,-494.07 484.58,-495.97"/>
</g>
<!-- two.md -->
<g id="node10" class="node">
<title>two.md</title>
<ellipse fill="#b15928" stroke="#b15928" cx="325.82" cy="-578.03" rx="45.49" ry="18"/>
<text text-anchor="middle" x="325.82" y="-574.33" font-family="Times,serif" font-size="14.00">two.md</text>
</g>
<!-- guide&#45;&gt;two.md -->
<g id="edge9" class="edge">
<title>guide&#45;&gt;two.md</title>
<path fill="none" stroke="black" d="M424.48,-316.03C405.88,-365.43 357.41,-494.15 336.11,-550.7"/>
<polygon fill="black" stroke="black" points="332.83,-549.49 332.59,-560.08 339.38,-551.95 332.83,-549.49"/>
</g>
<!-- editor.md -->
<g id="node11" class="node">
<title>editor.md</title>
<ellipse fill="#a6cee3" stroke="#a6cee3" cx="164.11" cy="-525.45" rx="55.49" ry="18"/>
<text text-anchor="middle" x="164.11" y="-521.75" font-family="Times,serif" font-size="14.00">editor.md</text>
</g>
<!-- guide&#45;&gt;editor.md -->
<g id="edge10" class="edge">
<title>guide&#45;&gt;editor.md</title>
<path fill="none" stroke="black" d="M414.37,-311.25C368.78,-350.27 246.45,-454.97 191.5,-502.01"/>
<polygon fill="black" stroke="black" points="189.22,-499.35 183.9,-508.51 193.77,-504.67 189.22,-499.35"/>
</g>
<!-- cool.md -->
<g id="node12" class="node">
<title>cool.md</title>
<ellipse fill="#1f78b4" stroke="#1f78b4" cx="61.65" cy="-388.19" rx="46.59" ry="18"/>
<text text-anchor="middle" x="61.65" y="-384.49" font-family="Times,serif" font-size="14.00">cool.md</text>
</g>
<!-- guide&#45;&gt;cool.md -->
<g id="edge11" class="edge">
<title>guide&#45;&gt;cool.md</title>
<path fill="none" stroke="black" d="M400.05,-304.13C335.33,-320.21 188.17,-356.76 110.99,-375.93"/>
<polygon fill="black" stroke="black" points="109.89,-372.6 101.03,-378.41 111.58,-379.39 109.89,-372.6"/>
</g>
</g>
</svg>
