<?xml version="1.0" encoding="UTF-8" standalone="no"?>
<!DOCTYPE svg PUBLIC "-//W3C//DTD SVG 1.1//EN"
 "http://www.w3.org/Graphics/SVG/1.1/DTD/svg11.dtd">
<!-- Generated by graphviz version 2.43.0 (0)
 -->
<!-- Title: %3 Pages: 1 -->
<svg width="213pt" height="190pt"
 viewBox="0.00 0.00 213.04 189.54" xmlns="http://www.w3.org/2000/svg" xmlns:xlink="http://www.w3.org/1999/xlink">
<g id="graph0" class="graph" transform="scale(1 1) rotate(0) translate(4 185.54)">
<title>%3</title>
<polygon fill="white" stroke="transparent" points="-4,4 -4,-185.54 209.04,-185.54 209.04,4 -4,4"/>
<!-- A -->
<g id="node1" class="node">
<title>A</title>
<ellipse fill="none" stroke="black" cx="27" cy="-18" rx="27" ry="18"/>
<text text-anchor="middle" x="27" y="-14.3" font-family="Times,serif" font-size="14.00">A</text>
</g>
<!-- B -->
<g id="node2" class="node">
<title>B</title>
<ellipse fill="none" stroke="black" cx="27" cy="-163.54" rx="27" ry="18"/>
<text text-anchor="middle" x="27" y="-159.84" font-family="Times,serif" font-size="14.00">B</text>
</g>
<!-- A&#45;&gt;B -->
<g id="edge1" class="edge">
<title>A&#45;&gt;B</title>
<path fill="none" stroke="black" d="M27,-36.14C27,-60.98 27,-105.83 27,-135.14"/>
<polygon fill="black" stroke="black" points="23.5,-135.18 27,-145.18 30.5,-135.18 23.5,-135.18"/>
</g>
<!-- L -->
<g id="node3" class="node">
<title>L</title>
<ellipse fill="none" stroke="black" cx="153.04" cy="-90.77" rx="51.99" ry="18"/>
<text text-anchor="middle" x="153.04" y="-87.07" font-family="Times,serif" font-size="14.00">Gallahad</text>
</g>
<!-- A&#45;&gt;L -->
<g id="edge2" class="edge">
<title>A&#45;&gt;L</title>
<path fill="none" stroke="black" d="M47.53,-29.85C66.29,-40.69 94.46,-56.95 116.97,-69.94"/>
<polygon fill="black" stroke="black" points="115.5,-73.14 125.91,-75.11 119,-67.08 115.5,-73.14"/>
</g>
<!-- B&#45;&gt;L -->
<g id="edge3" class="edge">
<title>B&#45;&gt;L</title>
<path fill="none" stroke="black" d="M47.53,-151.69C66.29,-140.86 94.46,-124.6 116.97,-111.6"/>
<polygon fill="black" stroke="black" points="119,-114.47 125.91,-106.44 115.5,-108.4 119,-114.47"/>
</g>
</g>
</svg>
