<?xml version="1.0" encoding="UTF-8" standalone="no"?>
<!DOCTYPE svg PUBLIC "-//W3C//DTD SVG 1.1//EN"
 "http://www.w3.org/Graphics/SVG/1.1/DTD/svg11.dtd">
<!-- Generated by graphviz version 2.43.0 (0)
 -->
<!-- Title: %3 Pages: 1 -->
<svg width="314pt" height="206pt"
 viewBox="0.00 0.00 313.69 205.82" xmlns="http://www.w3.org/2000/svg" xmlns:xlink="http://www.w3.org/1999/xlink">
<g id="graph0" class="graph" transform="scale(1 1) rotate(0) translate(4 201.82)">
<title>%3</title>
<polygon fill="white" stroke="transparent" points="-4,4 -4,-201.82 309.69,-201.82 309.69,4 -4,4"/>
<!-- docs -->
<g id="node1" class="node">
<title>docs</title>
<polygon fill="#1f78b4" stroke="#1f78b4" points="89.98,-82.71 26.09,-48.21 153.87,-48.21 89.98,-82.71"/>
<text text-anchor="middle" x="89.98" y="-56.01" font-family="Times,serif" font-size="14.00">docs</text>
</g>
<!-- guide -->
<g id="node2" class="node">
<title>guide</title>
<polygon fill="#fb9a99" stroke="#fb9a99" points="158.48,-120.56 85.89,-86.06 231.07,-86.06 158.48,-120.56"/>
<text text-anchor="middle" x="158.48" y="-93.86" font-family="Times,serif" font-size="14.00">guide</text>
</g>
<!-- docs&#45;&gt;guide -->
<g id="edge1" class="edge">
<title>docs&#45;&gt;guide</title>
<path fill="none" stroke="black" d="M111.28,-71.48C116.74,-74.5 122.72,-77.8 128.53,-81.01"/>
<polygon fill="black" stroke="black" points="126.99,-84.16 137.43,-85.93 130.37,-78.03 126.99,-84.16"/>
</g>
<!-- README.md -->
<g id="node3" class="node">
<title>README.md</title>
<ellipse fill="#b2df8a" stroke="#b2df8a" cx="145.98" cy="-24.33" rx="71.49" ry="18"/>
<text text-anchor="middle" x="145.98" y="-20.63" font-family="Times,serif" font-size="14.00">README.md</text>
</g>
<!-- docs&#45;&gt;README.md -->
<g id="edge2" class="edge">
<title>docs&#45;&gt;README.md</title>
<path fill="none" stroke="black" d="M108.32,-48.12C109.1,-47.63 109.89,-47.13 110.69,-46.62"/>
<polygon fill="black" stroke="black" points="112.89,-49.37 119.48,-41.07 109.15,-43.45 112.89,-49.37"/>
</g>
<!-- guide&#45;&gt;README.md -->
<g id="edge12" class="edge">
<title>guide&#45;&gt;README.md</title>
<path fill="none" stroke="black" d="M156.47,-85.8C154.94,-76.82 152.76,-64.07 150.79,-52.51"/>
<polygon fill="black" stroke="black" points="154.19,-51.63 149.06,-42.36 147.29,-52.81 154.19,-51.63"/>
</g>
<!-- vuepress.md -->
<g id="node4" class="node">
<title>vuepress.md</title>
<ellipse fill="#e31a1c" stroke="#e31a1c" cx="185.06" cy="-178.59" rx="70.39" ry="18"/>
<text text-anchor="middle" x="185.06" y="-174.89" font-family="Times,serif" font-size="14.00">vuepress.md</text>
</g>
<!-- guide&#45;&gt;vuepress.md -->
<g id="edge3" class="edge">
<title>guide&#45;&gt;vuepress.md</title>
<path fill="none" stroke="black" d="M165.05,-117.59C168.35,-127.64 172.39,-139.97 175.98,-150.9"/>
<polygon fill="black" stroke="black" points="172.67,-152.04 179.11,-160.45 179.32,-149.86 172.67,-152.04"/>
</g>
<!-- graph.dot -->
<g id="node5" class="node">
<title>graph.dot</title>
<ellipse fill="#fdbf6f" stroke="#fdbf6f" cx="225.53" cy="-150.22" rx="55.79" ry="18"/>
<text text-anchor="middle" x="225.53" y="-146.52" font-family="Times,serif" font-size="14.00">graph.dot</text>
</g>
<!-- guide&#45;&gt;graph.dot -->
<g id="edge4" class="edge">
<title>guide&#45;&gt;graph.dot</title>
<path fill="none" stroke="black" d="M176.8,-111.95C182.69,-116.58 189.38,-121.83 195.86,-126.92"/>
<polygon fill="black" stroke="black" points="193.88,-129.81 203.9,-133.24 198.2,-124.31 193.88,-129.81"/>
</g>
<!-- one.md -->
<g id="node6" class="node">
<title>one.md</title>
<ellipse fill="#ff7f00" stroke="#ff7f00" cx="135.88" cy="-179.82" rx="44.69" ry="18"/>
<text text-anchor="middle" x="135.88" y="-176.12" font-family="Times,serif" font-size="14.00">one.md</text>
</g>
<!-- guide&#45;&gt;one.md -->
<g id="edge5" class="edge">
<title>guide&#45;&gt;one.md</title>
<path fill="none" stroke="black" d="M152.78,-118.32C149.96,-128.59 146.51,-141.14 143.47,-152.21"/>
<polygon fill="black" stroke="black" points="140.09,-151.29 140.82,-161.86 146.84,-153.15 140.09,-151.29"/>
</g>
<!-- missing&#45;features.md -->
<g id="node7" class="node">
<title>missing&#45;features.md</title>
<ellipse fill="#cab2d6" stroke="#cab2d6" cx="105.94" cy="-18.82" rx="105.88" ry="18"/>
<text text-anchor="middle" x="105.94" y="-15.12" font-family="Times,serif" font-size="14.00">missing&#45;features.md</text>
</g>
<!-- guide&#45;&gt;missing&#45;features.md -->
<g id="edge6" class="edge">
<title>guide&#45;&gt;missing&#45;features.md</title>
<path fill="none" stroke="black" d="M150.73,-85.94C143.66,-75.35 132.94,-59.29 123.77,-45.53"/>
<polygon fill="black" stroke="black" points="126.47,-43.29 118.01,-36.91 120.65,-47.17 126.47,-43.29"/>
</g>
<!-- graph1.dot -->
<g id="node8" class="node">
<title>graph1.dot</title>
<ellipse fill="#6a3d9a" stroke="#6a3d9a" cx="243.94" cy="-104.37" rx="61.99" ry="18"/>
<text text-anchor="middle" x="243.94" y="-100.67" font-family="Times,serif" font-size="14.00">graph1.dot</text>
</g>
<!-- guide&#45;&gt;graph1.dot -->
<g id="edge7" class="edge">
<title>guide&#45;&gt;graph1.dot</title>
<path fill="none" stroke="black" d="M199.96,-100.87C200,-100.87 200.05,-100.87 200.09,-100.88"/>
<polygon fill="black" stroke="black" points="189.97,-103.58 200.22,-100.89 190.53,-96.6 189.97,-103.58"/>
</g>
<!-- yeoman.md -->
<g id="node9" class="node">
<title>yeoman.md</title>
<ellipse fill="#ffff99" stroke="#ffff99" cx="70.88" cy="-110.39" rx="64.19" ry="18"/>
<text text-anchor="middle" x="70.88" y="-106.69" font-family="Times,serif" font-size="14.00">yeoman.md</text>
</g>
<!-- guide&#45;&gt;yeoman.md -->
<g id="edge8" class="edge">
<title>guide&#45;&gt;yeoman.md</title>
<path fill="none" stroke="black" d="M121.33,-103C121.28,-103.01 121.24,-103.02 121.19,-103.02"/>
<polygon fill="black" stroke="black" points="130.43,-98.13 121.05,-103.04 131.45,-105.05 130.43,-98.13"/>
</g>
<!-- two.md -->
<g id="node10" class="node">
<title>two.md</title>
<ellipse fill="#b15928" stroke="#b15928" cx="234.26" cy="-55.99" rx="45.49" ry="18"/>
<text text-anchor="middle" x="234.26" y="-52.29" font-family="Times,serif" font-size="14.00">two.md</text>
</g>
<!-- guide&#45;&gt;two.md -->
<g id="edge9" class="edge">
<title>guide&#45;&gt;two.md</title>
<path fill="none" stroke="black" d="M179.59,-85.98C185.55,-82.71 192.21,-79.06 198.77,-75.46"/>
<polygon fill="black" stroke="black" points="200.49,-78.5 207.58,-70.63 197.13,-72.37 200.49,-78.5"/>
</g>
<!-- editor.md -->
<g id="node11" class="node">
<title>editor.md</title>
<ellipse fill="#a6cee3" stroke="#a6cee3" cx="200.39" cy="-18" rx="55.49" ry="18"/>
<text text-anchor="middle" x="200.39" y="-14.3" font-family="Times,serif" font-size="14.00">editor.md</text>
</g>
<!-- guide&#45;&gt;editor.md -->
<g id="edge10" class="edge">
<title>guide&#45;&gt;editor.md</title>
<path fill="none" stroke="black" d="M164.67,-85.82C170.29,-75.15 178.8,-58.99 186.11,-45.12"/>
<polygon fill="black" stroke="black" points="189.36,-46.46 190.92,-35.98 183.17,-43.2 189.36,-46.46"/>
</g>
<!-- cool.md -->
<g id="node12" class="node">
<title>cool.md</title>
<ellipse fill="#1f78b4" stroke="#1f78b4" cx="93.13" cy="-155.02" rx="46.59" ry="18"/>
<text text-anchor="middle" x="93.13" y="-151.32" font-family="Times,serif" font-size="14.00">cool.md</text>
</g>
<!-- guide&#45;&gt;cool.md -->
<g id="edge11" class="edge">
<title>guide&#45;&gt;cool.md</title>
<path fill="none" stroke="black" d="M141.31,-112.66C134.76,-118.42 127.12,-125.14 119.88,-131.5"/>
<polygon fill="black" stroke="black" points="117.45,-128.97 112.26,-138.2 122.08,-134.23 117.45,-128.97"/>
</g>
</g>
</svg>
