<?xml version="1.0" encoding="UTF-8" standalone="no"?>
<!DOCTYPE svg PUBLIC "-//W3C//DTD SVG 1.1//EN"
 "http://www.w3.org/Graphics/SVG/1.1/DTD/svg11.dtd">
<!-- Generated by graphviz version 2.43.0 (0)
 -->
<!-- Title: mindmap Pages: 1 -->
<svg width="192pt" height="216pt"
 viewBox="0.00 0.00 192.25 216.04" xmlns="http://www.w3.org/2000/svg" xmlns:xlink="http://www.w3.org/1999/xlink">
<g id="graph0" class="graph" transform="scale(1 1) rotate(0) translate(4 212.04)">
<title>mindmap</title>
<text text-anchor="middle" x="92.12" y="-7.8" font-family="Times,serif" font-size="14.00">Mindmap</text>
<!-- root -->
<g id="node1" class="node">
<title>root</title>
<path fill="#fb8072" stroke="black" d="M120,-133.52C120,-133.52 78,-133.52 78,-133.52 72,-133.52 66,-127.52 66,-121.52 66,-121.52 66,-109.52 66,-109.52 66,-103.52 72,-97.52 78,-97.52 78,-97.52 120,-97.52 120,-97.52 126,-97.52 132,-103.52 132,-109.52 132,-109.52 132,-121.52 132,-121.52 132,-127.52 126,-133.52 120,-133.52"/>
<text text-anchor="middle" x="99" y="-109.32" font-family="Times,serif" font-size="24.00">root</text>
</g>
<!-- a -->
<g id="node2" class="node">
<title>a</title>
<ellipse fill="#8dd3c7" stroke="black" cx="157.25" cy="-157.84" rx="27" ry="24.08"/>
<text text-anchor="middle" x="157.25" y="-151.64" font-family="Times,serif" font-size="24.00">a</text>
</g>
<!-- root&#45;&gt;a -->
<g id="edge1" class="edge">
<title>root&#45;&gt;a</title>
<polygon fill="black" stroke="transparent" stroke-width="13" points="120.22,-138.97 121.02,-139.15 121.83,-139.33 122.63,-139.51 123.44,-139.7 124.25,-139.88 125.06,-140.06 125.87,-140.24 126.67,-140.42 127.48,-140.61 128.29,-140.79 129.1,-140.97 129.9,-141.15 130.7,-141.33 131.5,-141.51 132.3,-141.69 133.1,-141.87 133.89,-142.05 134.68,-142.23 135.47,-142.41 136.25,-142.58 136.25,-142.58 135.84,-141.89 135.43,-141.2 135.02,-140.5 134.6,-139.8 134.19,-139.1 133.77,-138.4 133.35,-137.69 132.93,-136.98 132.51,-136.28 132.08,-135.56 131.66,-134.85 131.24,-134.14 130.82,-133.43 130.39,-132.72 129.97,-132 129.55,-131.29 129.12,-130.58 128.7,-129.87 128.28,-129.16 127.86,-128.45 120.22,-138.97"/>
</g>
<!-- b -->
<g id="node3" class="node">
<title>b</title>
<ellipse fill="#ffffb3" stroke="black" cx="76.75" cy="-183.99" rx="27" ry="24.08"/>
<text text-anchor="middle" x="76.75" y="-177.79" font-family="Times,serif" font-size="24.00">b</text>
</g>
<!-- root&#45;&gt;b -->
<g id="edge2" class="edge">
<title>root&#45;&gt;b</title>
<polygon fill="black" stroke="transparent" stroke-width="13" points="86.86,-131.86 86.74,-133.2 86.62,-134.56 86.5,-135.95 86.37,-137.35 86.25,-138.78 86.12,-140.21 86,-141.66 85.87,-143.12 85.74,-144.59 85.61,-146.06 85.48,-147.54 85.35,-149.02 85.22,-150.5 85.09,-151.98 84.96,-153.45 84.83,-154.92 84.7,-156.38 84.58,-157.83 84.45,-159.26 84.33,-160.68 84.33,-160.68 85.06,-159.46 85.8,-158.22 86.55,-156.98 87.3,-155.72 88.06,-154.46 88.82,-153.19 89.59,-151.92 90.35,-150.65 91.12,-149.37 91.88,-148.1 92.64,-146.83 93.4,-145.57 94.15,-144.31 94.9,-143.07 95.65,-141.83 96.38,-140.61 97.11,-139.4 97.82,-138.2 98.53,-137.03 99.22,-135.88 86.86,-131.86"/>
</g>
<!-- c -->
<g id="node4" class="node">
<title>c</title>
<ellipse fill="#bebada" stroke="black" cx="27" cy="-115.52" rx="27" ry="24.08"/>
<text text-anchor="middle" x="27" y="-109.32" font-family="Times,serif" font-size="24.00">c</text>
</g>
<!-- root&#45;&gt;c -->
<g id="edge3" class="edge">
<title>root&#45;&gt;c</title>
<polygon fill="black" stroke="transparent" stroke-width="13" points="65.95,-109.02 65.35,-109.34 64.75,-109.67 64.15,-110 63.55,-110.33 62.95,-110.65 62.35,-110.98 61.75,-111.31 61.15,-111.63 60.55,-111.96 59.95,-112.29 59.35,-112.61 58.75,-112.94 58.16,-113.27 57.56,-113.59 56.97,-113.91 56.38,-114.24 55.79,-114.56 55.2,-114.88 54.61,-115.2 54.02,-115.52 54.02,-115.52 54.61,-115.84 55.2,-116.16 55.79,-116.48 56.38,-116.8 56.97,-117.12 57.56,-117.45 58.16,-117.77 58.75,-118.1 59.35,-118.42 59.95,-118.75 60.55,-119.07 61.15,-119.4 61.75,-119.73 62.35,-120.05 62.95,-120.38 63.55,-120.71 64.15,-121.04 64.75,-121.36 65.35,-121.69 65.95,-122.02 65.95,-109.02"/>
</g>
<!-- d -->
<g id="node5" class="node">
<title>d</title>
<ellipse fill="#80b1d3" stroke="black" cx="76.75" cy="-47.04" rx="27" ry="24.08"/>
<text text-anchor="middle" x="76.75" y="-40.84" font-family="Times,serif" font-size="24.00">d</text>
</g>
<!-- root&#45;&gt;d -->
<g id="edge4" class="edge">
<title>root&#45;&gt;d</title>
<polygon fill="black" stroke="transparent" stroke-width="13" points="99.22,-95.16 98.53,-94 97.82,-92.83 97.11,-91.64 96.38,-90.43 95.65,-89.21 94.9,-87.97 94.15,-86.72 93.4,-85.47 92.64,-84.2 91.88,-82.94 91.12,-81.66 90.35,-80.39 89.59,-79.12 88.82,-77.84 88.06,-76.58 87.3,-75.31 86.55,-74.06 85.8,-72.81 85.06,-71.58 84.33,-70.36 84.33,-70.36 84.45,-71.78 84.58,-73.21 84.7,-74.66 84.83,-76.12 84.96,-77.58 85.09,-79.06 85.22,-80.53 85.35,-82.01 85.48,-83.49 85.61,-84.97 85.74,-86.45 85.87,-87.91 86,-89.37 86.12,-90.82 86.25,-92.26 86.37,-93.68 86.5,-95.09 86.62,-96.47 86.74,-97.83 86.86,-99.18 99.22,-95.16"/>
</g>
<!-- e -->
<g id="node6" class="node">
<title>e</title>
<ellipse fill="#fdb462" stroke="black" cx="157.25" cy="-73.2" rx="27" ry="24.08"/>
<text text-anchor="middle" x="157.25" y="-67" font-family="Times,serif" font-size="24.00">e</text>
</g>
<!-- root&#45;&gt;e -->
<g id="edge5" class="edge">
<title>root&#45;&gt;e</title>
<polygon fill="black" stroke="transparent" stroke-width="13" points="127.86,-102.58 128.28,-101.88 128.7,-101.17 129.12,-100.46 129.55,-99.74 129.97,-99.03 130.39,-98.32 130.82,-97.61 131.24,-96.89 131.66,-96.18 132.08,-95.47 132.51,-94.76 132.93,-94.05 133.35,-93.34 133.77,-92.64 134.19,-91.93 134.6,-91.23 135.02,-90.53 135.43,-89.84 135.84,-89.14 136.25,-88.45 136.25,-88.45 135.47,-88.63 134.68,-88.81 133.89,-88.98 133.1,-89.16 132.3,-89.34 131.5,-89.52 130.7,-89.7 129.9,-89.88 129.1,-90.07 128.29,-90.25 127.48,-90.43 126.67,-90.61 125.87,-90.79 125.06,-90.98 124.25,-91.16 123.44,-91.34 122.63,-91.52 121.83,-91.7 121.02,-91.88 120.22,-92.07 127.86,-102.58"/>
<text text-anchor="middle" x="90.65" y="-80.89" font-family="Times,serif" font-size="15.00">edge label</text>
</g>
</g>
</svg>
