<?xml version="1.0" encoding="UTF-8" standalone="no"?>
<!DOCTYPE svg PUBLIC "-//W3C//DTD SVG 1.1//EN"
 "http://www.w3.org/Graphics/SVG/1.1/DTD/svg11.dtd">
<!-- Generated by graphviz version 2.43.0 (0)
 -->
<!-- Title: G Pages: 1 -->
<svg width="278pt" height="157pt"
 viewBox="0.00 0.00 278.00 157.00" xmlns="http://www.w3.org/2000/svg" xmlns:xlink="http://www.w3.org/1999/xlink">
<g id="graph0" class="graph" transform="scale(1 1) rotate(0) translate(4 153)">
<title>G</title>
<polygon fill="transparent" stroke="transparent" points="-4,4 -4,-153 274,-153 274,4 -4,4"/>
<!-- X -->
<g id="node1" class="node">
<title>X</title>
<path fill="pink" stroke="black" stroke-width="0.5" d="M18,-18C18,-18 36,-18 36,-18 36,-18.71 35.96,-19.41 35.88,-20.12 35.79,-20.82 35.67,-21.51 35.5,-22.2 35.34,-22.89 35.13,-23.57 34.89,-24.23 34.64,-24.89 34.36,-25.54 34.04,-26.17 33.72,-26.8 33.36,-27.41 32.97,-28 32.57,-28.59 32.15,-29.15 31.69,-29.69 31.23,-30.23 30.74,-30.74 30.22,-31.22 29.7,-31.7 29.15,-32.15 28.58,-32.56 28.01,-32.98 27.41,-33.36 26.8,-33.7 26.18,-34.05 25.54,-34.36 24.89,-34.63 24.24,-34.9 23.57,-35.13 22.89,-35.32 22.21,-35.52 21.51,-35.67 20.82,-35.78 20.12,-35.89 19.41,-35.96 18.71,-35.99 18,-36.01 17.29,-36 16.59,-35.94 15.88,-35.89 15.18,-35.79 14.49,-35.65 13.79,-35.52 13.11,-35.34 12.44,-35.12 12.44,-35.12 18,-18 18,-18"/>
<path fill="blue" stroke="black" stroke-width="0.5" d="M18,-18C18,-18 12.44,-35.12 12.44,-35.12 11.77,-34.9 11.11,-34.64 10.46,-34.35 9.82,-34.05 9.2,-33.72 8.6,-33.35 7.99,-32.98 7.41,-32.57 6.86,-32.14 6.3,-31.7 5.77,-31.23 5.27,-30.73 4.77,-30.23 4.3,-29.7 3.86,-29.14 3.43,-28.59 3.02,-28.01 2.65,-27.4 2.28,-26.8 1.95,-26.18 1.65,-25.54 1.36,-24.89 1.1,-24.23 0.88,-23.56 0.66,-22.89 0.48,-22.21 0.35,-21.51 0.21,-20.82 0.11,-20.12 0.06,-19.41 0,-18.71 -0.01,-18 0.01,-17.29 0.04,-16.59 0.11,-15.88 0.22,-15.18 0.33,-14.49 0.48,-13.79 0.68,-13.11 0.87,-12.43 1.1,-11.76 1.37,-11.11 1.64,-10.46 1.95,-9.82 2.3,-9.2 2.64,-8.59 3.02,-7.99 3.44,-7.42 3.85,-6.85 4.3,-6.3 4.78,-5.78 5.26,-5.26 5.77,-4.77 6.31,-4.31 6.85,-3.85 7.41,-3.43 8,-3.03 8.59,-2.64 9.2,-2.28 9.83,-1.96 10.46,-1.64 11.11,-1.36 11.77,-1.11 12.43,-0.87 13.11,-0.66 13.8,-0.5 14.49,-0.33 15.18,-0.21 15.88,-0.12 16.59,-0.04 17.29,0 18,0 18.71,-0 19.41,-0.04 20.12,-0.12 20.82,-0.21 21.51,-0.33 22.2,-0.5 22.89,-0.66 23.57,-0.87 24.23,-1.11 24.89,-1.36 25.54,-1.64 26.17,-1.96 26.8,-2.28 27.41,-2.64 28,-3.03 28.59,-3.43 29.15,-3.85 29.69,-4.31 30.23,-4.77 30.74,-5.26 31.22,-5.78 31.7,-6.3 32.15,-6.85 32.56,-7.42 32.56,-7.42 18,-18 18,-18"/>
<path fill="orange" stroke="black" stroke-width="0.5" d="M18,-18C18,-18 32.56,-7.42 32.56,-7.42 33.12,-8.18 33.61,-8.99 34.04,-9.83 34.47,-10.67 34.83,-11.54 35.12,-12.44 35.41,-13.33 35.63,-14.25 35.78,-15.18 35.93,-16.12 36,-17.06 36,-18 36,-18 18,-18 18,-18"/>
<ellipse fill="none" stroke="black" cx="18" cy="-18" rx="18" ry="18"/>
<text text-anchor="middle" x="18" y="-14.3" font-family="Times,serif" font-size="14.00">X</text>
</g>
<!-- Y -->
<g id="node2" class="node">
<title>Y</title>
<polygon fill="red" stroke="black" stroke-width="0.5" points="108,0 124.2,0 124.2,-36 108,-36 108,0"/>
<polygon fill="green" stroke="black" stroke-width="0.5" points="124.2,0 156.6,0 156.6,-36 124.2,-36 124.2,0"/>
<polygon fill="orange" stroke="black" stroke-width="0.5" points="156.6,0 162,0 162,-36 156.6,-36 156.6,0"/>
<polygon fill="none" stroke="black" points="162,-36 108,-36 108,0 162,0 162,-36"/>
<text text-anchor="middle" x="135" y="-14.3" font-family="Times,serif" font-size="14.00">Y</text>
</g>
<!-- Y&#45;&gt;X -->
<g id="edge1" class="edge">
<title>Y&#45;&gt;X</title>
<path fill="none" stroke="black" d="M107.86,-18C89.38,-18 64.97,-18 46.25,-18"/>
<polygon fill="black" stroke="black" points="46.25,-14.5 36.25,-18 46.25,-21.5 46.25,-14.5"/>
</g>
<!-- Z -->
<g id="node3" class="node">
<title>Z</title>
<path fill="red" stroke="black" stroke-width="0.5" d="M252,-18C252,-18 270,-18 270,-18 270,-18.71 269.96,-19.41 269.88,-20.12 269.79,-20.82 269.67,-21.51 269.5,-22.2 269.34,-22.89 269.13,-23.57 268.89,-24.23 268.64,-24.89 268.36,-25.54 268.04,-26.17 267.72,-26.8 267.36,-27.41 266.97,-28 266.57,-28.59 266.15,-29.15 265.69,-29.69 265.23,-30.23 264.74,-30.74 264.22,-31.22 263.7,-31.7 263.15,-32.15 262.58,-32.56 262.01,-32.98 261.41,-33.36 260.8,-33.7 260.18,-34.05 259.54,-34.36 258.89,-34.63 258.24,-34.9 257.57,-35.13 256.89,-35.32 256.21,-35.52 255.51,-35.67 254.82,-35.78 254.12,-35.89 253.41,-35.96 252.71,-35.99 252,-36.01 251.29,-36 250.59,-35.94 249.88,-35.89 249.18,-35.79 248.49,-35.65 247.79,-35.52 247.11,-35.34 246.44,-35.12 246.44,-35.12 252,-18 252,-18"/>
<path fill="green" stroke="black" stroke-width="0.5" d="M252,-18C252,-18 246.44,-35.12 246.44,-35.12 245.77,-34.9 245.11,-34.64 244.46,-34.35 243.82,-34.05 243.2,-33.72 242.6,-33.35 241.99,-32.98 241.41,-32.57 240.86,-32.14 240.3,-31.7 239.77,-31.23 239.27,-30.73 238.77,-30.23 238.3,-29.7 237.86,-29.14 237.43,-28.59 237.02,-28.01 236.65,-27.4 236.28,-26.8 235.95,-26.18 235.65,-25.54 235.36,-24.89 235.1,-24.23 234.88,-23.56 234.66,-22.89 234.48,-22.21 234.35,-21.51 234.21,-20.82 234.11,-20.12 234.06,-19.41 234,-18.71 233.99,-18 234.01,-17.29 234.04,-16.59 234.11,-15.88 234.22,-15.18 234.33,-14.49 234.48,-13.79 234.68,-13.11 234.87,-12.43 235.1,-11.76 235.37,-11.11 235.64,-10.46 235.95,-9.82 236.3,-9.2 236.64,-8.59 237.02,-7.99 237.44,-7.42 237.85,-6.85 238.3,-6.3 238.78,-5.78 239.26,-5.26 239.77,-4.77 240.31,-4.31 240.85,-3.85 241.41,-3.43 242,-3.03 242.59,-2.64 243.2,-2.28 243.83,-1.96 244.46,-1.64 245.11,-1.36 245.77,-1.11 246.43,-0.87 247.11,-0.66 247.8,-0.5 248.49,-0.33 249.18,-0.21 249.88,-0.12 250.59,-0.04 251.29,0 252,0 252.71,-0 253.41,-0.04 254.12,-0.12 254.82,-0.21 255.51,-0.33 256.2,-0.5 256.89,-0.66 257.57,-0.87 258.23,-1.11 258.89,-1.36 259.54,-1.64 260.17,-1.96 260.8,-2.28 261.41,-2.64 262,-3.03 262.59,-3.43 263.15,-3.85 263.69,-4.31 264.23,-4.77 264.74,-5.26 265.22,-5.78 265.7,-6.3 266.15,-6.85 266.56,-7.42 266.56,-7.42 252,-18 252,-18"/>
<path fill="orange" stroke="black" stroke-width="0.5" d="M252,-18C252,-18 266.56,-7.42 266.56,-7.42 267.12,-8.18 267.61,-8.99 268.04,-9.83 268.47,-10.67 268.83,-11.54 269.12,-12.44 269.41,-13.33 269.63,-14.25 269.78,-15.18 269.93,-16.12 270,-17.06 270,-18 270,-18 252,-18 252,-18"/>
<ellipse fill="none" stroke="black" cx="252" cy="-18" rx="18" ry="18"/>
<text text-anchor="middle" x="252" y="-14.3" font-family="Times,serif" font-size="14.00">Z</text>
</g>
<!-- Y&#45;&gt;Z -->
<g id="edge2" class="edge">
<title>Y&#45;&gt;Z</title>
<path fill="none" stroke="black" d="M162.14,-18C180.62,-18 205.03,-18 223.75,-18"/>
<polygon fill="black" stroke="black" points="223.75,-21.5 233.75,-18 223.75,-14.5 223.75,-21.5"/>
</g>
<!-- c1 -->
<g id="node4" class="node">
<title>c1</title>
<path fill="green" stroke="black" stroke-width="0.5" d="M223,-102C223,-102 259,-102 259,-102 259,-102.94 258.96,-103.88 258.89,-104.82 258.82,-105.76 258.7,-106.7 258.56,-107.63 258.41,-108.56 258.23,-109.49 258.01,-110.4 257.79,-111.32 257.53,-112.23 257.24,-113.12 256.95,-114.02 256.62,-114.91 256.26,-115.78 255.9,-116.65 255.5,-117.5 255.08,-118.34 254.65,-119.18 254.19,-120.01 253.7,-120.81 253.2,-121.61 252.68,-122.4 252.12,-123.16 251.57,-123.92 250.99,-124.66 250.37,-125.38 249.76,-126.1 249.12,-126.79 248.46,-127.46 247.79,-128.12 247.1,-128.76 246.38,-129.37 245.66,-129.99 244.92,-130.57 244.16,-131.12 243.4,-131.68 242.61,-132.2 241.81,-132.7 241.01,-133.19 240.18,-133.65 239.34,-134.08 238.5,-134.5 237.65,-134.9 236.78,-135.26 235.91,-135.62 235.02,-135.95 234.12,-136.24 234.12,-136.24 223,-102 223,-102"/>
<path fill="red" stroke="black" stroke-width="0.5" d="M223,-102C223,-102 234.12,-136.24 234.12,-136.24 233.23,-136.53 232.32,-136.79 231.4,-137.01 230.49,-137.23 229.56,-137.41 228.63,-137.56 227.7,-137.7 226.76,-137.82 225.82,-137.89 224.88,-137.96 223.94,-138 223,-138 222.06,-138 221.12,-137.96 220.18,-137.89 219.24,-137.82 218.3,-137.7 217.37,-137.56 216.44,-137.41 215.51,-137.23 214.6,-137.01 213.68,-136.79 212.77,-136.53 211.88,-136.24 210.98,-135.95 210.09,-135.62 209.22,-135.26 208.35,-134.9 207.5,-134.5 206.66,-134.08 205.82,-133.65 204.99,-133.19 204.19,-132.7 203.39,-132.2 202.6,-131.68 201.84,-131.12 201.08,-130.57 200.34,-129.99 199.62,-129.37 198.9,-128.76 198.21,-128.12 197.54,-127.46 196.88,-126.79 196.24,-126.1 195.63,-125.38 195.01,-124.66 194.43,-123.92 193.88,-123.16 193.88,-123.16 223,-102 223,-102"/>
<path fill="yellow" stroke="black" stroke-width="0.5" d="M223,-102C223,-102 193.88,-123.16 193.88,-123.16 193.32,-122.4 192.8,-121.61 192.3,-120.81 191.81,-120.01 191.35,-119.18 190.92,-118.34 190.5,-117.5 190.1,-116.65 189.74,-115.78 189.38,-114.91 189.05,-114.02 188.76,-113.12 188.47,-112.23 188.21,-111.32 187.99,-110.4 187.77,-109.49 187.59,-108.56 187.44,-107.63 187.3,-106.7 187.18,-105.76 187.11,-104.82 187.04,-103.88 187,-102.94 187,-102 187,-101.06 187.04,-100.12 187.11,-99.18 187.18,-98.24 187.3,-97.3 187.44,-96.37 187.59,-95.44 187.77,-94.51 187.99,-93.6 188.21,-92.68 188.47,-91.77 188.76,-90.88 189.05,-89.98 189.38,-89.09 189.74,-88.22 190.1,-87.35 190.5,-86.5 190.92,-85.66 191.35,-84.82 191.81,-83.99 192.3,-83.19 192.8,-82.39 193.32,-81.6 193.88,-80.84 193.88,-80.84 223,-102 223,-102"/>
<path fill="blue" stroke="black" stroke-width="0.5" d="M223,-102C223,-102 193.88,-80.84 193.88,-80.84 194.43,-80.08 195.01,-79.34 195.63,-78.62 196.24,-77.9 196.88,-77.21 197.54,-76.54 198.21,-75.88 198.9,-75.24 199.62,-74.63 200.34,-74.01 201.08,-73.43 201.84,-72.88 202.6,-72.32 203.39,-71.8 204.19,-71.3 204.99,-70.81 205.82,-70.35 206.66,-69.92 207.5,-69.5 208.35,-69.1 209.22,-68.74 210.09,-68.38 210.98,-68.05 211.88,-67.76 212.77,-67.47 213.68,-67.21 214.6,-66.99 215.51,-66.77 216.44,-66.59 217.37,-66.44 218.3,-66.3 219.24,-66.18 220.18,-66.11 221.12,-66.04 222.06,-66 223,-66 223.94,-66 224.88,-66.04 225.82,-66.11 226.76,-66.18 227.7,-66.3 228.63,-66.44 229.56,-66.59 230.49,-66.77 231.4,-66.99 232.32,-67.21 233.23,-67.47 234.12,-67.76 234.12,-67.76 223,-102 223,-102"/>
<path fill="grey" stroke="black" stroke-width="0.5" d="M223,-102C223,-102 234.12,-67.76 234.12,-67.76 235.02,-68.05 235.91,-68.38 236.78,-68.74 237.65,-69.1 238.5,-69.5 239.34,-69.92 240.18,-70.35 241.01,-70.81 241.81,-71.3 242.61,-71.8 243.4,-72.32 244.16,-72.88 244.92,-73.43 245.66,-74.01 246.38,-74.63 247.1,-75.24 247.79,-75.88 248.46,-76.54 249.12,-77.21 249.76,-77.9 250.37,-78.62 250.99,-79.34 251.57,-80.08 252.12,-80.84 252.68,-81.6 253.2,-82.39 253.7,-83.19 254.19,-83.99 254.65,-84.82 255.08,-85.66 255.5,-86.5 255.9,-87.35 256.26,-88.22 256.62,-89.09 256.95,-89.98 257.24,-90.88 257.53,-91.77 257.79,-92.68 258.01,-93.6 258.23,-94.51 258.41,-95.44 258.56,-96.37 258.7,-97.3 258.82,-98.24 258.89,-99.18 258.96,-100.12 259,-101.06 259,-102 259,-102 223,-102 223,-102"/>
<ellipse fill="none" stroke="black" cx="223" cy="-102" rx="36" ry="36"/>
</g>
<!-- c2 -->
<g id="node5" class="node">
<title>c2</title>
<path fill="green" stroke="green:red" stroke-width="0.5" d="M124,-113C124,-113 160,-113 160,-113 160,-114.18 159.94,-115.36 159.83,-116.53 159.71,-117.7 159.54,-118.87 159.31,-120.02 159.08,-121.18 158.79,-122.32 158.45,-123.45 158.11,-124.58 157.71,-125.69 157.26,-126.78 156.81,-127.87 156.3,-128.93 155.75,-129.97 155.19,-131.01 154.59,-132.02 153.93,-133 153.28,-133.98 152.58,-134.93 151.83,-135.84 151.08,-136.75 150.29,-137.62 149.46,-138.46 148.62,-139.29 147.75,-140.08 146.84,-140.83 145.93,-141.58 144.98,-142.28 144,-142.93 143.02,-143.59 142.01,-144.19 140.97,-144.75 139.93,-145.3 138.87,-145.81 137.78,-146.26 136.69,-146.71 135.58,-147.11 134.45,-147.45 133.32,-147.79 132.18,-148.08 131.02,-148.31 129.87,-148.54 128.7,-148.71 127.53,-148.83 126.36,-148.94 125.18,-149 124,-149 122.82,-149 121.64,-148.94 120.47,-148.83 119.3,-148.71 118.13,-148.54 116.98,-148.31 115.82,-148.08 114.68,-147.79 113.55,-147.45 112.42,-147.11 111.31,-146.71 110.22,-146.26 109.13,-145.81 108.07,-145.3 107.03,-144.75 105.99,-144.19 104.98,-143.59 104,-142.93 103.02,-142.28 102.07,-141.58 101.16,-140.83 100.25,-140.08 99.38,-139.29 98.54,-138.46 97.71,-137.62 96.92,-136.75 96.17,-135.84 95.42,-134.93 94.72,-133.98 94.07,-133 93.41,-132.02 92.81,-131.01 92.25,-129.97 91.7,-128.93 91.19,-127.87 90.74,-126.78 90.29,-125.69 89.89,-124.58 89.55,-123.45 89.21,-122.32 88.92,-121.18 88.69,-120.02 88.46,-118.87 88.29,-117.7 88.17,-116.53 88.06,-115.36 88,-114.18 88,-113 88,-113 124,-113 124,-113"/>
<path fill="red" stroke="green:red" stroke-width="0.5" d="M124,-113C124,-113 88,-113 88,-113 88,-111.82 88.06,-110.64 88.17,-109.47 88.29,-108.3 88.46,-107.13 88.69,-105.98 88.92,-104.82 89.21,-103.68 89.55,-102.55 89.89,-101.42 90.29,-100.31 90.74,-99.22 91.19,-98.13 91.7,-97.07 92.25,-96.03 92.81,-94.99 93.41,-93.98 94.07,-93 94.72,-92.02 95.42,-91.07 96.17,-90.16 96.92,-89.25 97.71,-88.38 98.54,-87.54 99.38,-86.71 100.25,-85.92 101.16,-85.17 102.07,-84.42 103.02,-83.72 104,-83.07 104.98,-82.41 105.99,-81.81 107.03,-81.25 108.07,-80.7 109.13,-80.19 110.22,-79.74 111.31,-79.29 112.42,-78.89 113.55,-78.55 114.68,-78.21 115.82,-77.92 116.98,-77.69 118.13,-77.46 119.3,-77.29 120.47,-77.17 121.64,-77.06 122.82,-77 124,-77 125.18,-77 126.36,-77.06 127.53,-77.17 128.7,-77.29 129.87,-77.46 131.02,-77.69 132.18,-77.92 133.32,-78.21 134.45,-78.55 135.58,-78.89 136.69,-79.29 137.78,-79.74 138.87,-80.19 139.93,-80.7 140.97,-81.25 142.01,-81.81 143.02,-82.41 144,-83.07 144.98,-83.72 145.93,-84.42 146.84,-85.17 147.75,-85.92 148.62,-86.71 149.46,-87.54 150.29,-88.38 151.08,-89.25 151.83,-90.16 152.58,-91.07 153.28,-92.02 153.93,-93 154.59,-93.98 155.19,-94.99 155.75,-96.03 156.3,-97.07 156.81,-98.13 157.26,-99.22 157.71,-100.31 158.11,-101.42 158.45,-102.55 158.79,-103.68 159.08,-104.82 159.31,-105.98 159.54,-107.13 159.71,-108.3 159.83,-109.47 159.94,-110.64 160,-111.82 160,-113 160,-113 124,-113 124,-113"/>
<ellipse fill="none" stroke="green:red" cx="124" cy="-113" rx="36" ry="36"/>
</g>
</g>
</svg>
