<?xml version="1.0" encoding="UTF-8" standalone="no"?>
<!DOCTYPE svg PUBLIC "-//W3C//DTD SVG 1.1//EN"
 "http://www.w3.org/Graphics/SVG/1.1/DTD/svg11.dtd">
<!-- Generated by graphviz version 2.43.0 (0)
 -->
<!-- Title: framework Pages: 1 -->
<svg width="1295pt" height="717pt"
 viewBox="0.00 0.00 1294.66 717.47" xmlns="http://www.w3.org/2000/svg" xmlns:xlink="http://www.w3.org/1999/xlink">
<g id="graph0" class="graph" transform="scale(1 1) rotate(0) translate(4 713.47)">
<title>framework</title>
<polygon fill="white" stroke="transparent" points="-4,4 -4,-713.47 1290.66,-713.47 1290.66,4 -4,4"/>
<!-- a -->
<g id="node1" class="node">
<title>a</title>
<polygon fill="#fb8072" stroke="#fb8072" points="155,-372.73 4,-372.73 0,-368.73 0,-336.73 151,-336.73 155,-340.73 155,-372.73"/>
<polyline fill="none" stroke="#fb8072" points="151,-368.73 0,-368.73 "/>
<polyline fill="none" stroke="#fb8072" points="151,-368.73 151,-336.73 "/>
<polyline fill="none" stroke="#fb8072" points="151,-368.73 155,-372.73 "/>
<text text-anchor="middle" x="77.5" y="-348.53" font-family="Times,serif" font-size="24.00">Mobile App</text>
</g>
<!-- b -->
<g id="node2" class="node">
<title>b</title>
<polygon fill="#b3de69" stroke="#b3de69" points="922.13,-372.73 919.13,-376.73 898.13,-376.73 895.13,-372.73 610.13,-372.73 610.13,-336.73 922.13,-336.73 922.13,-372.73"/>
<text text-anchor="middle" x="766.13" y="-348.53" font-family="Times,serif" font-size="24.00">Nativescript Framework</text>
</g>
<!-- b&#45;&gt;a -->
<g id="edge1" class="edge">
<title>b&#45;&gt;a</title>
<path fill="none" stroke="black" stroke-width="4" d="M609.87,-354.73C472.49,-354.73 277.5,-354.73 165.61,-354.73"/>
<polygon fill="black" stroke="black" stroke-width="4" points="165.38,-351.23 155.38,-354.73 165.38,-358.23 165.38,-351.23"/>
</g>
<!-- c -->
<g id="node3" class="node">
<title>c</title>
<ellipse fill="#bebada" stroke="#bebada" cx="571.8" cy="-24.04" rx="102.56" ry="24.08"/>
<text text-anchor="middle" x="571.8" y="-17.84" font-family="Times,serif" font-size="24.00">vue&#45;plugin</text>
</g>
<!-- c&#45;&gt;b -->
<g id="edge2" class="edge">
<title>c&#45;&gt;b</title>
<path fill="none" stroke="black" stroke-width="4" d="M585.93,-48.09C621.24,-108.17 713.12,-264.54 750.23,-327.69"/>
<polygon fill="black" stroke="black" stroke-width="4" points="747.42,-329.8 755.5,-336.65 753.45,-326.26 747.42,-329.8"/>
</g>
<!-- d -->
<g id="node4" class="node">
<title>d</title>
<ellipse fill="#8dd3c7" stroke="#8dd3c7" cx="1148.77" cy="-328.24" rx="137.77" ry="24.08"/>
<text text-anchor="middle" x="1148.77" y="-322.04" font-family="Times,serif" font-size="24.00">angular&#45;plugin</text>
</g>
<!-- d&#45;&gt;b -->
<g id="edge3" class="edge">
<title>d&#45;&gt;b</title>
<path fill="none" stroke="black" stroke-width="4" d="M1020.56,-337.12C992.27,-339.08 961.9,-341.18 932.34,-343.23"/>
<polygon fill="black" stroke="black" stroke-width="4" points="932.09,-339.73 922.36,-343.92 932.57,-346.72 932.09,-339.73"/>
</g>
<!-- e -->
<g id="node5" class="node">
<title>e</title>
<ellipse fill="#80b1d3" stroke="#80b1d3" cx="571.8" cy="-685.43" rx="155.63" ry="24.08"/>
<text text-anchor="middle" x="571.8" y="-679.23" font-family="Times,serif" font-size="24.00">javascript&#45;plugin</text>
</g>
<!-- e&#45;&gt;b -->
<g id="edge4" class="edge">
<title>e&#45;&gt;b</title>
<path fill="none" stroke="black" stroke-width="4" d="M585.93,-661.38C621.24,-601.3 713.12,-444.93 750.23,-381.78"/>
<polygon fill="black" stroke="black" stroke-width="4" points="753.45,-383.21 755.5,-372.82 747.42,-379.66 753.45,-383.21"/>
</g>
</g>
</svg>
