<?xml version="1.0" encoding="UTF-8" standalone="no"?>
<!DOCTYPE svg PUBLIC "-//W3C//DTD SVG 1.1//EN"
 "http://www.w3.org/Graphics/SVG/1.1/DTD/svg11.dtd">
<!-- Generated by graphviz version 2.43.0 (0)
 -->
<!-- Title: test123 Pages: 1 -->
<svg width="255pt" height="244pt"
 viewBox="0.00 0.00 255.25 244.17" xmlns="http://www.w3.org/2000/svg" xmlns:xlink="http://www.w3.org/1999/xlink">
<g id="graph0" class="graph" transform="scale(1 1) rotate(0) translate(4 240.17)">
<title>test123</title>
<polygon fill="white" stroke="transparent" points="-4,4 -4,-240.17 251.25,-240.17 251.25,4 -4,4"/>
<!-- x -->
<g id="node1" class="node">
<title>x</title>
<ellipse fill="#8dd3c7" stroke="#8dd3c7" cx="55" cy="-118.08" rx="27" ry="24.08"/>
<text text-anchor="middle" x="55" y="-111.88" font-family="Times,serif" font-size="24.00">x</text>
</g>
<!-- y -->
<g id="node2" class="node">
<title>y</title>
<ellipse fill="#ffffb3" stroke="#ffffb3" cx="27" cy="-24.04" rx="27" ry="24.08"/>
<text text-anchor="middle" x="27" y="-17.84" font-family="Times,serif" font-size="24.00">y</text>
</g>
<!-- x&#45;&#45;y -->
<g id="edge6" class="edge">
<title>x&#45;&#45;y</title>
<path fill="none" stroke="black" d="M48.22,-94.8C43.85,-80.44 38.19,-61.82 33.81,-47.44"/>
</g>
<!-- c -->
<g id="node6" class="node">
<title>c</title>
<ellipse fill="#fdb462" stroke="#fdb462" cx="203" cy="-24.04" rx="27" ry="24.08"/>
<text text-anchor="middle" x="203" y="-17.84" font-family="Times,serif" font-size="24.00">c</text>
</g>
<!-- x&#45;&#45;c -->
<g id="edge5" class="edge">
<title>x&#45;&#45;c</title>
<path fill="none" stroke="black" d="M72.54,-99.34C78.18,-94.1 84.62,-88.57 91,-84.08 119.4,-64.09 155.4,-46.28 178.81,-35.58"/>
</g>
<!-- a -->
<g id="node3" class="node">
<title>a</title>
<ellipse fill="#bebada" stroke="#bebada" cx="166" cy="-212.12" rx="27" ry="24.08"/>
<text text-anchor="middle" x="166" y="-205.92" font-family="Times,serif" font-size="24.00">A</text>
</g>
<!-- a&#45;&#45;x -->
<g id="edge3" class="edge">
<title>a&#45;&#45;x</title>
<path fill="none" stroke="black" d="M145.94,-195.98C130.64,-184.29 109.18,-167.54 91,-152.08 85.06,-147.03 78.74,-141.35 73.08,-136.14"/>
</g>
<!-- a&#45;&#45;y -->
<g id="edge4" class="edge">
<title>a&#45;&#45;y</title>
<path fill="none" stroke="black" d="M138.96,-209.07C104.41,-204.83 45.88,-191.84 19,-152.08 -2.29,-120.59 8.64,-74.07 18.11,-46.93"/>
</g>
<!-- d -->
<g id="node4" class="node">
<title>d</title>
<path fill="#fb8072" stroke="#fb8072" d="M121.21,-142.95C121.21,-142.95 107.79,-127.21 107.79,-127.21 103.89,-122.65 103.89,-113.52 107.79,-108.95 107.79,-108.95 121.21,-93.21 121.21,-93.21 125.11,-88.65 132.89,-88.65 136.79,-93.21 136.79,-93.21 150.21,-108.95 150.21,-108.95 154.11,-113.52 154.11,-122.65 150.21,-127.21 150.21,-127.21 136.79,-142.95 136.79,-142.95 132.89,-147.52 125.11,-147.52 121.21,-142.95"/>
<text text-anchor="middle" x="129" y="-111.88" font-family="Times,serif" font-size="24.00">d</text>
</g>
<!-- a&#45;&#45;d -->
<g id="edge7" class="edge">
<title>a&#45;&#45;d</title>
<path fill="none" stroke="red" stroke-width="3" d="M157.23,-189.31C151.46,-174.96 143.93,-156.21 138.09,-141.7"/>
</g>
<!-- b -->
<g id="node5" class="node">
<title>b</title>
<ellipse fill="#80b1d3" stroke="#80b1d3" cx="203" cy="-118.08" rx="27" ry="24.08"/>
<text text-anchor="middle" x="203" y="-111.88" font-family="Times,serif" font-size="24.00">b</text>
</g>
<!-- a&#45;&#45;b -->
<g id="edge1" class="edge">
<title>a&#45;&#45;b</title>
<path fill="none" stroke="black" d="M169.38,-187.9C174.31,-172.77 182.25,-153.26 189.38,-138.87"/>
</g>
<!-- a&#45;&#45;b -->
<g id="edge8" class="edge">
<title>a&#45;&#45;b</title>
<path fill="none" stroke="red" stroke-width="3" d="M179.71,-191.15C186.82,-176.77 194.73,-157.33 199.63,-142.26"/>
</g>
<!-- a&#45;&#45;c -->
<g id="edge9" class="edge">
<title>a&#45;&#45;c</title>
<path fill="none" stroke="red" stroke-width="3" d="M189.17,-199.69C206.45,-189.74 228.75,-173.56 239,-152.08 252.02,-124.81 247.17,-113.18 239,-84.08 234.91,-69.52 226.13,-54.99 218.26,-43.99"/>
</g>
<!-- b&#45;&#45;c -->
<g id="edge2" class="edge">
<title>b&#45;&#45;c</title>
<path fill="none" stroke="black" d="M203,-93.86C203,-79.9 203,-62.21 203,-48.26"/>
</g>
</g>
</svg>
