<?xml version="1.0" encoding="UTF-8" standalone="no"?>
<!DOCTYPE svg PUBLIC "-//W3C//DTD SVG 1.1//EN"
 "http://www.w3.org/Graphics/SVG/1.1/DTD/svg11.dtd">
<!-- Generated by graphviz version 2.43.0 (0)
 -->
<!-- Title: test123 Pages: 1 -->
<svg width="441pt" height="300pt"
 viewBox="0.00 0.00 441.33 299.95" xmlns="http://www.w3.org/2000/svg" xmlns:xlink="http://www.w3.org/1999/xlink">
<g id="graph0" class="graph" transform="scale(1 1) rotate(0) translate(4 295.95)">
<title>test123</title>
<polygon fill="white" stroke="transparent" points="-4,4 -4,-295.95 437.33,-295.95 437.33,4 -4,4"/>
<!-- x -->
<g id="node1" class="node">
<title>x</title>
<ellipse fill="#8dd3c7" stroke="#8dd3c7" cx="306.59" cy="-162.03" rx="27" ry="24.08"/>
<text text-anchor="middle" x="306.59" y="-155.83" font-family="Times,serif" font-size="24.00">x</text>
</g>
<!-- y -->
<g id="node2" class="node">
<title>y</title>
<ellipse fill="#ffffb3" stroke="#ffffb3" cx="282.43" cy="-24.04" rx="27" ry="24.08"/>
<text text-anchor="middle" x="282.43" y="-17.84" font-family="Times,serif" font-size="24.00">y</text>
</g>
<!-- x&#45;&#45;y -->
<g id="edge6" class="edge">
<title>x&#45;&#45;y</title>
<path fill="none" stroke="black" d="M302.38,-138C297.95,-112.67 291.01,-73.02 286.59,-47.8"/>
</g>
<!-- c -->
<g id="node6" class="node">
<title>c</title>
<ellipse fill="#fdb462" stroke="#fdb462" cx="352.93" cy="-218.69" rx="27" ry="24.08"/>
<text text-anchor="middle" x="352.93" y="-212.49" font-family="Times,serif" font-size="24.00">c</text>
</g>
<!-- x&#45;&#45;c -->
<g id="edge5" class="edge">
<title>x&#45;&#45;c</title>
<path fill="none" stroke="black" d="M322.54,-181.53C327.15,-187.17 332.18,-193.32 336.8,-198.97"/>
</g>
<!-- a -->
<g id="node3" class="node">
<title>a</title>
<ellipse fill="#bebada" stroke="#bebada" cx="268.47" cy="-97.92" rx="27" ry="24.08"/>
<text text-anchor="middle" x="268.47" y="-91.72" font-family="Times,serif" font-size="24.00">A</text>
</g>
<!-- a&#45;&#45;x -->
<g id="edge3" class="edge">
<title>a&#45;&#45;x</title>
<path fill="none" stroke="black" d="M281.17,-119.27C285.24,-126.12 289.75,-133.7 293.82,-140.56"/>
</g>
<!-- a&#45;&#45;y -->
<g id="edge4" class="edge">
<title>a&#45;&#45;y</title>
<path fill="none" stroke="black" d="M272.97,-74.14C274.56,-65.7 276.36,-56.21 277.95,-47.78"/>
</g>
<!-- d -->
<g id="node4" class="node">
<title>d</title>
<path fill="#fb8072" stroke="#fb8072" d="M21.21,-122.15C21.21,-122.15 7.79,-106.41 7.79,-106.41 3.89,-101.85 3.89,-92.72 7.79,-88.15 7.79,-88.15 21.21,-72.41 21.21,-72.41 25.11,-67.85 32.89,-67.85 36.79,-72.41 36.79,-72.41 50.21,-88.15 50.21,-88.15 54.11,-92.72 54.11,-101.85 50.21,-106.41 50.21,-106.41 36.79,-122.15 36.79,-122.15 32.89,-126.72 25.11,-126.72 21.21,-122.15"/>
<text text-anchor="middle" x="29" y="-91.08" font-family="Times,serif" font-size="24.00">d</text>
</g>
<!-- a&#45;&#45;d -->
<g id="edge7" class="edge">
<title>a&#45;&#45;d</title>
<path fill="none" stroke="red" stroke-width="3" d="M241.47,-97.85C196.09,-97.73 104.92,-97.49 58.14,-97.36"/>
</g>
<!-- b -->
<g id="node5" class="node">
<title>b</title>
<ellipse fill="#80b1d3" stroke="#80b1d3" cx="406.33" cy="-267.91" rx="27" ry="24.08"/>
<text text-anchor="middle" x="406.33" y="-261.71" font-family="Times,serif" font-size="24.00">b</text>
</g>
<!-- a&#45;&#45;b -->
<g id="edge1" class="edge">
<title>a&#45;&#45;b</title>
<path fill="none" stroke="black" d="M280.31,-119.56C304.22,-153.9 357.73,-219.93 386.84,-251.04"/>
</g>
<!-- a&#45;&#45;b -->
<g id="edge8" class="edge">
<title>a&#45;&#45;b</title>
<path fill="none" stroke="red" stroke-width="3" d="M288.07,-114.91C317.17,-146.04 370.52,-211.86 394.43,-246.19"/>
</g>
<!-- a&#45;&#45;c -->
<g id="edge9" class="edge">
<title>a&#45;&#45;c</title>
<path fill="none" stroke="red" stroke-width="3" d="M282.8,-118.41C298.33,-140.62 322.98,-175.86 338.54,-198.11"/>
</g>
<!-- b&#45;&#45;c -->
<g id="edge2" class="edge">
<title>b&#45;&#45;c</title>
<path fill="none" stroke="black" d="M387.35,-250.42C382.32,-245.78 376.88,-240.77 371.85,-236.13"/>
</g>
</g>
</svg>
