<?xml version="1.0" encoding="UTF-8" standalone="no"?>
<!DOCTYPE svg PUBLIC "-//W3C//DTD SVG 1.1//EN"
 "http://www.w3.org/Graphics/SVG/1.1/DTD/svg11.dtd">
<!-- Generated by graphviz version 2.43.0 (0)
 -->
<!-- Title: G Pages: 1 -->
<svg width="317pt" height="301pt"
 viewBox="0.00 0.00 316.55 300.69" xmlns="http://www.w3.org/2000/svg" xmlns:xlink="http://www.w3.org/1999/xlink">
<g id="graph0" class="graph" transform="scale(1 1) rotate(0) translate(4 296.69)">
<title>G</title>
<polygon fill="white" stroke="transparent" points="-4,4 -4,-296.69 312.55,-296.69 312.55,4 -4,4"/>
<!-- main -->
<g id="node1" class="node">
<title>main</title>
<polygon fill="none" stroke="blue" points="161,-292.69 107,-292.69 107,-256.69 161,-256.69 161,-292.69"/>
<text text-anchor="middle" x="134" y="-270.99" font-family="Times,serif" font-size="14.00">main</text>
</g>
<!-- parse -->
<g id="node2" class="node">
<title>parse</title>
<polygon fill="none" stroke="black" points="192,-205.35 133.51,-170.85 250.49,-170.85 192,-205.35"/>
<text text-anchor="middle" x="192" y="-178.65" font-family="Times,serif" font-size="14.00">parse</text>
</g>
<!-- main&#45;&gt;parse -->
<g id="edge1" class="edge">
<title>main&#45;&gt;parse</title>
<path fill="none" stroke="black" d="M145.18,-256.27C153.99,-242.56 166.37,-223.27 176.19,-207.97"/>
<polygon fill="black" stroke="black" points="179.17,-209.8 181.63,-199.5 173.28,-206.02 179.17,-209.8"/>
</g>
<!-- cleanup -->
<g id="node3" class="node">
<title>cleanup</title>
<ellipse fill="none" stroke="black" cx="77" cy="-182.35" rx="38.19" ry="38.19"/>
<text text-anchor="middle" x="77" y="-178.65" font-family="Times,serif" font-size="14.00">cleanup</text>
</g>
<!-- main&#45;&gt;cleanup -->
<g id="edge4" class="edge">
<title>main&#45;&gt;cleanup</title>
<path fill="none" stroke="black" d="M123.01,-256.27C117.18,-247.04 109.76,-235.28 102.59,-223.91"/>
<polygon fill="black" stroke="black" points="105.48,-221.93 97.19,-215.34 99.56,-225.67 105.48,-221.93"/>
</g>
<!-- init -->
<g id="node5" class="node">
<title>init</title>
<ellipse fill="none" stroke="black" cx="27" cy="-90" rx="27" ry="18"/>
<text text-anchor="middle" x="27" y="-86.3" font-family="Times,serif" font-size="14.00">init</text>
</g>
<!-- main&#45;&gt;init -->
<g id="edge3" class="edge">
<title>main&#45;&gt;init</title>
<path fill="none" stroke="black" stroke-dasharray="1,5" d="M106.97,-268.13C82.21,-261.46 46.94,-247.63 30,-220.69 10.55,-189.75 14.55,-145.93 20.09,-117.98"/>
<polygon fill="black" stroke="black" points="23.53,-118.63 22.24,-108.11 16.69,-117.14 23.53,-118.63"/>
</g>
<!-- printf -->
<g id="node6" class="node">
<title>printf</title>
<ellipse fill="none" stroke="black" cx="278" cy="-18" rx="30.59" ry="18"/>
<text text-anchor="middle" x="278" y="-14.3" font-family="Times,serif" font-size="14.00">printf</text>
</g>
<!-- main&#45;&gt;printf -->
<g id="edge5" class="edge">
<title>main&#45;&gt;printf</title>
<path fill="none" stroke="black" d="M161.18,-270.31C190.47,-265.1 235.96,-252.17 259,-220.69 297.03,-168.74 290.39,-87.95 283.51,-46.13"/>
<polygon fill="black" stroke="black" points="286.93,-45.38 281.74,-36.14 280.04,-46.6 286.93,-45.38"/>
</g>
<!-- execute -->
<g id="node4" class="node">
<title>execute</title>
<polygon fill="red" stroke="red" points="231.68,-85.99 223.43,-101.22 190,-108 156.57,-101.22 148.32,-85.99 171.45,-73.78 208.55,-73.78 231.68,-85.99"/>
<text text-anchor="middle" x="190" y="-86.3" font-family="Times,serif" font-size="14.00">execute</text>
</g>
<!-- parse&#45;&gt;execute -->
<g id="edge2" class="edge">
<title>parse&#45;&gt;execute</title>
<path fill="none" stroke="black" d="M191.76,-170.63C191.48,-157.85 191,-136.03 190.61,-118.46"/>
<polygon fill="black" stroke="black" points="194.1,-118.1 190.38,-108.18 187.1,-118.26 194.1,-118.1"/>
</g>
<!-- execute&#45;&gt;printf -->
<g id="edge7" class="edge">
<title>execute&#45;&gt;printf</title>
<path fill="none" stroke="black" d="M209.09,-73.81C221.74,-63.75 238.47,-50.44 252.28,-39.46"/>
<polygon fill="black" stroke="black" points="254.79,-41.93 260.44,-32.97 250.43,-36.46 254.79,-41.93"/>
</g>
<!-- make_string -->
<g id="node7" class="node">
<title>make_string</title>
<ellipse fill="none" stroke="black" cx="58" cy="-18" rx="54.69" ry="18"/>
<text text-anchor="middle" x="58" y="-14.3" font-family="Times,serif" font-size="14.00">make_string</text>
</g>
<!-- execute&#45;&gt;make_string -->
<g id="edge6" class="edge">
<title>execute&#45;&gt;make_string</title>
<path fill="none" stroke="black" d="M166.1,-76.32C146.25,-65.8 117.68,-50.65 94.89,-38.56"/>
<polygon fill="black" stroke="black" points="96.32,-35.36 85.84,-33.77 93.04,-41.54 96.32,-35.36"/>
</g>
<!-- compare -->
<g id="node8" class="node">
<title>compare</title>
<ellipse fill="none" stroke="black" cx="188" cy="-18" rx="41.69" ry="18"/>
<text text-anchor="middle" x="188" y="-14.3" font-family="Times,serif" font-size="14.00">compare</text>
</g>
<!-- execute&#45;&gt;compare -->
<g id="edge8" class="edge">
<title>execute&#45;&gt;compare</title>
<path fill="none" stroke="red" d="M189.56,-73.46C189.33,-65.59 189.05,-55.79 188.79,-46.68"/>
<polygon fill="red" stroke="red" points="192.28,-46.36 188.5,-36.46 185.29,-46.56 192.28,-46.36"/>
</g>
<!-- init&#45;&gt;make_string -->
<g id="edge9" class="edge">
<title>init&#45;&gt;make_string</title>
<path fill="none" stroke="red" d="M34.35,-72.41C37.92,-64.34 42.31,-54.43 46.33,-45.35"/>
<polygon fill="red" stroke="red" points="49.64,-46.52 50.49,-35.96 43.24,-43.68 49.64,-46.52"/>
</g>
</g>
</svg>
