<svg width="1144" height="188pt" viewBox="0 0 858.13 188.08" xmlns="http://www.w3.org/2000/svg">
    <g class="graph">
        <path fill="#fff" stroke="transparent" d="M0 188.08V0h858.13v188.08H0z"/>
        <g class="node">
            <path fill="#fb8072" stroke="#000" d="M854.13 76.04h-151l-4 4v32h151l4-4v-32z"/>
            <path fill="none" stroke="#000" d="M850.13 80.04h-151m151 0v32m0-32l4-4"/>
            <text text-anchor="middle" x="772.63" y="-83.84" font-family="Times,serif" font-size="24" transform="translate(4 184.08)">
                Mobile App
            </text>
        </g>
        <g class="node">
            <path fill="#b3de69" stroke="#000" d="M663.13 76.04l-3-4h-21l-3 4h-285v36h312v-36z"/>
            <text text-anchor="middle" x="503.13" y="-83.84" font-family="Times,serif" font-size="24" transform="translate(4 184.08)">
                Nativescript Framework
            </text>
        </g>
        <g class="edge" stroke="brown" stroke-width="4">
            <path fill="none" d="M663.35 94.04h25.25"/>
            <path fill="brown" d="M688.83 90.54l10 3.5-10 3.5v-7z"/>
        </g>
        <g class="node" transform="translate(4 184.08)">
            <ellipse fill="#bebada" stroke="#000" cx="155.56" cy="-156.04" rx="102.56" ry="24.08"/>
            <text text-anchor="middle" x="155.56" y="-149.84" font-family="Times,serif" font-size="24">
                vue-plugin
            </text>
        </g>
        <g class="edge" stroke="brown" stroke-width="4">
            <path fill="none" d="M239.84 43.18c48.11 9.19 110.06 21.02 162.1 30.96"/>
            <path fill="brown" d="M402.71 70.72l9.16 5.32-10.48 1.56 1.32-6.88z"/>
        </g>
        <g class="node" transform="translate(4 184.08)">
            <ellipse fill="#8dd3c7" stroke="#000" cx="155.56" cy="-90.04" rx="137.77" ry="24.08"/>
            <text text-anchor="middle" x="155.56" y="-83.84" font-family="Times,serif" font-size="24">
                angular-plugin
            </text>
        </g>
        <g class="edge" stroke="brown" stroke-width="4">
            <path fill="none" d="M297.64 94.04h43.32"/>
            <path fill="brown" d="M340.98 90.54l10 3.5-10 3.5v-7z"/>
        </g>
        <g class="node" transform="translate(4 184.08)">
            <ellipse fill="#80b1d3" stroke="#000" cx="155.56" cy="-24.04" rx="155.63" ry="24.08"/>
            <text text-anchor="middle" x="155.56" y="-17.84" font-family="Times,serif" font-size="24">
                javascript-plugin
            </text>
        </g>
        <g class="edge" stroke="brown" stroke-width="4">
            <path fill="none" d="M258.2 141.39l143.6-27.43"/>
            <path fill="brown" d="M401.23 110.51l10.48 1.56-9.17 5.32-1.31-6.88z"/>
        </g>
    </g>
</svg>
