<?xml version="1.0" encoding="UTF-8" standalone="no"?>
<!DOCTYPE svg PUBLIC "-//W3C//DTD SVG 1.1//EN"
 "http://www.w3.org/Graphics/SVG/1.1/DTD/svg11.dtd">
<!-- Generated by graphviz version 2.43.0 (0)
 -->
<!-- Title: bst Pages: 1 -->
<svg width="218pt" height="331pt"
 viewBox="0.00 0.00 218.23 331.33" xmlns="http://www.w3.org/2000/svg" xmlns:xlink="http://www.w3.org/1999/xlink">
<g id="graph0" class="graph" transform="scale(1 1) rotate(0) translate(4 327.33)">
<title>bst</title>
<polygon fill="white" stroke="transparent" points="-4,4 -4,-327.33 214.23,-327.33 214.23,4 -4,4"/>
<text text-anchor="middle" x="105.12" y="-7.8" font-family="Times,serif" font-size="14.00">Binary Search Tree</text>
<!-- 8 -->
<g id="node1" class="node">
<title>8</title>
<ellipse fill="#8dd3c7" stroke="black" cx="138" cy="-299.29" rx="27" ry="24.08"/>
<text text-anchor="middle" x="138" y="-293.09" font-family="Times,serif" font-size="24.00">8</text>
</g>
<!-- 3 -->
<g id="node2" class="node">
<title>3</title>
<ellipse fill="#ffffb3" stroke="black" cx="99" cy="-215.21" rx="27" ry="24.08"/>
<text text-anchor="middle" x="99" y="-209.01" font-family="Times,serif" font-size="24.00">3</text>
</g>
<!-- 8&#45;&gt;3 -->
<g id="edge1" class="edge">
<title>8&#45;&gt;3</title>
<path fill="none" stroke="black" d="M127.75,-276.73C123.41,-267.58 118.27,-256.76 113.54,-246.81"/>
<polygon fill="black" stroke="black" points="116.63,-245.16 109.18,-237.63 110.31,-248.16 116.63,-245.16"/>
</g>
<!-- 10 -->
<g id="node7" class="node">
<title>10</title>
<ellipse fill="#b3de69" stroke="black" cx="177" cy="-215.21" rx="33.47" ry="24.08"/>
<text text-anchor="middle" x="177" y="-209.01" font-family="Times,serif" font-size="24.00">10</text>
</g>
<!-- 8&#45;&gt;10 -->
<g id="edge2" class="edge">
<title>8&#45;&gt;10</title>
<path fill="none" stroke="black" d="M148.25,-276.73C152.52,-267.73 157.57,-257.1 162.23,-247.29"/>
<polygon fill="black" stroke="black" points="165.42,-248.74 166.55,-238.2 159.1,-245.73 165.42,-248.74"/>
</g>
<!-- 1 -->
<g id="node3" class="node">
<title>1</title>
<ellipse fill="#bebada" stroke="black" cx="27" cy="-131.12" rx="27" ry="24.08"/>
<text text-anchor="middle" x="27" y="-124.92" font-family="Times,serif" font-size="24.00">1</text>
</g>
<!-- 3&#45;&gt;1 -->
<g id="edge3" class="edge">
<title>3&#45;&gt;1</title>
<path fill="none" stroke="black" d="M82.66,-195.58C73,-184.56 60.6,-170.43 49.96,-158.31"/>
<polygon fill="black" stroke="black" points="52.5,-155.89 43.27,-150.68 47.24,-160.5 52.5,-155.89"/>
</g>
<!-- 6 -->
<g id="node4" class="node">
<title>6</title>
<ellipse fill="#fb8072" stroke="black" cx="99" cy="-131.12" rx="27" ry="24.08"/>
<text text-anchor="middle" x="99" y="-124.92" font-family="Times,serif" font-size="24.00">6</text>
</g>
<!-- 3&#45;&gt;6 -->
<g id="edge4" class="edge">
<title>3&#45;&gt;6</title>
<path fill="none" stroke="black" d="M99,-190.91C99,-182.95 99,-173.9 99,-165.32"/>
<polygon fill="black" stroke="black" points="102.5,-165.2 99,-155.2 95.5,-165.2 102.5,-165.2"/>
</g>
<!-- 4 -->
<g id="node5" class="node">
<title>4</title>
<ellipse fill="#80b1d3" stroke="black" cx="27" cy="-47.04" rx="27" ry="24.08"/>
<text text-anchor="middle" x="27" y="-40.84" font-family="Times,serif" font-size="24.00">4</text>
</g>
<!-- 6&#45;&gt;4 -->
<g id="edge5" class="edge">
<title>6&#45;&gt;4</title>
<path fill="none" stroke="black" d="M82.66,-111.5C73,-100.48 60.6,-86.35 49.96,-74.22"/>
<polygon fill="black" stroke="black" points="52.5,-71.8 43.27,-66.59 47.24,-76.42 52.5,-71.8"/>
</g>
<!-- 7 -->
<g id="node6" class="node">
<title>7</title>
<ellipse fill="#fdb462" stroke="black" cx="99" cy="-47.04" rx="27" ry="24.08"/>
<text text-anchor="middle" x="99" y="-40.84" font-family="Times,serif" font-size="24.00">7</text>
</g>
<!-- 6&#45;&gt;7 -->
<g id="edge6" class="edge">
<title>6&#45;&gt;7</title>
<path fill="none" stroke="black" d="M99,-106.82C99,-98.87 99,-89.82 99,-81.24"/>
<polygon fill="black" stroke="black" points="102.5,-81.12 99,-71.12 95.5,-81.12 102.5,-81.12"/>
</g>
<!-- 14 -->
<g id="node8" class="node">
<title>14</title>
<ellipse fill="#fccde5" stroke="black" cx="177" cy="-131.12" rx="33.47" ry="24.08"/>
<text text-anchor="middle" x="177" y="-124.92" font-family="Times,serif" font-size="24.00">14</text>
</g>
<!-- 10&#45;&gt;14 -->
<g id="edge7" class="edge">
<title>10&#45;&gt;14</title>
<path fill="none" stroke="black" d="M177,-190.91C177,-182.95 177,-173.9 177,-165.32"/>
<polygon fill="black" stroke="black" points="180.5,-165.2 177,-155.2 173.5,-165.2 180.5,-165.2"/>
</g>
<!-- 13 -->
<g id="node9" class="node">
<title>13</title>
<ellipse fill="#d9d9d9" stroke="black" cx="177" cy="-47.04" rx="33.47" ry="24.08"/>
<text text-anchor="middle" x="177" y="-40.84" font-family="Times,serif" font-size="24.00">13</text>
</g>
<!-- 14&#45;&gt;13 -->
<g id="edge8" class="edge">
<title>14&#45;&gt;13</title>
<path fill="none" stroke="black" d="M177,-106.82C177,-98.87 177,-89.82 177,-81.24"/>
<polygon fill="black" stroke="black" points="180.5,-81.12 177,-71.12 173.5,-81.12 180.5,-81.12"/>
</g>
</g>
</svg>
