<?xml version="1.0" encoding="UTF-8" standalone="no"?>
<!DOCTYPE svg PUBLIC "-//W3C//DTD SVG 1.1//EN"
 "http://www.w3.org/Graphics/SVG/1.1/DTD/svg11.dtd">
<!-- Generated by graphviz version 2.43.0 (0)
 -->
<!-- Title: structs Pages: 1 -->
<svg width="382pt" height="162pt"
 viewBox="0.00 0.00 382.00 162.00" xmlns="http://www.w3.org/2000/svg" xmlns:xlink="http://www.w3.org/1999/xlink">
<g id="graph0" class="graph" transform="scale(1 1) rotate(0) translate(4 158)">
<title>structs</title>
<text text-anchor="middle" x="187" y="-10" font-family="Times,serif" font-size="20.00">database relationships</text>
<!-- 1 -->
<g id="node1" class="node">
<title>1</title>
<polygon fill="#8dd3c7" stroke="black" points="137,-30.5 137,-99.5 241,-99.5 241,-30.5 137,-30.5"/>
<text text-anchor="middle" x="189" y="-84.3" font-family="Times,serif" font-size="14.00">primary key</text>
<polyline fill="none" stroke="black" points="137,-76.5 241,-76.5 "/>
<text text-anchor="middle" x="189" y="-61.3" font-family="Times,serif" font-size="14.00">CUSTOMER</text>
<polyline fill="none" stroke="black" points="137,-53.5 241,-53.5 "/>
<text text-anchor="middle" x="189" y="-38.3" font-family="Times,serif" font-size="14.00">other info</text>
</g>
<!-- 3 -->
<g id="node3" class="node">
<title>3</title>
<polygon fill="#bebada" stroke="black" points="277,-76.5 277,-145.5 374,-145.5 374,-76.5 277,-76.5"/>
<text text-anchor="middle" x="325.5" y="-130.3" font-family="Times,serif" font-size="14.00">id</text>
<polyline fill="none" stroke="black" points="277,-122.5 374,-122.5 "/>
<text text-anchor="middle" x="325.5" y="-107.3" font-family="Times,serif" font-size="14.00">ORDERS</text>
<polyline fill="none" stroke="black" points="277,-99.5 374,-99.5 "/>
<text text-anchor="middle" x="325.5" y="-84.3" font-family="Times,serif" font-size="14.00">foreign key</text>
</g>
<!-- 1&#45;&gt;3 -->
<g id="edge3" class="edge">
<title>1:f2&#45;&gt;3</title>
<path fill="none" stroke="#e41a1c" stroke-width="2" d="M248.99,-42.63C266.14,-45.32 281.39,-56.29 293.61,-68.69"/>
<ellipse fill="#e41a1c" stroke="#e41a1c" stroke-width="2" cx="244.99" cy="-42.31" rx="4" ry="4"/>
<polygon fill="#e41a1c" stroke="#e41a1c" stroke-width="2" points="293.67,-68.75 297.15,-79.15 297.06,-72.42 300.45,-76.1 300.45,-76.1 300.45,-76.1 297.06,-72.42 303.76,-73.04 293.67,-68.75 293.67,-68.75"/>
</g>
<!-- 2 -->
<g id="node2" class="node">
<title>2</title>
<polygon fill="#ffffb3" stroke="black" points="0,-84.5 0,-153.5 101,-153.5 101,-84.5 0,-84.5"/>
<text text-anchor="middle" x="50.5" y="-138.3" font-family="Times,serif" font-size="14.00">id</text>
<polyline fill="none" stroke="black" points="0,-130.5 101,-130.5 "/>
<text text-anchor="middle" x="50.5" y="-115.3" font-family="Times,serif" font-size="14.00">PRODUCTS</text>
<polyline fill="none" stroke="black" points="0,-107.5 101,-107.5 "/>
<text text-anchor="middle" x="50.5" y="-92.3" font-family="Times,serif" font-size="14.00">foreign key</text>
</g>
<!-- 2&#45;&gt;1 -->
<g id="edge1" class="edge">
<title>2:f2&#45;&gt;1:id</title>
<path fill="none" stroke="black" d="M101,-96C113.42,-96 118.28,-91.41 127.03,-89.18"/>
<polygon fill="black" stroke="black" points="127.48,-92.65 137,-88 126.66,-85.7 127.48,-92.65"/>
</g>
<!-- 2&#45;&gt;3 -->
<g id="edge4" class="edge">
<title>2&#45;&gt;3</title>
<path fill="none" stroke="#e41a1c" stroke-width="2" d="M111.55,-117.24C157.78,-115.89 221.28,-114.02 266.89,-112.69"/>
<polygon fill="#e41a1c" stroke="#e41a1c" stroke-width="2" points="111.25,-117.25 101.12,-113.04 106.25,-117.4 101.25,-117.54 101.25,-117.54 101.25,-117.54 106.25,-117.4 101.39,-122.04 111.25,-117.25 111.25,-117.25"/>
<polygon fill="#e41a1c" stroke="#e41a1c" stroke-width="2" points="266.92,-112.69 277.05,-116.89 271.92,-112.54 276.92,-112.39 276.92,-112.39 276.92,-112.39 271.92,-112.54 276.78,-107.9 266.92,-112.69 266.92,-112.69"/>
</g>
<!-- 3&#45;&gt;1 -->
<g id="edge2" class="edge">
<title>3:f2&#45;&gt;1:id</title>
<path fill="none" stroke="black" d="M277,-88C265,-88 259.75,-88 251.12,-88"/>
<polygon fill="black" stroke="black" points="251,-84.5 241,-88 251,-91.5 251,-84.5"/>
</g>
</g>
</svg>
