<?xml version="1.0" encoding="UTF-8" standalone="no"?>
<!DOCTYPE svg PUBLIC "-//W3C//DTD SVG 1.1//EN"
 "http://www.w3.org/Graphics/SVG/1.1/DTD/svg11.dtd">
<!-- Generated by graphviz version 2.40.1 (20161225.0304)
 -->
<!-- Title: mindmap Pages: 1 -->
<svg width="581pt" height="526pt"
 viewBox="0.00 0.00 580.71 525.58" xmlns="http://www.w3.org/2000/svg" xmlns:xlink="http://www.w3.org/1999/xlink">
<g id="graph0" class="graph" transform="scale(1 1) rotate(0) translate(4 521.5812)">
<title>mindmap</title>
<text text-anchor="middle" x="286.3542" y="-7.8" font-family="Times,serif" font-size="14.00" fill="#000000">dotnet Mindmap</text>
<!-- root -->
<g id="node1" class="node">
<title>root</title>
<defs>
<linearGradient id="l_0" gradientUnits="userSpaceOnUse" x1="221.0906" y1="-270.3934" x2="365.0906" y2="-270.3934" >
<stop offset="0" style="stop-color:#fb8072;stop-opacity:1.;"/>
<stop offset="1" style="stop-color:#fdb462;stop-opacity:1.;"/>
</linearGradient>
</defs>
<path fill="url(#l_0)" stroke="#000000" d="M353.0906,-288.3934C353.0906,-288.3934 233.0906,-288.3934 233.0906,-288.3934 227.0906,-288.3934 221.0906,-282.3934 221.0906,-276.3934 221.0906,-276.3934 221.0906,-264.3934 221.0906,-264.3934 221.0906,-258.3934 227.0906,-252.3934 233.0906,-252.3934 233.0906,-252.3934 353.0906,-252.3934 353.0906,-252.3934 359.0906,-252.3934 365.0906,-258.3934 365.0906,-264.3934 365.0906,-264.3934 365.0906,-276.3934 365.0906,-276.3934 365.0906,-282.3934 359.0906,-288.3934 353.0906,-288.3934"/>
<text text-anchor="middle" x="293.0906" y="-265.3934" font-family="Times,serif" font-size="20.00" fill="#000000">dotnet core f/w</text>
</g>
<!-- a -->
<g id="node2" class="node">
<title>a</title>
<ellipse fill="#8dd3c7" stroke="#000000" cx="522.5039" cy="-270.3934" rx="50.41" ry="26.7407"/>
<text text-anchor="middle" x="522.5039" y="-274.1934" font-family="Times,serif" font-size="14.00" fill="#000000">web apps </text>
<text text-anchor="middle" x="522.5039" y="-259.1934" font-family="Times,serif" font-size="14.00" fill="#000000"> SPA</text>
</g>
<!-- root&#45;&gt;a -->
<g id="edge1" class="edge">
<title>root&#45;&gt;a</title>
<polygon fill="#000000" stroke="transparent" stroke-width="20" points="365.3635,-280.3934 370.6078,-279.9017 375.9308,-279.4026 381.321,-278.8972 386.7668,-278.3866 392.2566,-277.8719 397.7789,-277.3542 403.3222,-276.8344 408.8747,-276.3138 414.425,-275.7934 419.9615,-275.2744 425.4726,-274.7576 430.9467,-274.2444 436.3723,-273.7357 441.7378,-273.2326 447.0316,-272.7363 452.2422,-272.2478 457.358,-271.7681 462.3673,-271.2984 467.2588,-270.8398 472.0207,-270.3934 472.0207,-270.3934 467.2588,-269.9469 462.3673,-269.4883 457.358,-269.0186 452.2422,-268.539 447.0316,-268.0504 441.7378,-267.5541 436.3723,-267.051 430.9467,-266.5423 425.4726,-266.0291 419.9615,-265.5124 414.425,-264.9933 408.8747,-264.4729 403.3222,-263.9523 397.7789,-263.4326 392.2566,-262.9148 386.7668,-262.4001 381.321,-261.8895 375.9308,-261.3841 370.6078,-260.8851 365.3635,-260.3934 365.3635,-280.3934"/>
</g>
<!-- b -->
<g id="node3" class="node">
<title>b</title>
<ellipse fill="#ffffb3" stroke="#000000" cx="456.7752" cy="-431.1348" rx="55.7903" ry="18"/>
<text text-anchor="middle" x="456.7752" y="-427.4348" font-family="Times,serif" font-size="14.00" fill="#000000">web services</text>
</g>
<!-- root&#45;&gt;b -->
<g id="edge2" class="edge">
<title>root&#45;&gt;b</title>
<polygon fill="#000000" stroke="transparent" stroke-width="20" points="304.5425,-295.6549 309.821,-300.2888 315.5666,-305.3328 321.7271,-310.741 328.2499,-316.4672 335.0826,-322.4656 342.1729,-328.69 349.4684,-335.0945 356.9165,-341.6331 364.465,-348.2598 372.0613,-354.9285 379.6532,-361.5932 387.1881,-368.208 394.6137,-374.7268 401.8776,-381.1036 408.9273,-387.2924 415.7105,-393.2473 422.1747,-398.922 428.2675,-404.2708 433.9365,-409.2475 439.1293,-413.8062 439.1293,-413.8062 434.4772,-408.697 429.3984,-403.1192 423.94,-397.1244 418.1488,-390.7642 412.072,-384.0902 405.7563,-377.1539 399.2487,-370.007 392.5963,-362.7008 385.8459,-355.2872 379.0445,-347.8175 372.2391,-340.3433 365.4766,-332.9163 358.8039,-325.588 352.2681,-318.41 345.9161,-311.4338 339.7947,-304.711 333.9511,-298.2932 328.4321,-292.2318 323.2846,-286.5786 318.5558,-281.3851 304.5425,-295.6549"/>
</g>
<!-- c -->
<g id="node4" class="node">
<title>c</title>
<ellipse fill="#bebada" stroke="#000000" cx="303.258" cy="-499.5812" rx="44.393" ry="18"/>
<text text-anchor="middle" x="303.258" y="-495.8812" font-family="Times,serif" font-size="14.00" fill="#000000">CLI tools</text>
</g>
<!-- root&#45;&gt;c -->
<g id="edge3" class="edge">
<title>root&#45;&gt;c</title>
<polygon fill="#000000" stroke="transparent" stroke-width="20" points="283.9153,-289.2045 284.5807,-296.1045 285.329,-303.8643 286.151,-312.3882 287.0374,-321.5806 287.9791,-331.3456 288.9667,-341.5875 289.9911,-352.2107 291.0431,-363.1193 292.1133,-374.2176 293.1926,-385.41 294.2718,-396.6007 295.3415,-407.6939 296.3926,-418.5939 297.4159,-429.205 298.4021,-439.4315 299.3419,-449.1777 300.2262,-458.3477 301.0457,-466.8459 301.7912,-474.5765 302.4534,-481.4439 302.4534,-481.4439 302.5049,-474.5449 302.5629,-466.7786 302.6267,-458.2412 302.6955,-449.0289 302.7686,-439.2378 302.8453,-428.9642 302.9249,-418.3041 303.0067,-407.3538 303.0899,-396.2095 303.1739,-384.9672 303.2579,-373.7232 303.3411,-362.5737 303.423,-351.6148 303.5026,-340.9427 303.5795,-330.6535 303.6527,-320.8435 303.7217,-311.6088 303.7857,-303.0455 303.8439,-295.2499 303.8956,-288.3182 283.9153,-289.2045"/>
</g>
<!-- d -->
<g id="node5" class="node">
<title>d</title>
<ellipse fill="#80b1d3" stroke="#000000" cx="167.3954" cy="-462.3078" rx="27" ry="18"/>
<text text-anchor="middle" x="167.3954" y="-458.6078" font-family="Times,serif" font-size="14.00" fill="#000000">IoT</text>
</g>
<!-- root&#45;&gt;d -->
<g id="edge4" class="edge">
<title>root&#45;&gt;d</title>
<polygon fill="#000000" stroke="transparent" stroke-width="20" points="272.9001,-282.9692 269.3414,-289.0886 265.3988,-295.868 261.1158,-303.2328 256.5357,-311.1087 251.7017,-319.421 246.6572,-328.0952 241.4456,-337.0569 236.1101,-346.2315 230.6942,-355.5446 225.241,-364.9215 219.7941,-374.2878 214.3967,-383.5689 209.0921,-392.6904 203.9237,-401.5778 198.9348,-410.1564 194.1688,-418.3519 189.6689,-426.0897 185.4785,-433.2953 181.641,-439.8941 178.1996,-445.8117 178.1996,-445.8117 182.249,-440.2923 186.7645,-434.1375 191.6952,-427.4168 196.9901,-420.1998 202.5981,-412.5558 208.4684,-404.5544 214.5499,-396.2651 220.7917,-387.7573 227.1427,-379.1007 233.5519,-370.3647 239.9685,-361.6188 246.3413,-352.9325 252.6193,-344.3752 258.7517,-336.0166 264.6874,-327.9261 270.3754,-320.1731 275.7648,-312.8272 280.8045,-305.958 285.4435,-299.6348 289.631,-293.9272 272.9001,-282.9692"/>
</g>
<!-- e -->
<g id="node6" class="node">
<title>e</title>
<ellipse fill="#d9d9d9" stroke="#000000" cx="70.8437" cy="-327.286" rx="70.6878" ry="18"/>
<text text-anchor="middle" x="70.8437" y="-323.586" font-family="Times,serif" font-size="14.00" fill="#000000">mobile backends</text>
</g>
<!-- root&#45;&gt;e -->
<g id="edge5" class="edge">
<title>root&#45;&gt;e</title>
<polygon fill="#000000" stroke="transparent" stroke-width="20" points="220.2904,-278.7069 215.4124,-280.4628 210.4628,-282.2443 205.4522,-284.0479 200.3908,-285.8697 195.2892,-287.7061 190.1576,-289.5532 185.0065,-291.4073 179.8463,-293.2647 174.6873,-295.1216 169.5401,-296.9744 164.4149,-298.8192 159.3222,-300.6523 154.2723,-302.47 149.2758,-304.2685 144.3429,-306.0441 139.484,-307.793 134.7097,-309.5115 130.0302,-311.1959 125.4559,-312.8424 120.9974,-314.4472 120.9974,-314.4472 125.6787,-313.7124 130.4814,-312.9585 135.3946,-312.1872 140.4075,-311.4003 145.509,-310.5995 150.6883,-309.7865 155.9345,-308.963 161.2365,-308.1307 166.5836,-307.2913 171.9648,-306.4466 177.3692,-305.5983 182.7858,-304.748 188.2038,-303.8975 193.6122,-303.0485 199.0001,-302.2028 204.3566,-301.3619 209.6708,-300.5277 214.9318,-299.7019 220.1285,-298.8861 225.2502,-298.0822 220.2904,-278.7069"/>
</g>
<!-- f -->
<g id="node7" class="node">
<title>f</title>
<ellipse fill="#b3de69" stroke="#000000" cx="124.1677" cy="-115.1661" rx="85.2851" ry="18"/>
<text text-anchor="middle" x="124.1677" y="-111.4661" font-family="Times,serif" font-size="14.00" fill="#000000">Desktop applications</text>
</g>
<!-- root&#45;&gt;f -->
<g id="edge6" class="edge">
<title>root&#45;&gt;f</title>
<polygon fill="#000000" stroke="transparent" stroke-width="20" points="280.1487,-244.9198 274.7523,-240.4972 268.8982,-235.6995 262.6376,-230.5686 256.0214,-225.1464 249.1008,-219.4746 241.9268,-213.5952 234.5506,-207.5501 227.0231,-201.381 219.3955,-195.1298 211.7188,-188.8384 204.0441,-182.5487 196.4226,-176.3025 188.9052,-170.1416 181.543,-164.108 174.3872,-158.2435 167.4888,-152.5899 160.8989,-147.1892 154.6685,-142.0831 148.8487,-137.3135 143.4907,-132.9224 143.4907,-132.9224 148.3181,-137.8909 153.5616,-143.2876 159.175,-149.0651 165.1124,-155.176 171.3277,-161.573 177.7749,-168.2086 184.408,-175.0356 191.181,-182.0065 198.0478,-189.074 204.9625,-196.1908 211.879,-203.3094 218.7513,-210.3826 225.5334,-217.3628 232.1792,-224.2029 238.6428,-230.8554 244.8781,-237.2729 250.8391,-243.4081 256.4798,-249.2137 261.7541,-254.6422 266.6161,-259.6463 280.1487,-244.9198"/>
</g>
<!-- g -->
<g id="node8" class="node">
<title>g</title>
<ellipse fill="#fccde5" stroke="#000000" cx="296.1119" cy="-41" rx="35.9954" ry="18"/>
<text text-anchor="middle" x="296.1119" y="-37.3" font-family="Times,serif" font-size="14.00" fill="#000000">Games</text>
</g>
<!-- root&#45;&gt;g -->
<g id="edge7" class="edge">
<title>root&#45;&gt;g</title>
<polygon fill="#000000" stroke="transparent" stroke-width="20" points="303.3268,-252.525 303.0611,-245.6355 302.7617,-237.8732 302.4324,-229.3349 302.0769,-220.1173 301.6989,-210.3172 301.3022,-200.0315 300.8905,-189.3569 300.4675,-178.3901 300.037,-167.228 299.6027,-155.9674 299.1683,-144.705 298.7376,-133.5376 298.3143,-122.562 297.9021,-111.8751 297.5048,-101.5735 297.126,-91.7541 296.7696,-82.5137 296.4393,-73.949 296.1388,-66.1568 295.8718,-59.2339 295.8718,-59.2339 295.4225,-66.1473 294.9169,-73.9289 294.3611,-82.4819 293.7614,-91.7098 293.1242,-101.5158 292.4557,-111.8034 291.7622,-122.4757 291.05,-133.4363 290.3253,-144.5885 289.5945,-155.8355 288.8637,-167.0808 288.1394,-178.2277 287.4277,-189.1795 286.735,-199.8396 286.0675,-210.1114 285.4316,-219.8981 284.8334,-229.1031 284.2793,-237.6298 283.7756,-245.3815 283.3285,-252.2616 303.3268,-252.525"/>
</g>
<!-- h -->
<g id="node9" class="node">
<title>h</title>
<ellipse fill="#bc80bd" stroke="#000000" cx="451.217" cy="-104.1811" rx="63.8893" ry="18"/>
<text text-anchor="middle" x="451.217" y="-100.4811" font-family="Times,serif" font-size="14.00" fill="#000000">Virtual Reality</text>
</g>
<!-- root&#45;&gt;h -->
<g id="edge8" class="edge">
<title>root&#45;&gt;h</title>
<polygon fill="#000000" stroke="transparent" stroke-width="20" points="317.559,-259.182 322.1019,-253.8431 327.0616,-248.0144 332.3915,-241.7507 338.0451,-235.1066 343.9756,-228.1369 350.1366,-220.8965 356.4815,-213.44 362.9635,-205.8222 369.5362,-198.0979 376.153,-190.3219 382.7672,-182.5488 389.3322,-174.8335 395.8016,-167.2307 402.1286,-159.7951 408.2666,-152.5816 414.1692,-145.6449 419.7896,-139.0397 425.0813,-132.8209 429.9977,-127.0431 434.4922,-121.7611 434.4922,-121.7611 429.4408,-126.5132 423.9151,-131.7114 417.9677,-137.3065 411.6508,-143.249 405.0168,-149.4899 398.1181,-155.9798 391.0071,-162.6694 383.7361,-169.5096 376.3575,-176.4509 368.9237,-183.4442 361.487,-190.4403 354.0998,-197.3897 346.8145,-204.2433 339.6834,-210.9518 332.7589,-217.4659 326.0935,-223.7364 319.7394,-229.714 313.749,-235.3494 308.1747,-240.5934 303.0688,-245.3967 317.559,-259.182"/>
</g>
</g>
</svg>
