<?xml version="1.0" encoding="UTF-8" standalone="no"?>
<!DOCTYPE svg PUBLIC "-//W3C//DTD SVG 1.1//EN"
 "http://www.w3.org/Graphics/SVG/1.1/DTD/svg11.dtd">
<!-- Generated by graphviz version 2.43.0 (0)
 -->
<!-- Title: G Pages: 1 -->
<svg width="244pt" height="302pt"
 viewBox="0.00 0.00 244.00 302.25" xmlns="http://www.w3.org/2000/svg" xmlns:xlink="http://www.w3.org/1999/xlink">
<g id="graph0" class="graph" transform="scale(1 1) rotate(0) translate(4 298.25)">
<title>G</title>
<polygon fill="white" stroke="transparent" points="-4,4 -4,-298.25 240,-298.25 240,4 -4,4"/>
<text text-anchor="middle" x="118" y="-7.8" font-family="Times,serif" font-size="14.00">Tree A and B are Isomorphic</text>
<g id="clust1" class="cluster">
<title>cluster0</title>
<polygon fill="none" stroke="black" points="8,-31 8,-286.25 78,-286.25 78,-31 8,-31"/>
<text text-anchor="middle" x="43" y="-271.05" font-family="Times,serif" font-size="14.00">Tree A</text>
</g>
<g id="clust2" class="cluster">
<title>cluster1</title>
<polygon fill="none" stroke="black" points="86,-115.08 86,-286.25 228,-286.25 228,-115.08 86,-115.08"/>
<text text-anchor="middle" x="157" y="-271.05" font-family="Times,serif" font-size="14.00">Tree B</text>
</g>
<!-- 1 -->
<g id="node1" class="node">
<title>1</title>
<ellipse fill="#b3cde3" stroke="black" cx="43" cy="-231.21" rx="27" ry="24.08"/>
<text text-anchor="middle" x="43" y="-225.01" font-family="Times,serif" font-size="24.00">1</text>
</g>
<!-- 2 -->
<g id="node2" class="node">
<title>2</title>
<ellipse fill="#fbb4ae" stroke="black" cx="43" cy="-147.12" rx="27" ry="24.08"/>
<text text-anchor="middle" x="43" y="-140.92" font-family="Times,serif" font-size="24.00">2</text>
</g>
<!-- 1&#45;&gt;2 -->
<g id="edge1" class="edge">
<title>1&#45;&gt;2</title>
<path fill="none" stroke="black" d="M43,-206.91C43,-198.95 43,-189.9 43,-181.32"/>
<polygon fill="black" stroke="black" points="46.5,-181.2 43,-171.2 39.5,-181.2 46.5,-181.2"/>
</g>
<!-- 3 -->
<g id="node3" class="node">
<title>3</title>
<ellipse fill="#ccebc5" stroke="black" cx="43" cy="-63.04" rx="27" ry="24.08"/>
<text text-anchor="middle" x="43" y="-56.84" font-family="Times,serif" font-size="24.00">3</text>
</g>
<!-- 2&#45;&gt;3 -->
<g id="edge2" class="edge">
<title>2&#45;&gt;3</title>
<path fill="none" stroke="black" d="M43,-122.82C43,-114.87 43,-105.82 43,-97.24"/>
<polygon fill="black" stroke="black" points="46.5,-97.12 43,-87.12 39.5,-97.12 46.5,-97.12"/>
</g>
<!-- a -->
<g id="node4" class="node">
<title>a</title>
<ellipse fill="#fbb4ae" stroke="black" cx="157" cy="-231.21" rx="27" ry="24.08"/>
<text text-anchor="middle" x="157" y="-225.01" font-family="Times,serif" font-size="24.00">2</text>
</g>
<!-- b -->
<g id="node5" class="node">
<title>b</title>
<ellipse fill="#b3cde3" stroke="black" cx="121" cy="-147.12" rx="27" ry="24.08"/>
<text text-anchor="middle" x="121" y="-140.92" font-family="Times,serif" font-size="24.00">1</text>
</g>
<!-- a&#45;&gt;b -->
<g id="edge4" class="edge">
<title>a&#45;&gt;b</title>
<path fill="none" stroke="black" d="M147.54,-208.64C143.6,-199.66 138.96,-189.07 134.66,-179.27"/>
<polygon fill="black" stroke="black" points="137.74,-177.58 130.52,-169.83 131.33,-180.4 137.74,-177.58"/>
</g>
<!-- c -->
<g id="node6" class="node">
<title>c</title>
<ellipse fill="#ccebc5" stroke="black" cx="193" cy="-147.12" rx="27" ry="24.08"/>
<text text-anchor="middle" x="193" y="-140.92" font-family="Times,serif" font-size="24.00">3</text>
</g>
<!-- a&#45;&gt;c -->
<g id="edge3" class="edge">
<title>a&#45;&gt;c</title>
<path fill="none" stroke="black" d="M166.46,-208.64C170.4,-199.66 175.04,-189.07 179.34,-179.27"/>
<polygon fill="black" stroke="black" points="182.67,-180.4 183.48,-169.83 176.26,-177.58 182.67,-180.4"/>
</g>
</g>
</svg>
