<?xml version="1.0" encoding="UTF-8" standalone="no"?>
<!DOCTYPE svg PUBLIC "-//W3C//DTD SVG 1.1//EN"
 "http://www.w3.org/Graphics/SVG/1.1/DTD/svg11.dtd">
<!-- Generated by graphviz version 2.43.0 (0)
 -->
<!-- Title: mindmap Pages: 1 -->
<svg width="313pt" height="337pt"
 viewBox="0.00 0.00 312.55 336.87" xmlns="http://www.w3.org/2000/svg" xmlns:xlink="http://www.w3.org/1999/xlink">
<g id="graph0" class="graph" transform="scale(1 1) rotate(0) translate(4 332.87)">
<title>mindmap</title>
<text text-anchor="middle" x="152.27" y="-7.8" font-family="Times,serif" font-size="14.00">Mindmap</text>
<!-- root -->
<g id="node1" class="node">
<title>root</title>
<defs>
<linearGradient id="l_0" gradientUnits="userSpaceOnUse" x1="99.55" y1="-175.93" x2="178.55" y2="-175.93" >
<stop offset="0" style="stop-color:#fb8072;stop-opacity:1.;"/>
<stop offset="1" style="stop-color:#fdb462;stop-opacity:1.;"/>
</linearGradient>
</defs>
<path fill="url(#l_0)" stroke="black" d="M166.55,-196.43C166.55,-196.43 111.55,-196.43 111.55,-196.43 105.55,-196.43 99.55,-190.43 99.55,-184.43 99.55,-184.43 99.55,-167.43 99.55,-167.43 99.55,-161.43 105.55,-155.43 111.55,-155.43 111.55,-155.43 166.55,-155.43 166.55,-155.43 172.55,-155.43 178.55,-161.43 178.55,-167.43 178.55,-167.43 178.55,-184.43 178.55,-184.43 178.55,-190.43 172.55,-196.43 166.55,-196.43"/>
<text text-anchor="middle" x="139.05" y="-168.43" font-family="Times,serif" font-size="30.00">root</text>
</g>
<!-- a -->
<g id="node2" class="node">
<title>a</title>
<ellipse fill="#8dd3c7" stroke="black" cx="277.55" cy="-175.93" rx="27" ry="21.43"/>
<text text-anchor="middle" x="277.55" y="-170.93" font-family="Times,serif" font-size="20.00">a</text>
</g>
<!-- root&#45;&gt;a -->
<g id="edge1" class="edge">
<title>root&#45;&gt;a</title>
<polygon fill="black" stroke="transparent" stroke-width="15" points="178.74,-183.43 182.2,-183.07 185.74,-182.7 189.34,-182.32 192.98,-181.94 196.67,-181.55 200.39,-181.16 204.13,-180.77 207.88,-180.37 211.63,-179.98 215.37,-179.59 219.09,-179.2 222.78,-178.81 226.44,-178.42 230.05,-178.05 233.6,-177.67 237.09,-177.31 240.49,-176.95 243.81,-176.6 247.03,-176.26 250.15,-175.93 250.15,-175.93 247.03,-175.61 243.81,-175.27 240.49,-174.92 237.09,-174.56 233.6,-174.2 230.05,-173.82 226.44,-173.44 222.78,-173.06 219.09,-172.67 215.37,-172.28 211.63,-171.89 207.88,-171.49 204.13,-171.1 200.39,-170.71 196.67,-170.32 192.98,-169.93 189.34,-169.55 185.74,-169.17 182.2,-168.8 178.74,-168.43 178.74,-183.43"/>
</g>
<!-- b -->
<g id="node3" class="node">
<title>b</title>
<ellipse fill="#ffffb3" stroke="black" cx="181.85" cy="-307.66" rx="27" ry="21.43"/>
<text text-anchor="middle" x="181.85" y="-302.66" font-family="Times,serif" font-size="20.00">b</text>
</g>
<!-- root&#45;&gt;b -->
<g id="edge2" class="edge">
<title>root&#45;&gt;b</title>
<polygon fill="black" stroke="transparent" stroke-width="15" points="138.6,-198.83 140.14,-202.54 141.77,-206.47 143.48,-210.59 145.25,-214.87 147.09,-219.3 148.97,-223.85 150.9,-228.49 152.85,-233.21 154.83,-237.97 156.82,-242.76 158.8,-247.55 160.78,-252.32 162.74,-257.04 164.66,-261.69 166.55,-266.25 168.39,-270.69 170.17,-274.98 171.89,-279.11 173.52,-283.06 175.07,-286.78 175.07,-286.78 174.13,-282.86 173.13,-278.71 172.09,-274.36 171,-269.84 169.88,-265.17 168.73,-260.37 167.56,-255.47 166.37,-250.5 165.16,-245.49 163.96,-240.44 162.75,-235.4 161.54,-230.38 160.35,-225.42 159.18,-220.53 158.03,-215.74 156.92,-211.08 155.84,-206.57 154.8,-202.24 153.81,-198.1 152.87,-194.2 138.6,-198.83"/>
</g>
<!-- c -->
<g id="node4" class="node">
<title>c</title>
<ellipse fill="#bebada" stroke="black" cx="27" cy="-257.34" rx="27" ry="21.43"/>
<text text-anchor="middle" x="27" y="-252.34" font-family="Times,serif" font-size="20.00">c</text>
</g>
<!-- root&#45;&gt;c -->
<g id="edge3" class="edge">
<title>root&#45;&gt;c</title>
<polygon fill="black" stroke="transparent" stroke-width="15" points="106.37,-190.41 103.55,-192.89 100.67,-195.44 97.71,-198.05 94.7,-200.71 91.64,-203.41 88.55,-206.14 85.43,-208.89 82.3,-211.66 79.16,-214.44 76.02,-217.2 72.9,-219.96 69.8,-222.7 66.74,-225.4 63.73,-228.06 60.76,-230.68 57.87,-233.24 55.05,-235.73 52.31,-238.14 49.67,-240.47 47.14,-242.71 47.14,-242.71 50.05,-240.99 53.08,-239.2 56.22,-237.35 59.47,-235.43 62.79,-233.47 66.2,-231.46 69.66,-229.42 73.18,-227.34 76.74,-225.24 80.32,-223.12 83.93,-221 87.53,-218.87 91.13,-216.74 94.72,-214.63 98.27,-212.53 101.78,-210.46 105.24,-208.41 108.64,-206.41 111.95,-204.45 115.18,-202.54 106.37,-190.41"/>
</g>
<!-- d -->
<g id="node5" class="node">
<title>d</title>
<ellipse fill="#80b1d3" stroke="black" cx="27" cy="-94.53" rx="27" ry="21.43"/>
<text text-anchor="middle" x="27" y="-89.53" font-family="Times,serif" font-size="20.00">d</text>
</g>
<!-- root&#45;&gt;d -->
<g id="edge4" class="edge">
<title>root&#45;&gt;d</title>
<polygon fill="black" stroke="transparent" stroke-width="15" points="115.18,-149.32 111.95,-147.42 108.64,-145.46 105.24,-143.46 101.78,-141.41 98.27,-139.34 94.72,-137.24 91.13,-135.13 87.53,-133 83.93,-130.87 80.32,-128.75 76.74,-126.63 73.18,-124.53 69.66,-122.45 66.2,-120.41 62.79,-118.4 59.47,-116.43 56.22,-114.52 53.08,-112.67 50.05,-110.88 47.14,-109.16 47.14,-109.16 49.67,-111.39 52.31,-113.73 55.05,-116.14 57.87,-118.63 60.76,-121.19 63.73,-123.81 66.74,-126.47 69.8,-129.17 72.9,-131.91 76.02,-134.66 79.16,-137.43 82.3,-140.21 85.43,-142.97 88.55,-145.73 91.64,-148.46 94.7,-151.16 97.71,-153.82 100.67,-156.43 103.55,-158.98 106.37,-161.46 115.18,-149.32"/>
</g>
<!-- e -->
<g id="node6" class="node">
<title>e</title>
<ellipse fill="#fdb462" stroke="black" cx="181.85" cy="-44.21" rx="27" ry="21.43"/>
<text text-anchor="middle" x="181.85" y="-39.21" font-family="Times,serif" font-size="20.00">e</text>
</g>
<!-- root&#45;&gt;e -->
<g id="edge5" class="edge">
<title>root&#45;&gt;e</title>
<polygon fill="black" stroke="transparent" stroke-width="15" points="152.87,-157.67 153.81,-153.76 154.8,-149.63 155.84,-145.3 156.92,-140.79 158.03,-136.13 159.18,-131.34 160.35,-126.45 161.54,-121.48 162.75,-116.47 163.96,-111.43 165.16,-106.38 166.37,-101.37 167.56,-96.4 168.73,-91.5 169.88,-86.7 171,-82.03 172.09,-77.51 173.13,-73.16 174.13,-69.01 175.07,-65.08 175.07,-65.08 173.52,-68.81 171.89,-72.76 170.17,-76.89 168.39,-81.18 166.55,-85.62 164.66,-90.18 162.74,-94.83 160.78,-99.55 158.8,-104.32 156.82,-109.11 154.83,-113.9 152.85,-118.66 150.9,-123.38 148.97,-128.02 147.09,-132.57 145.25,-137 143.48,-141.28 141.77,-145.4 140.14,-149.32 138.6,-153.04 152.87,-157.67"/>
<text text-anchor="middle" x="120.9" y="-115.22" font-family="Times,serif" font-size="15.00">edge label</text>
</g>
</g>
</svg>
