<?xml version="1.0" encoding="UTF-8" standalone="no"?>
<!DOCTYPE svg PUBLIC "-//W3C//DTD SVG 1.1//EN"
 "http://www.w3.org/Graphics/SVG/1.1/DTD/svg11.dtd">
<!-- Generated by graphviz version 2.43.0 (0)
 -->
<!-- Title: G Pages: 1 -->
<svg width="676pt" height="220pt"
 viewBox="0.00 0.00 676.00 220.00" xmlns="http://www.w3.org/2000/svg" xmlns:xlink="http://www.w3.org/1999/xlink">
<g id="graph0" class="graph" transform="scale(1 1) rotate(0) translate(4 216)">
<title>G</title>
<polygon fill="transparent" stroke="transparent" points="-4,4 -4,-216 672,-216 672,4 -4,4"/>
<g id="clust1" class="cluster">
<title>cluster_1</title>
<polygon fill="transparent" stroke="black" points="8,-26 8,-186 114,-186 114,-26 8,-26"/>
</g>
<g id="clust2" class="cluster">
<title>cluster_0</title>
<polygon fill="transparent" stroke="black" points="122,-8 122,-204 660,-204 660,-8 122,-8"/>
</g>
<!-- X -->
<g id="node1" class="node">
<title>X</title>
<path fill="pink" stroke="black" stroke-width="0" d="M34,-52C34,-52 52,-52 52,-52 52,-52.71 51.96,-53.41 51.88,-54.12 51.79,-54.82 51.67,-55.51 51.5,-56.2 51.34,-56.89 51.13,-57.57 50.89,-58.23 50.64,-58.89 50.36,-59.54 50.04,-60.17 49.72,-60.8 49.36,-61.41 48.97,-62 48.57,-62.59 48.15,-63.15 47.69,-63.69 47.23,-64.23 46.74,-64.74 46.22,-65.22 45.7,-65.7 45.15,-66.15 44.58,-66.56 44.01,-66.98 43.41,-67.36 42.8,-67.7 42.18,-68.05 41.54,-68.36 40.89,-68.63 40.24,-68.9 39.57,-69.13 38.89,-69.32 38.21,-69.52 37.51,-69.67 36.82,-69.78 36.12,-69.89 35.41,-69.96 34.71,-69.99 34,-70.01 33.29,-70 32.59,-69.94 31.88,-69.89 31.18,-69.79 30.49,-69.65 29.79,-69.52 29.11,-69.34 28.44,-69.12 28.44,-69.12 34,-52 34,-52"/>
<path fill="blue" stroke="black" stroke-width="0" d="M34,-52C34,-52 28.44,-69.12 28.44,-69.12 27.77,-68.9 27.11,-68.64 26.46,-68.35 25.82,-68.05 25.2,-67.72 24.6,-67.35 23.99,-66.98 23.41,-66.57 22.86,-66.14 22.3,-65.7 21.77,-65.23 21.27,-64.73 20.77,-64.23 20.3,-63.7 19.86,-63.14 19.43,-62.59 19.02,-62.01 18.65,-61.4 18.28,-60.8 17.95,-60.18 17.65,-59.54 17.36,-58.89 17.1,-58.23 16.88,-57.56 16.66,-56.89 16.48,-56.21 16.35,-55.51 16.21,-54.82 16.11,-54.12 16.06,-53.41 16,-52.71 15.99,-52 16.01,-51.29 16.04,-50.59 16.11,-49.88 16.22,-49.18 16.33,-48.49 16.48,-47.79 16.68,-47.11 16.87,-46.43 17.1,-45.76 17.37,-45.11 17.64,-44.46 17.95,-43.82 18.3,-43.2 18.64,-42.59 19.02,-41.99 19.44,-41.42 19.85,-40.85 20.3,-40.3 20.78,-39.78 21.26,-39.26 21.77,-38.77 22.31,-38.31 22.85,-37.85 23.41,-37.43 24,-37.03 24.59,-36.64 25.2,-36.28 25.83,-35.96 26.46,-35.64 27.11,-35.36 27.77,-35.11 28.43,-34.87 29.11,-34.66 29.8,-34.5 30.49,-34.33 31.18,-34.21 31.88,-34.12 32.59,-34.04 33.29,-34 34,-34 34.71,-34 35.41,-34.04 36.12,-34.12 36.82,-34.21 37.51,-34.33 38.2,-34.5 38.89,-34.66 39.57,-34.87 40.23,-35.11 40.89,-35.36 41.54,-35.64 42.17,-35.96 42.8,-36.28 43.41,-36.64 44,-37.03 44.59,-37.43 45.15,-37.85 45.69,-38.31 46.23,-38.77 46.74,-39.26 47.22,-39.78 47.7,-40.3 48.15,-40.85 48.56,-41.42 48.56,-41.42 34,-52 34,-52"/>
<path fill="orange" stroke="black" stroke-width="0" d="M34,-52C34,-52 48.56,-41.42 48.56,-41.42 49.12,-42.18 49.61,-42.99 50.04,-43.83 50.47,-44.67 50.83,-45.54 51.12,-46.44 51.41,-47.33 51.63,-48.25 51.78,-49.18 51.93,-50.12 52,-51.06 52,-52 52,-52 34,-52 34,-52"/>
<ellipse fill="none" stroke="black" stroke-width="0" cx="34" cy="-52" rx="18" ry="18"/>
<text text-anchor="middle" x="34" y="-48.3" font-family="Times,serif" font-size="14.00">X</text>
</g>
<!-- Y -->
<g id="node2" class="node">
<title>Y</title>
<polygon fill="red" stroke="black" stroke-width="0" points="34,-142 50.2,-142 50.2,-178 34,-178 34,-142"/>
<polygon fill="green" stroke="black" stroke-width="0" points="50.2,-142 82.6,-142 82.6,-178 50.2,-178 50.2,-142"/>
<polygon fill="orange" stroke="black" stroke-width="0" points="82.6,-142 88,-142 88,-178 82.6,-178 82.6,-142"/>
<polygon fill="none" stroke="black" stroke-width="0" points="88,-178 34,-178 34,-142 88,-142 88,-178"/>
<text text-anchor="middle" x="61" y="-156.3" font-family="Times,serif" font-size="14.00">Y</text>
</g>
<!-- Y&#45;&gt;X -->
<g id="edge1" class="edge">
<title>Y&#45;&gt;X</title>
<path fill="none" stroke="black" d="M56.66,-141.97C52.37,-125.1 45.73,-99.03 40.74,-79.47"/>
<polygon fill="black" stroke="black" points="44.1,-78.47 38.24,-69.64 37.31,-80.19 44.1,-78.47"/>
</g>
<!-- Z -->
<g id="node3" class="node">
<title>Z</title>
<path fill="red" stroke="black" stroke-width="0" d="M88,-52C88,-52 106,-52 106,-52 106,-52.71 105.96,-53.41 105.88,-54.12 105.79,-54.82 105.67,-55.51 105.5,-56.2 105.34,-56.89 105.13,-57.57 104.89,-58.23 104.64,-58.89 104.36,-59.54 104.04,-60.17 103.72,-60.8 103.36,-61.41 102.97,-62 102.57,-62.59 102.15,-63.15 101.69,-63.69 101.23,-64.23 100.74,-64.74 100.22,-65.22 99.7,-65.7 99.15,-66.15 98.58,-66.56 98.01,-66.98 97.41,-67.36 96.8,-67.7 96.18,-68.05 95.54,-68.36 94.89,-68.63 94.24,-68.9 93.57,-69.13 92.89,-69.32 92.21,-69.52 91.51,-69.67 90.82,-69.78 90.12,-69.89 89.41,-69.96 88.71,-69.99 88,-70.01 87.29,-70 86.59,-69.94 85.88,-69.89 85.18,-69.79 84.49,-69.65 83.79,-69.52 83.11,-69.34 82.44,-69.12 82.44,-69.12 88,-52 88,-52"/>
<path fill="green" stroke="black" stroke-width="0" d="M88,-52C88,-52 82.44,-69.12 82.44,-69.12 81.77,-68.9 81.11,-68.64 80.46,-68.35 79.82,-68.05 79.2,-67.72 78.6,-67.35 77.99,-66.98 77.41,-66.57 76.86,-66.14 76.3,-65.7 75.77,-65.23 75.27,-64.73 74.77,-64.23 74.3,-63.7 73.86,-63.14 73.43,-62.59 73.02,-62.01 72.65,-61.4 72.28,-60.8 71.95,-60.18 71.65,-59.54 71.36,-58.89 71.1,-58.23 70.88,-57.56 70.66,-56.89 70.48,-56.21 70.35,-55.51 70.21,-54.82 70.11,-54.12 70.06,-53.41 70,-52.71 69.99,-52 70.01,-51.29 70.04,-50.59 70.11,-49.88 70.22,-49.18 70.33,-48.49 70.48,-47.79 70.68,-47.11 70.87,-46.43 71.1,-45.76 71.37,-45.11 71.64,-44.46 71.95,-43.82 72.3,-43.2 72.64,-42.59 73.02,-41.99 73.44,-41.42 73.85,-40.85 74.3,-40.3 74.78,-39.78 75.26,-39.26 75.77,-38.77 76.31,-38.31 76.85,-37.85 77.41,-37.43 78,-37.03 78.59,-36.64 79.2,-36.28 79.83,-35.96 80.46,-35.64 81.11,-35.36 81.77,-35.11 82.43,-34.87 83.11,-34.66 83.8,-34.5 84.49,-34.33 85.18,-34.21 85.88,-34.12 86.59,-34.04 87.29,-34 88,-34 88.71,-34 89.41,-34.04 90.12,-34.12 90.82,-34.21 91.51,-34.33 92.2,-34.5 92.89,-34.66 93.57,-34.87 94.23,-35.11 94.89,-35.36 95.54,-35.64 96.17,-35.96 96.8,-36.28 97.41,-36.64 98,-37.03 98.59,-37.43 99.15,-37.85 99.69,-38.31 100.23,-38.77 100.74,-39.26 101.22,-39.78 101.7,-40.3 102.15,-40.85 102.56,-41.42 102.56,-41.42 88,-52 88,-52"/>
<path fill="orange" stroke="black" stroke-width="0" d="M88,-52C88,-52 102.56,-41.42 102.56,-41.42 103.12,-42.18 103.61,-42.99 104.04,-43.83 104.47,-44.67 104.83,-45.54 105.12,-46.44 105.41,-47.33 105.63,-48.25 105.78,-49.18 105.93,-50.12 106,-51.06 106,-52 106,-52 88,-52 88,-52"/>
<ellipse fill="none" stroke="black" stroke-width="0" cx="88" cy="-52" rx="18" ry="18"/>
<text text-anchor="middle" x="88" y="-48.3" font-family="Times,serif" font-size="14.00">Z</text>
</g>
<!-- Y&#45;&gt;Z -->
<g id="edge2" class="edge">
<title>Y&#45;&gt;Z</title>
<path fill="none" stroke="black" d="M65.34,-141.97C69.63,-125.1 76.27,-99.03 81.26,-79.47"/>
<polygon fill="black" stroke="black" points="84.69,-80.19 83.76,-69.64 77.9,-78.47 84.69,-80.19"/>
</g>
<!-- c1 -->
<g id="node4" class="node">
<title>c1</title>
<path fill="#1b9e77" stroke="#1b9e77" stroke-width="0" d="M616,-160C616,-160 652,-160 652,-160 652,-161.05 651.95,-162.09 651.86,-163.14 651.77,-164.18 651.63,-165.22 651.45,-166.25 651.27,-167.28 651.04,-168.31 650.77,-169.32 650.5,-170.33 650.19,-171.33 649.83,-172.31 649.47,-173.3 649.07,-174.27 648.63,-175.21 648.18,-176.16 647.7,-177.09 647.18,-178 646.65,-178.91 646.09,-179.79 645.49,-180.65 644.89,-181.51 644.25,-182.34 643.58,-183.14 643.58,-183.14 616,-160 616,-160"/>
<path fill="#d95f02" stroke="#1b9e77" stroke-width="0" d="M616,-160C616,-160 643.58,-183.14 643.58,-183.14 642.9,-183.94 642.2,-184.72 641.46,-185.46 640.72,-186.2 639.94,-186.9 639.14,-187.58 638.34,-188.25 637.51,-188.89 636.65,-189.49 635.79,-190.09 634.91,-190.65 634,-191.18 633.09,-191.7 632.16,-192.18 631.21,-192.63 630.27,-193.07 629.3,-193.47 628.31,-193.83 627.33,-194.19 626.33,-194.5 625.32,-194.77 624.31,-195.04 623.28,-195.27 622.25,-195.45 622.25,-195.45 616,-160 616,-160"/>
<path fill="#7570b3" stroke="#1b9e77" stroke-width="0" d="M616,-160C616,-160 622.25,-195.45 622.25,-195.45 621.22,-195.63 620.18,-195.77 619.14,-195.86 618.09,-195.95 617.05,-196 616,-196 614.95,-196 613.91,-195.95 612.86,-195.86 611.82,-195.77 610.78,-195.63 609.75,-195.45 608.72,-195.27 607.69,-195.04 606.68,-194.77 605.67,-194.5 604.67,-194.19 603.69,-193.83 602.7,-193.47 601.73,-193.07 600.79,-192.63 599.84,-192.18 598.91,-191.7 598,-191.18 598,-191.18 616,-160 616,-160"/>
<path fill="#e7298a" stroke="#1b9e77" stroke-width="0" d="M616,-160C616,-160 598,-191.18 598,-191.18 597.09,-190.65 596.21,-190.09 595.35,-189.49 594.49,-188.89 593.66,-188.25 592.86,-187.58 592.06,-186.9 591.28,-186.2 590.54,-185.46 589.8,-184.72 589.1,-183.94 588.42,-183.14 587.75,-182.34 587.11,-181.51 586.51,-180.65 585.91,-179.79 585.35,-178.91 584.82,-178 584.3,-177.09 583.82,-176.16 583.37,-175.21 582.93,-174.27 582.53,-173.3 582.17,-172.31 582.17,-172.31 616,-160 616,-160"/>
<path fill="#66a61e" stroke="#1b9e77" stroke-width="0" d="M616,-160C616,-160 582.17,-172.31 582.17,-172.31 581.81,-171.33 581.5,-170.33 581.23,-169.32 580.96,-168.31 580.73,-167.28 580.55,-166.25 580.37,-165.22 580.23,-164.18 580.14,-163.14 580.05,-162.09 580,-161.05 580,-160 580,-158.95 580.05,-157.91 580.14,-156.86 580.23,-155.82 580.37,-154.78 580.55,-153.75 580.73,-152.72 580.96,-151.69 581.23,-150.68 581.5,-149.67 581.81,-148.67 582.17,-147.69 582.17,-147.69 616,-160 616,-160"/>
<path fill="#e6ab02" stroke="#1b9e77" stroke-width="0" d="M616,-160C616,-160 582.17,-147.69 582.17,-147.69 582.53,-146.7 582.93,-145.73 583.37,-144.79 583.82,-143.84 584.3,-142.91 584.82,-142 585.35,-141.09 585.91,-140.21 586.51,-139.35 587.11,-138.49 587.75,-137.66 588.42,-136.86 589.1,-136.06 589.8,-135.28 590.54,-134.54 591.28,-133.8 592.06,-133.1 592.86,-132.42 593.66,-131.75 594.49,-131.11 595.35,-130.51 596.21,-129.91 597.09,-129.35 598,-128.82 598,-128.82 616,-160 616,-160"/>
<path fill="#a6761d" stroke="#1b9e77" stroke-width="0" d="M616,-160C616,-160 598,-128.82 598,-128.82 598.91,-128.3 599.84,-127.82 600.79,-127.37 601.73,-126.93 602.7,-126.53 603.69,-126.17 604.67,-125.81 605.67,-125.5 606.68,-125.23 607.69,-124.96 608.72,-124.73 609.75,-124.55 610.78,-124.37 611.82,-124.23 612.86,-124.14 613.91,-124.05 614.95,-124 616,-124 617.05,-124 618.09,-124.05 619.14,-124.14 620.18,-124.23 621.22,-124.37 622.25,-124.55 622.25,-124.55 616,-160 616,-160"/>
<path fill="#666666" stroke="#1b9e77" stroke-width="0" d="M616,-160C616,-160 622.25,-124.55 622.25,-124.55 623.28,-124.73 624.31,-124.96 625.32,-125.23 626.33,-125.5 627.33,-125.81 628.31,-126.17 629.3,-126.53 630.27,-126.93 631.21,-127.37 632.16,-127.82 633.09,-128.3 634,-128.82 634.91,-129.35 635.79,-129.91 636.65,-130.51 637.51,-131.11 638.34,-131.75 639.14,-132.42 639.94,-133.1 640.72,-133.8 641.46,-134.54 642.2,-135.28 642.9,-136.06 643.58,-136.86 643.58,-136.86 616,-160 616,-160"/>
<path fill="#000000" stroke="#1b9e77" stroke-width="0" d="M616,-160C616,-160 643.58,-136.86 643.58,-136.86 644.25,-137.66 644.89,-138.49 645.49,-139.35 646.09,-140.21 646.65,-141.09 647.18,-142 647.7,-142.91 648.18,-143.84 648.63,-144.79 649.07,-145.73 649.47,-146.7 649.83,-147.69 650.19,-148.67 650.5,-149.67 650.77,-150.68 651.04,-151.69 651.27,-152.72 651.45,-153.75 651.63,-154.78 651.77,-155.82 651.86,-156.86 651.95,-157.91 652,-158.95 652,-160 652,-160 616,-160 616,-160"/>
<ellipse fill="none" stroke="#1b9e77" stroke-width="0" cx="616" cy="-160" rx="36" ry="36"/>
<text text-anchor="middle" x="616" y="-156.3" font-family="Times,serif" font-size="14.00">c1</text>
</g>
<!-- c2 -->
<g id="node5" class="node">
<title>c2</title>
<path fill="#f7fcfd" stroke="#f7fcfd" stroke-width="0" d="M616,-52C616,-52 652,-52 652,-52 652,-53.05 651.95,-54.09 651.86,-55.14 651.77,-56.18 651.63,-57.22 651.45,-58.25 651.27,-59.28 651.04,-60.31 650.77,-61.32 650.5,-62.33 650.19,-63.33 649.83,-64.31 649.47,-65.3 649.07,-66.27 648.63,-67.21 648.18,-68.16 647.7,-69.09 647.18,-70 646.65,-70.91 646.09,-71.79 645.49,-72.65 644.89,-73.51 644.25,-74.34 643.58,-75.14 643.58,-75.14 616,-52 616,-52"/>
<path fill="#e5f5f9" stroke="#f7fcfd" stroke-width="0" d="M616,-52C616,-52 643.58,-75.14 643.58,-75.14 642.9,-75.94 642.2,-76.72 641.46,-77.46 640.72,-78.2 639.94,-78.9 639.14,-79.58 638.34,-80.25 637.51,-80.89 636.65,-81.49 635.79,-82.09 634.91,-82.65 634,-83.18 633.09,-83.7 632.16,-84.18 631.21,-84.63 630.27,-85.07 629.3,-85.47 628.31,-85.83 627.33,-86.19 626.33,-86.5 625.32,-86.77 624.31,-87.04 623.28,-87.27 622.25,-87.45 622.25,-87.45 616,-52 616,-52"/>
<path fill="#ccece6" stroke="#f7fcfd" stroke-width="0" d="M616,-52C616,-52 622.25,-87.45 622.25,-87.45 621.22,-87.63 620.18,-87.77 619.14,-87.86 618.09,-87.95 617.05,-88 616,-88 614.95,-88 613.91,-87.95 612.86,-87.86 611.82,-87.77 610.78,-87.63 609.75,-87.45 608.72,-87.27 607.69,-87.04 606.68,-86.77 605.67,-86.5 604.67,-86.19 603.69,-85.83 602.7,-85.47 601.73,-85.07 600.79,-84.63 599.84,-84.18 598.91,-83.7 598,-83.18 598,-83.18 616,-52 616,-52"/>
<path fill="#99d8c9" stroke="#f7fcfd" stroke-width="0" d="M616,-52C616,-52 598,-83.18 598,-83.18 597.09,-82.65 596.21,-82.09 595.35,-81.49 594.49,-80.89 593.66,-80.25 592.86,-79.58 592.06,-78.9 591.28,-78.2 590.54,-77.46 589.8,-76.72 589.1,-75.94 588.42,-75.14 587.75,-74.34 587.11,-73.51 586.51,-72.65 585.91,-71.79 585.35,-70.91 584.82,-70 584.3,-69.09 583.82,-68.16 583.37,-67.21 582.93,-66.27 582.53,-65.3 582.17,-64.31 582.17,-64.31 616,-52 616,-52"/>
<path fill="#66c2a4" stroke="#f7fcfd" stroke-width="0" d="M616,-52C616,-52 582.17,-64.31 582.17,-64.31 581.81,-63.33 581.5,-62.33 581.23,-61.32 580.96,-60.31 580.73,-59.28 580.55,-58.25 580.37,-57.22 580.23,-56.18 580.14,-55.14 580.05,-54.09 580,-53.05 580,-52 580,-50.95 580.05,-49.91 580.14,-48.86 580.23,-47.82 580.37,-46.78 580.55,-45.75 580.73,-44.72 580.96,-43.69 581.23,-42.68 581.5,-41.67 581.81,-40.67 582.17,-39.69 582.17,-39.69 616,-52 616,-52"/>
<path fill="#41ae76" stroke="#f7fcfd" stroke-width="0" d="M616,-52C616,-52 582.17,-39.69 582.17,-39.69 582.53,-38.7 582.93,-37.73 583.37,-36.79 583.82,-35.84 584.3,-34.91 584.82,-34 585.35,-33.09 585.91,-32.21 586.51,-31.35 587.11,-30.49 587.75,-29.66 588.42,-28.86 589.1,-28.06 589.8,-27.28 590.54,-26.54 591.28,-25.8 592.06,-25.1 592.86,-24.42 593.66,-23.75 594.49,-23.11 595.35,-22.51 596.21,-21.91 597.09,-21.35 598,-20.82 598,-20.82 616,-52 616,-52"/>
<path fill="#238b45" stroke="#f7fcfd" stroke-width="0" d="M616,-52C616,-52 598,-20.82 598,-20.82 598.91,-20.3 599.84,-19.82 600.79,-19.37 601.73,-18.93 602.7,-18.53 603.69,-18.17 604.67,-17.81 605.67,-17.5 606.68,-17.23 607.69,-16.96 608.72,-16.73 609.75,-16.55 610.78,-16.37 611.82,-16.23 612.86,-16.14 613.91,-16.05 614.95,-16 616,-16 617.05,-16 618.09,-16.05 619.14,-16.14 620.18,-16.23 621.22,-16.37 622.25,-16.55 622.25,-16.55 616,-52 616,-52"/>
<path fill="#006d2c" stroke="#f7fcfd" stroke-width="0" d="M616,-52C616,-52 622.25,-16.55 622.25,-16.55 623.28,-16.73 624.31,-16.96 625.32,-17.23 626.33,-17.5 627.33,-17.81 628.31,-18.17 629.3,-18.53 630.27,-18.93 631.21,-19.37 632.16,-19.82 633.09,-20.3 634,-20.82 634.91,-21.35 635.79,-21.91 636.65,-22.51 637.51,-23.11 638.34,-23.75 639.14,-24.42 639.94,-25.1 640.72,-25.8 641.46,-26.54 642.2,-27.28 642.9,-28.06 643.58,-28.86 643.58,-28.86 616,-52 616,-52"/>
<path fill="#00441b" stroke="#f7fcfd" stroke-width="0" d="M616,-52C616,-52 643.58,-28.86 643.58,-28.86 644.25,-29.66 644.89,-30.49 645.49,-31.35 646.09,-32.21 646.65,-33.09 647.18,-34 647.7,-34.91 648.18,-35.84 648.63,-36.79 649.07,-37.73 649.47,-38.7 649.83,-39.69 650.19,-40.67 650.5,-41.67 650.77,-42.68 651.04,-43.69 651.27,-44.72 651.45,-45.75 651.63,-46.78 651.77,-47.82 651.86,-48.86 651.95,-49.91 652,-50.95 652,-52 652,-52 616,-52 616,-52"/>
<ellipse fill="none" stroke="#f7fcfd" stroke-width="0" cx="616" cy="-52" rx="36" ry="36"/>
<text text-anchor="middle" x="616" y="-48.3" font-family="Times,serif" font-size="14.00">c2</text>
</g>
<!-- c1&#45;&gt;c2 -->
<g id="edge3" class="edge">
<title>c1&#45;&gt;c2</title>
<path fill="none" stroke="black" stroke-width="2" d="M616,-124C616,-115.85 616,-107.06 616,-98.54"/>
<polygon fill="black" stroke="black" stroke-width="2" points="619.5,-98.33 616,-88.33 612.5,-98.33 619.5,-98.33"/>
</g>
<!-- c3 -->
<g id="node6" class="node">
<title>c3</title>
<path fill="#a6cee3" stroke="#a6cee3" stroke-width="0" d="M526,-160C526,-160 562,-160 562,-160 562,-161.05 561.95,-162.09 561.86,-163.14 561.77,-164.18 561.63,-165.22 561.45,-166.25 561.27,-167.28 561.04,-168.31 560.77,-169.32 560.5,-170.33 560.19,-171.33 559.83,-172.31 559.47,-173.3 559.07,-174.27 558.63,-175.21 558.18,-176.16 557.7,-177.09 557.18,-178 556.65,-178.91 556.09,-179.79 555.49,-180.65 554.89,-181.51 554.25,-182.34 553.58,-183.14 553.58,-183.14 526,-160 526,-160"/>
<path fill="#1f78b4" stroke="#a6cee3" stroke-width="0" d="M526,-160C526,-160 553.58,-183.14 553.58,-183.14 552.9,-183.94 552.2,-184.72 551.46,-185.46 550.72,-186.2 549.94,-186.9 549.14,-187.58 548.34,-188.25 547.51,-188.89 546.65,-189.49 545.79,-190.09 544.91,-190.65 544,-191.18 543.09,-191.7 542.16,-192.18 541.21,-192.63 540.27,-193.07 539.3,-193.47 538.31,-193.83 537.33,-194.19 536.33,-194.5 535.32,-194.77 534.31,-195.04 533.28,-195.27 532.25,-195.45 532.25,-195.45 526,-160 526,-160"/>
<path fill="#b2df8a" stroke="#a6cee3" stroke-width="0" d="M526,-160C526,-160 532.25,-195.45 532.25,-195.45 531.22,-195.63 530.18,-195.77 529.14,-195.86 528.09,-195.95 527.05,-196 526,-196 524.95,-196 523.91,-195.95 522.86,-195.86 521.82,-195.77 520.78,-195.63 519.75,-195.45 518.72,-195.27 517.69,-195.04 516.68,-194.77 515.67,-194.5 514.67,-194.19 513.69,-193.83 512.7,-193.47 511.73,-193.07 510.79,-192.63 509.84,-192.18 508.91,-191.7 508,-191.18 508,-191.18 526,-160 526,-160"/>
<path fill="#33a02c" stroke="#a6cee3" stroke-width="0" d="M526,-160C526,-160 508,-191.18 508,-191.18 507.09,-190.65 506.21,-190.09 505.35,-189.49 504.49,-188.89 503.66,-188.25 502.86,-187.58 502.06,-186.9 501.28,-186.2 500.54,-185.46 499.8,-184.72 499.1,-183.94 498.42,-183.14 497.75,-182.34 497.11,-181.51 496.51,-180.65 495.91,-179.79 495.35,-178.91 494.82,-178 494.3,-177.09 493.82,-176.16 493.37,-175.21 492.93,-174.27 492.53,-173.3 492.17,-172.31 492.17,-172.31 526,-160 526,-160"/>
<path fill="#fb9a99" stroke="#a6cee3" stroke-width="0" d="M526,-160C526,-160 492.17,-172.31 492.17,-172.31 491.81,-171.33 491.5,-170.33 491.23,-169.32 490.96,-168.31 490.73,-167.28 490.55,-166.25 490.37,-165.22 490.23,-164.18 490.14,-163.14 490.05,-162.09 490,-161.05 490,-160 490,-158.95 490.05,-157.91 490.14,-156.86 490.23,-155.82 490.37,-154.78 490.55,-153.75 490.73,-152.72 490.96,-151.69 491.23,-150.68 491.5,-149.67 491.81,-148.67 492.17,-147.69 492.17,-147.69 526,-160 526,-160"/>
<path fill="#e31a1c" stroke="#a6cee3" stroke-width="0" d="M526,-160C526,-160 492.17,-147.69 492.17,-147.69 492.53,-146.7 492.93,-145.73 493.37,-144.79 493.82,-143.84 494.3,-142.91 494.82,-142 495.35,-141.09 495.91,-140.21 496.51,-139.35 497.11,-138.49 497.75,-137.66 498.42,-136.86 499.1,-136.06 499.8,-135.28 500.54,-134.54 501.28,-133.8 502.06,-133.1 502.86,-132.42 503.66,-131.75 504.49,-131.11 505.35,-130.51 506.21,-129.91 507.09,-129.35 508,-128.82 508,-128.82 526,-160 526,-160"/>
<path fill="#fdbf6f" stroke="#a6cee3" stroke-width="0" d="M526,-160C526,-160 508,-128.82 508,-128.82 508.91,-128.3 509.84,-127.82 510.79,-127.37 511.73,-126.93 512.7,-126.53 513.69,-126.17 514.67,-125.81 515.67,-125.5 516.68,-125.23 517.69,-124.96 518.72,-124.73 519.75,-124.55 520.78,-124.37 521.82,-124.23 522.86,-124.14 523.91,-124.05 524.95,-124 526,-124 527.05,-124 528.09,-124.05 529.14,-124.14 530.18,-124.23 531.22,-124.37 532.25,-124.55 532.25,-124.55 526,-160 526,-160"/>
<path fill="#ff7f00" stroke="#a6cee3" stroke-width="0" d="M526,-160C526,-160 532.25,-124.55 532.25,-124.55 533.28,-124.73 534.31,-124.96 535.32,-125.23 536.33,-125.5 537.33,-125.81 538.31,-126.17 539.3,-126.53 540.27,-126.93 541.21,-127.37 542.16,-127.82 543.09,-128.3 544,-128.82 544.91,-129.35 545.79,-129.91 546.65,-130.51 547.51,-131.11 548.34,-131.75 549.14,-132.42 549.94,-133.1 550.72,-133.8 551.46,-134.54 552.2,-135.28 552.9,-136.06 553.58,-136.86 553.58,-136.86 526,-160 526,-160"/>
<path fill="#cab2d6" stroke="#a6cee3" stroke-width="0" d="M526,-160C526,-160 553.58,-136.86 553.58,-136.86 554.25,-137.66 554.89,-138.49 555.49,-139.35 556.09,-140.21 556.65,-141.09 557.18,-142 557.7,-142.91 558.18,-143.84 558.63,-144.79 559.07,-145.73 559.47,-146.7 559.83,-147.69 560.19,-148.67 560.5,-149.67 560.77,-150.68 561.04,-151.69 561.27,-152.72 561.45,-153.75 561.63,-154.78 561.77,-155.82 561.86,-156.86 561.95,-157.91 562,-158.95 562,-160 562,-160 526,-160 526,-160"/>
<ellipse fill="none" stroke="#a6cee3" stroke-width="0" cx="526" cy="-160" rx="36" ry="36"/>
<text text-anchor="middle" x="526" y="-156.3" font-family="Times,serif" font-size="14.00">c3</text>
</g>
<!-- c4 -->
<g id="node7" class="node">
<title>c4</title>
<path fill="#b3e2cd" stroke="#b3e2cd" stroke-width="0" d="M526,-52C526,-52 562,-52 562,-52 562,-53.05 561.95,-54.09 561.86,-55.14 561.77,-56.18 561.63,-57.22 561.45,-58.25 561.27,-59.28 561.04,-60.31 560.77,-61.32 560.5,-62.33 560.19,-63.33 559.83,-64.31 559.47,-65.3 559.07,-66.27 558.63,-67.21 558.18,-68.16 557.7,-69.09 557.18,-70 556.65,-70.91 556.09,-71.79 555.49,-72.65 554.89,-73.51 554.25,-74.34 553.58,-75.14 553.58,-75.14 526,-52 526,-52"/>
<path fill="#fdcdac" stroke="#b3e2cd" stroke-width="0" d="M526,-52C526,-52 553.58,-75.14 553.58,-75.14 552.9,-75.94 552.2,-76.72 551.46,-77.46 550.72,-78.2 549.94,-78.9 549.14,-79.58 548.34,-80.25 547.51,-80.89 546.65,-81.49 545.79,-82.09 544.91,-82.65 544,-83.18 543.09,-83.7 542.16,-84.18 541.21,-84.63 540.27,-85.07 539.3,-85.47 538.31,-85.83 537.33,-86.19 536.33,-86.5 535.32,-86.77 534.31,-87.04 533.28,-87.27 532.25,-87.45 532.25,-87.45 526,-52 526,-52"/>
<path fill="#cbd5e8" stroke="#b3e2cd" stroke-width="0" d="M526,-52C526,-52 532.25,-87.45 532.25,-87.45 531.22,-87.63 530.18,-87.77 529.14,-87.86 528.09,-87.95 527.05,-88 526,-88 524.95,-88 523.91,-87.95 522.86,-87.86 521.82,-87.77 520.78,-87.63 519.75,-87.45 518.72,-87.27 517.69,-87.04 516.68,-86.77 515.67,-86.5 514.67,-86.19 513.69,-85.83 512.7,-85.47 511.73,-85.07 510.79,-84.63 509.84,-84.18 508.91,-83.7 508,-83.18 508,-83.18 526,-52 526,-52"/>
<path fill="#f4cae4" stroke="#b3e2cd" stroke-width="0" d="M526,-52C526,-52 508,-83.18 508,-83.18 507.09,-82.65 506.21,-82.09 505.35,-81.49 504.49,-80.89 503.66,-80.25 502.86,-79.58 502.06,-78.9 501.28,-78.2 500.54,-77.46 499.8,-76.72 499.1,-75.94 498.42,-75.14 497.75,-74.34 497.11,-73.51 496.51,-72.65 495.91,-71.79 495.35,-70.91 494.82,-70 494.3,-69.09 493.82,-68.16 493.37,-67.21 492.93,-66.27 492.53,-65.3 492.17,-64.31 492.17,-64.31 526,-52 526,-52"/>
<path fill="#e6f5c9" stroke="#b3e2cd" stroke-width="0" d="M526,-52C526,-52 492.17,-64.31 492.17,-64.31 491.81,-63.33 491.5,-62.33 491.23,-61.32 490.96,-60.31 490.73,-59.28 490.55,-58.25 490.37,-57.22 490.23,-56.18 490.14,-55.14 490.05,-54.09 490,-53.05 490,-52 490,-50.95 490.05,-49.91 490.14,-48.86 490.23,-47.82 490.37,-46.78 490.55,-45.75 490.73,-44.72 490.96,-43.69 491.23,-42.68 491.5,-41.67 491.81,-40.67 492.17,-39.69 492.17,-39.69 526,-52 526,-52"/>
<path fill="#fff2ae" stroke="#b3e2cd" stroke-width="0" d="M526,-52C526,-52 492.17,-39.69 492.17,-39.69 492.53,-38.7 492.93,-37.73 493.37,-36.79 493.82,-35.84 494.3,-34.91 494.82,-34 495.35,-33.09 495.91,-32.21 496.51,-31.35 497.11,-30.49 497.75,-29.66 498.42,-28.86 499.1,-28.06 499.8,-27.28 500.54,-26.54 501.28,-25.8 502.06,-25.1 502.86,-24.42 503.66,-23.75 504.49,-23.11 505.35,-22.51 506.21,-21.91 507.09,-21.35 508,-20.82 508,-20.82 526,-52 526,-52"/>
<path fill="#f1e2cc" stroke="#b3e2cd" stroke-width="0" d="M526,-52C526,-52 508,-20.82 508,-20.82 508.91,-20.3 509.84,-19.82 510.79,-19.37 511.73,-18.93 512.7,-18.53 513.69,-18.17 514.67,-17.81 515.67,-17.5 516.68,-17.23 517.69,-16.96 518.72,-16.73 519.75,-16.55 520.78,-16.37 521.82,-16.23 522.86,-16.14 523.91,-16.05 524.95,-16 526,-16 527.05,-16 528.09,-16.05 529.14,-16.14 530.18,-16.23 531.22,-16.37 532.25,-16.55 532.25,-16.55 526,-52 526,-52"/>
<path fill="#cccccc" stroke="#b3e2cd" stroke-width="0" d="M526,-52C526,-52 532.25,-16.55 532.25,-16.55 533.28,-16.73 534.31,-16.96 535.32,-17.23 536.33,-17.5 537.33,-17.81 538.31,-18.17 539.3,-18.53 540.27,-18.93 541.21,-19.37 542.16,-19.82 543.09,-20.3 544,-20.82 544.91,-21.35 545.79,-21.91 546.65,-22.51 547.51,-23.11 548.34,-23.75 549.14,-24.42 549.94,-25.1 550.72,-25.8 551.46,-26.54 552.2,-27.28 552.9,-28.06 553.58,-28.86 553.58,-28.86 526,-52 526,-52"/>
<path fill="#000000" stroke="#b3e2cd" stroke-width="0" d="M526,-52C526,-52 553.58,-28.86 553.58,-28.86 554.25,-29.66 554.89,-30.49 555.49,-31.35 556.09,-32.21 556.65,-33.09 557.18,-34 557.7,-34.91 558.18,-35.84 558.63,-36.79 559.07,-37.73 559.47,-38.7 559.83,-39.69 560.19,-40.67 560.5,-41.67 560.77,-42.68 561.04,-43.69 561.27,-44.72 561.45,-45.75 561.63,-46.78 561.77,-47.82 561.86,-48.86 561.95,-49.91 562,-50.95 562,-52 562,-52 526,-52 526,-52"/>
<ellipse fill="none" stroke="#b3e2cd" stroke-width="0" cx="526" cy="-52" rx="36" ry="36"/>
<text text-anchor="middle" x="526" y="-48.3" font-family="Times,serif" font-size="14.00">c4</text>
</g>
<!-- c3&#45;&gt;c4 -->
<g id="edge4" class="edge">
<title>c3&#45;&gt;c4</title>
<path fill="none" stroke="black" stroke-width="2" d="M526,-124C526,-115.85 526,-107.06 526,-98.54"/>
<polygon fill="black" stroke="black" stroke-width="2" points="529.5,-98.33 526,-88.33 522.5,-98.33 529.5,-98.33"/>
</g>
<!-- c5 -->
<g id="node8" class="node">
<title>c5</title>
<path fill="#8dd3c7" stroke="#8dd3c7" stroke-width="0" d="M436,-160C436,-160 472,-160 472,-160 472,-161.05 471.95,-162.09 471.86,-163.14 471.77,-164.18 471.63,-165.22 471.45,-166.25 471.27,-167.28 471.04,-168.31 470.77,-169.32 470.5,-170.33 470.19,-171.33 469.83,-172.31 469.47,-173.3 469.07,-174.27 468.63,-175.21 468.18,-176.16 467.7,-177.09 467.18,-178 466.65,-178.91 466.09,-179.79 465.49,-180.65 464.89,-181.51 464.25,-182.34 463.58,-183.14 463.58,-183.14 436,-160 436,-160"/>
<path fill="#ffffb3" stroke="#8dd3c7" stroke-width="0" d="M436,-160C436,-160 463.58,-183.14 463.58,-183.14 462.9,-183.94 462.2,-184.72 461.46,-185.46 460.72,-186.2 459.94,-186.9 459.14,-187.58 458.34,-188.25 457.51,-188.89 456.65,-189.49 455.79,-190.09 454.91,-190.65 454,-191.18 453.09,-191.7 452.16,-192.18 451.21,-192.63 450.27,-193.07 449.3,-193.47 448.31,-193.83 447.33,-194.19 446.33,-194.5 445.32,-194.77 444.31,-195.04 443.28,-195.27 442.25,-195.45 442.25,-195.45 436,-160 436,-160"/>
<path fill="#bebada" stroke="#8dd3c7" stroke-width="0" d="M436,-160C436,-160 442.25,-195.45 442.25,-195.45 441.22,-195.63 440.18,-195.77 439.14,-195.86 438.09,-195.95 437.05,-196 436,-196 434.95,-196 433.91,-195.95 432.86,-195.86 431.82,-195.77 430.78,-195.63 429.75,-195.45 428.72,-195.27 427.69,-195.04 426.68,-194.77 425.67,-194.5 424.67,-194.19 423.69,-193.83 422.7,-193.47 421.73,-193.07 420.79,-192.63 419.84,-192.18 418.91,-191.7 418,-191.18 418,-191.18 436,-160 436,-160"/>
<path fill="#fb8072" stroke="#8dd3c7" stroke-width="0" d="M436,-160C436,-160 418,-191.18 418,-191.18 417.09,-190.65 416.21,-190.09 415.35,-189.49 414.49,-188.89 413.66,-188.25 412.86,-187.58 412.06,-186.9 411.28,-186.2 410.54,-185.46 409.8,-184.72 409.1,-183.94 408.42,-183.14 407.75,-182.34 407.11,-181.51 406.51,-180.65 405.91,-179.79 405.35,-178.91 404.82,-178 404.3,-177.09 403.82,-176.16 403.37,-175.21 402.93,-174.27 402.53,-173.3 402.17,-172.31 402.17,-172.31 436,-160 436,-160"/>
<path fill="#80b1d3" stroke="#8dd3c7" stroke-width="0" d="M436,-160C436,-160 402.17,-172.31 402.17,-172.31 401.81,-171.33 401.5,-170.33 401.23,-169.32 400.96,-168.31 400.73,-167.28 400.55,-166.25 400.37,-165.22 400.23,-164.18 400.14,-163.14 400.05,-162.09 400,-161.05 400,-160 400,-158.95 400.05,-157.91 400.14,-156.86 400.23,-155.82 400.37,-154.78 400.55,-153.75 400.73,-152.72 400.96,-151.69 401.23,-150.68 401.5,-149.67 401.81,-148.67 402.17,-147.69 402.17,-147.69 436,-160 436,-160"/>
<path fill="#fdb462" stroke="#8dd3c7" stroke-width="0" d="M436,-160C436,-160 402.17,-147.69 402.17,-147.69 402.53,-146.7 402.93,-145.73 403.37,-144.79 403.82,-143.84 404.3,-142.91 404.82,-142 405.35,-141.09 405.91,-140.21 406.51,-139.35 407.11,-138.49 407.75,-137.66 408.42,-136.86 409.1,-136.06 409.8,-135.28 410.54,-134.54 411.28,-133.8 412.06,-133.1 412.86,-132.42 413.66,-131.75 414.49,-131.11 415.35,-130.51 416.21,-129.91 417.09,-129.35 418,-128.82 418,-128.82 436,-160 436,-160"/>
<path fill="#b3de69" stroke="#8dd3c7" stroke-width="0" d="M436,-160C436,-160 418,-128.82 418,-128.82 418.91,-128.3 419.84,-127.82 420.79,-127.37 421.73,-126.93 422.7,-126.53 423.69,-126.17 424.67,-125.81 425.67,-125.5 426.68,-125.23 427.69,-124.96 428.72,-124.73 429.75,-124.55 430.78,-124.37 431.82,-124.23 432.86,-124.14 433.91,-124.05 434.95,-124 436,-124 437.05,-124 438.09,-124.05 439.14,-124.14 440.18,-124.23 441.22,-124.37 442.25,-124.55 442.25,-124.55 436,-160 436,-160"/>
<path fill="#fccde5" stroke="#8dd3c7" stroke-width="0" d="M436,-160C436,-160 442.25,-124.55 442.25,-124.55 443.28,-124.73 444.31,-124.96 445.32,-125.23 446.33,-125.5 447.33,-125.81 448.31,-126.17 449.3,-126.53 450.27,-126.93 451.21,-127.37 452.16,-127.82 453.09,-128.3 454,-128.82 454.91,-129.35 455.79,-129.91 456.65,-130.51 457.51,-131.11 458.34,-131.75 459.14,-132.42 459.94,-133.1 460.72,-133.8 461.46,-134.54 462.2,-135.28 462.9,-136.06 463.58,-136.86 463.58,-136.86 436,-160 436,-160"/>
<path fill="#d9d9d9" stroke="#8dd3c7" stroke-width="0" d="M436,-160C436,-160 463.58,-136.86 463.58,-136.86 464.25,-137.66 464.89,-138.49 465.49,-139.35 466.09,-140.21 466.65,-141.09 467.18,-142 467.7,-142.91 468.18,-143.84 468.63,-144.79 469.07,-145.73 469.47,-146.7 469.83,-147.69 470.19,-148.67 470.5,-149.67 470.77,-150.68 471.04,-151.69 471.27,-152.72 471.45,-153.75 471.63,-154.78 471.77,-155.82 471.86,-156.86 471.95,-157.91 472,-158.95 472,-160 472,-160 436,-160 436,-160"/>
<ellipse fill="none" stroke="#8dd3c7" stroke-width="0" cx="436" cy="-160" rx="36" ry="36"/>
<text text-anchor="middle" x="436" y="-156.3" font-family="Times,serif" font-size="14.00">c5</text>
</g>
<!-- c6 -->
<g id="node9" class="node">
<title>c6</title>
<path fill="#e41a1c" stroke="#e41a1c" stroke-width="0" d="M436,-52C436,-52 472,-52 472,-52 472,-53.05 471.95,-54.09 471.86,-55.14 471.77,-56.18 471.63,-57.22 471.45,-58.25 471.27,-59.28 471.04,-60.31 470.77,-61.32 470.5,-62.33 470.19,-63.33 469.83,-64.31 469.47,-65.3 469.07,-66.27 468.63,-67.21 468.18,-68.16 467.7,-69.09 467.18,-70 466.65,-70.91 466.09,-71.79 465.49,-72.65 464.89,-73.51 464.25,-74.34 463.58,-75.14 463.58,-75.14 436,-52 436,-52"/>
<path fill="#377eb8" stroke="#e41a1c" stroke-width="0" d="M436,-52C436,-52 463.58,-75.14 463.58,-75.14 462.9,-75.94 462.2,-76.72 461.46,-77.46 460.72,-78.2 459.94,-78.9 459.14,-79.58 458.34,-80.25 457.51,-80.89 456.65,-81.49 455.79,-82.09 454.91,-82.65 454,-83.18 453.09,-83.7 452.16,-84.18 451.21,-84.63 450.27,-85.07 449.3,-85.47 448.31,-85.83 447.33,-86.19 446.33,-86.5 445.32,-86.77 444.31,-87.04 443.28,-87.27 442.25,-87.45 442.25,-87.45 436,-52 436,-52"/>
<path fill="#4daf4a" stroke="#e41a1c" stroke-width="0" d="M436,-52C436,-52 442.25,-87.45 442.25,-87.45 441.22,-87.63 440.18,-87.77 439.14,-87.86 438.09,-87.95 437.05,-88 436,-88 434.95,-88 433.91,-87.95 432.86,-87.86 431.82,-87.77 430.78,-87.63 429.75,-87.45 428.72,-87.27 427.69,-87.04 426.68,-86.77 425.67,-86.5 424.67,-86.19 423.69,-85.83 422.7,-85.47 421.73,-85.07 420.79,-84.63 419.84,-84.18 418.91,-83.7 418,-83.18 418,-83.18 436,-52 436,-52"/>
<path fill="#984ea3" stroke="#e41a1c" stroke-width="0" d="M436,-52C436,-52 418,-83.18 418,-83.18 417.09,-82.65 416.21,-82.09 415.35,-81.49 414.49,-80.89 413.66,-80.25 412.86,-79.58 412.06,-78.9 411.28,-78.2 410.54,-77.46 409.8,-76.72 409.1,-75.94 408.42,-75.14 407.75,-74.34 407.11,-73.51 406.51,-72.65 405.91,-71.79 405.35,-70.91 404.82,-70 404.3,-69.09 403.82,-68.16 403.37,-67.21 402.93,-66.27 402.53,-65.3 402.17,-64.31 402.17,-64.31 436,-52 436,-52"/>
<path fill="#ff7f00" stroke="#e41a1c" stroke-width="0" d="M436,-52C436,-52 402.17,-64.31 402.17,-64.31 401.81,-63.33 401.5,-62.33 401.23,-61.32 400.96,-60.31 400.73,-59.28 400.55,-58.25 400.37,-57.22 400.23,-56.18 400.14,-55.14 400.05,-54.09 400,-53.05 400,-52 400,-50.95 400.05,-49.91 400.14,-48.86 400.23,-47.82 400.37,-46.78 400.55,-45.75 400.73,-44.72 400.96,-43.69 401.23,-42.68 401.5,-41.67 401.81,-40.67 402.17,-39.69 402.17,-39.69 436,-52 436,-52"/>
<path fill="#ffff33" stroke="#e41a1c" stroke-width="0" d="M436,-52C436,-52 402.17,-39.69 402.17,-39.69 402.53,-38.7 402.93,-37.73 403.37,-36.79 403.82,-35.84 404.3,-34.91 404.82,-34 405.35,-33.09 405.91,-32.21 406.51,-31.35 407.11,-30.49 407.75,-29.66 408.42,-28.86 409.1,-28.06 409.8,-27.28 410.54,-26.54 411.28,-25.8 412.06,-25.1 412.86,-24.42 413.66,-23.75 414.49,-23.11 415.35,-22.51 416.21,-21.91 417.09,-21.35 418,-20.82 418,-20.82 436,-52 436,-52"/>
<path fill="#a65628" stroke="#e41a1c" stroke-width="0" d="M436,-52C436,-52 418,-20.82 418,-20.82 418.91,-20.3 419.84,-19.82 420.79,-19.37 421.73,-18.93 422.7,-18.53 423.69,-18.17 424.67,-17.81 425.67,-17.5 426.68,-17.23 427.69,-16.96 428.72,-16.73 429.75,-16.55 430.78,-16.37 431.82,-16.23 432.86,-16.14 433.91,-16.05 434.95,-16 436,-16 437.05,-16 438.09,-16.05 439.14,-16.14 440.18,-16.23 441.22,-16.37 442.25,-16.55 442.25,-16.55 436,-52 436,-52"/>
<path fill="#f781bf" stroke="#e41a1c" stroke-width="0" d="M436,-52C436,-52 442.25,-16.55 442.25,-16.55 443.28,-16.73 444.31,-16.96 445.32,-17.23 446.33,-17.5 447.33,-17.81 448.31,-18.17 449.3,-18.53 450.27,-18.93 451.21,-19.37 452.16,-19.82 453.09,-20.3 454,-20.82 454.91,-21.35 455.79,-21.91 456.65,-22.51 457.51,-23.11 458.34,-23.75 459.14,-24.42 459.94,-25.1 460.72,-25.8 461.46,-26.54 462.2,-27.28 462.9,-28.06 463.58,-28.86 463.58,-28.86 436,-52 436,-52"/>
<path fill="#999999" stroke="#e41a1c" stroke-width="0" d="M436,-52C436,-52 463.58,-28.86 463.58,-28.86 464.25,-29.66 464.89,-30.49 465.49,-31.35 466.09,-32.21 466.65,-33.09 467.18,-34 467.7,-34.91 468.18,-35.84 468.63,-36.79 469.07,-37.73 469.47,-38.7 469.83,-39.69 470.19,-40.67 470.5,-41.67 470.77,-42.68 471.04,-43.69 471.27,-44.72 471.45,-45.75 471.63,-46.78 471.77,-47.82 471.86,-48.86 471.95,-49.91 472,-50.95 472,-52 472,-52 436,-52 436,-52"/>
<ellipse fill="none" stroke="#e41a1c" stroke-width="0" cx="436" cy="-52" rx="36" ry="36"/>
<text text-anchor="middle" x="436" y="-48.3" font-family="Times,serif" font-size="14.00">c6</text>
</g>
<!-- c5&#45;&gt;c6 -->
<g id="edge5" class="edge">
<title>c5&#45;&gt;c6</title>
<path fill="none" stroke="black" stroke-width="2" d="M436,-124C436,-115.85 436,-107.06 436,-98.54"/>
<polygon fill="black" stroke="black" stroke-width="2" points="439.5,-98.33 436,-88.33 432.5,-98.33 439.5,-98.33"/>
</g>
<!-- c7 -->
<g id="node10" class="node">
<title>c7</title>
<path fill="#ffffcc" stroke="#ffffcc" stroke-width="0" d="M346,-160C346,-160 382,-160 382,-160 382,-161.05 381.95,-162.09 381.86,-163.14 381.77,-164.18 381.63,-165.22 381.45,-166.25 381.27,-167.28 381.04,-168.31 380.77,-169.32 380.5,-170.33 380.19,-171.33 379.83,-172.31 379.47,-173.3 379.07,-174.27 378.63,-175.21 378.18,-176.16 377.7,-177.09 377.18,-178 376.65,-178.91 376.09,-179.79 375.49,-180.65 374.89,-181.51 374.25,-182.34 373.58,-183.14 373.58,-183.14 346,-160 346,-160"/>
<path fill="#ffeda0" stroke="#ffffcc" stroke-width="0" d="M346,-160C346,-160 373.58,-183.14 373.58,-183.14 372.9,-183.94 372.2,-184.72 371.46,-185.46 370.72,-186.2 369.94,-186.9 369.14,-187.58 368.34,-188.25 367.51,-188.89 366.65,-189.49 365.79,-190.09 364.91,-190.65 364,-191.18 363.09,-191.7 362.16,-192.18 361.21,-192.63 360.27,-193.07 359.3,-193.47 358.31,-193.83 357.33,-194.19 356.33,-194.5 355.32,-194.77 354.31,-195.04 353.28,-195.27 352.25,-195.45 352.25,-195.45 346,-160 346,-160"/>
<path fill="#fed976" stroke="#ffffcc" stroke-width="0" d="M346,-160C346,-160 352.25,-195.45 352.25,-195.45 351.22,-195.63 350.18,-195.77 349.14,-195.86 348.09,-195.95 347.05,-196 346,-196 344.95,-196 343.91,-195.95 342.86,-195.86 341.82,-195.77 340.78,-195.63 339.75,-195.45 338.72,-195.27 337.69,-195.04 336.68,-194.77 335.67,-194.5 334.67,-194.19 333.69,-193.83 332.7,-193.47 331.73,-193.07 330.79,-192.63 329.84,-192.18 328.91,-191.7 328,-191.18 328,-191.18 346,-160 346,-160"/>
<path fill="#feb24c" stroke="#ffffcc" stroke-width="0" d="M346,-160C346,-160 328,-191.18 328,-191.18 327.09,-190.65 326.21,-190.09 325.35,-189.49 324.49,-188.89 323.66,-188.25 322.86,-187.58 322.06,-186.9 321.28,-186.2 320.54,-185.46 319.8,-184.72 319.1,-183.94 318.42,-183.14 317.75,-182.34 317.11,-181.51 316.51,-180.65 315.91,-179.79 315.35,-178.91 314.82,-178 314.3,-177.09 313.82,-176.16 313.37,-175.21 312.93,-174.27 312.53,-173.3 312.17,-172.31 312.17,-172.31 346,-160 346,-160"/>
<path fill="#fd8d3c" stroke="#ffffcc" stroke-width="0" d="M346,-160C346,-160 312.17,-172.31 312.17,-172.31 311.81,-171.33 311.5,-170.33 311.23,-169.32 310.96,-168.31 310.73,-167.28 310.55,-166.25 310.37,-165.22 310.23,-164.18 310.14,-163.14 310.05,-162.09 310,-161.05 310,-160 310,-158.95 310.05,-157.91 310.14,-156.86 310.23,-155.82 310.37,-154.78 310.55,-153.75 310.73,-152.72 310.96,-151.69 311.23,-150.68 311.5,-149.67 311.81,-148.67 312.17,-147.69 312.17,-147.69 346,-160 346,-160"/>
<path fill="#fc4e2a" stroke="#ffffcc" stroke-width="0" d="M346,-160C346,-160 312.17,-147.69 312.17,-147.69 312.53,-146.7 312.93,-145.73 313.37,-144.79 313.82,-143.84 314.3,-142.91 314.82,-142 315.35,-141.09 315.91,-140.21 316.51,-139.35 317.11,-138.49 317.75,-137.66 318.42,-136.86 319.1,-136.06 319.8,-135.28 320.54,-134.54 321.28,-133.8 322.06,-133.1 322.86,-132.42 323.66,-131.75 324.49,-131.11 325.35,-130.51 326.21,-129.91 327.09,-129.35 328,-128.82 328,-128.82 346,-160 346,-160"/>
<path fill="#e31a1c" stroke="#ffffcc" stroke-width="0" d="M346,-160C346,-160 328,-128.82 328,-128.82 328.91,-128.3 329.84,-127.82 330.79,-127.37 331.73,-126.93 332.7,-126.53 333.69,-126.17 334.67,-125.81 335.67,-125.5 336.68,-125.23 337.69,-124.96 338.72,-124.73 339.75,-124.55 340.78,-124.37 341.82,-124.23 342.86,-124.14 343.91,-124.05 344.95,-124 346,-124 347.05,-124 348.09,-124.05 349.14,-124.14 350.18,-124.23 351.22,-124.37 352.25,-124.55 352.25,-124.55 346,-160 346,-160"/>
<path fill="#bd0026" stroke="#ffffcc" stroke-width="0" d="M346,-160C346,-160 352.25,-124.55 352.25,-124.55 353.28,-124.73 354.31,-124.96 355.32,-125.23 356.33,-125.5 357.33,-125.81 358.31,-126.17 359.3,-126.53 360.27,-126.93 361.21,-127.37 362.16,-127.82 363.09,-128.3 364,-128.82 364.91,-129.35 365.79,-129.91 366.65,-130.51 367.51,-131.11 368.34,-131.75 369.14,-132.42 369.94,-133.1 370.72,-133.8 371.46,-134.54 372.2,-135.28 372.9,-136.06 373.58,-136.86 373.58,-136.86 346,-160 346,-160"/>
<path fill="#800026" stroke="#ffffcc" stroke-width="0" d="M346,-160C346,-160 373.58,-136.86 373.58,-136.86 374.25,-137.66 374.89,-138.49 375.49,-139.35 376.09,-140.21 376.65,-141.09 377.18,-142 377.7,-142.91 378.18,-143.84 378.63,-144.79 379.07,-145.73 379.47,-146.7 379.83,-147.69 380.19,-148.67 380.5,-149.67 380.77,-150.68 381.04,-151.69 381.27,-152.72 381.45,-153.75 381.63,-154.78 381.77,-155.82 381.86,-156.86 381.95,-157.91 382,-158.95 382,-160 382,-160 346,-160 346,-160"/>
<ellipse fill="none" stroke="#ffffcc" stroke-width="0" cx="346" cy="-160" rx="36" ry="36"/>
<text text-anchor="middle" x="346" y="-156.3" font-family="Times,serif" font-size="14.00">c7</text>
</g>
<!-- c8 -->
<g id="node11" class="node">
<title>c8</title>
<path fill="#d53e4f" stroke="#d53e4f" stroke-width="0" d="M346,-52C346,-52 382,-52 382,-52 382,-53.05 381.95,-54.09 381.86,-55.14 381.77,-56.18 381.63,-57.22 381.45,-58.25 381.27,-59.28 381.04,-60.31 380.77,-61.32 380.5,-62.33 380.19,-63.33 379.83,-64.31 379.47,-65.3 379.07,-66.27 378.63,-67.21 378.18,-68.16 377.7,-69.09 377.18,-70 376.65,-70.91 376.09,-71.79 375.49,-72.65 374.89,-73.51 374.25,-74.34 373.58,-75.14 373.58,-75.14 346,-52 346,-52"/>
<path fill="#f46d43" stroke="#d53e4f" stroke-width="0" d="M346,-52C346,-52 373.58,-75.14 373.58,-75.14 372.9,-75.94 372.2,-76.72 371.46,-77.46 370.72,-78.2 369.94,-78.9 369.14,-79.58 368.34,-80.25 367.51,-80.89 366.65,-81.49 365.79,-82.09 364.91,-82.65 364,-83.18 363.09,-83.7 362.16,-84.18 361.21,-84.63 360.27,-85.07 359.3,-85.47 358.31,-85.83 357.33,-86.19 356.33,-86.5 355.32,-86.77 354.31,-87.04 353.28,-87.27 352.25,-87.45 352.25,-87.45 346,-52 346,-52"/>
<path fill="#fdae61" stroke="#d53e4f" stroke-width="0" d="M346,-52C346,-52 352.25,-87.45 352.25,-87.45 351.22,-87.63 350.18,-87.77 349.14,-87.86 348.09,-87.95 347.05,-88 346,-88 344.95,-88 343.91,-87.95 342.86,-87.86 341.82,-87.77 340.78,-87.63 339.75,-87.45 338.72,-87.27 337.69,-87.04 336.68,-86.77 335.67,-86.5 334.67,-86.19 333.69,-85.83 332.7,-85.47 331.73,-85.07 330.79,-84.63 329.84,-84.18 328.91,-83.7 328,-83.18 328,-83.18 346,-52 346,-52"/>
<path fill="#fee08b" stroke="#d53e4f" stroke-width="0" d="M346,-52C346,-52 328,-83.18 328,-83.18 327.09,-82.65 326.21,-82.09 325.35,-81.49 324.49,-80.89 323.66,-80.25 322.86,-79.58 322.06,-78.9 321.28,-78.2 320.54,-77.46 319.8,-76.72 319.1,-75.94 318.42,-75.14 317.75,-74.34 317.11,-73.51 316.51,-72.65 315.91,-71.79 315.35,-70.91 314.82,-70 314.3,-69.09 313.82,-68.16 313.37,-67.21 312.93,-66.27 312.53,-65.3 312.17,-64.31 312.17,-64.31 346,-52 346,-52"/>
<path fill="#ffffbf" stroke="#d53e4f" stroke-width="0" d="M346,-52C346,-52 312.17,-64.31 312.17,-64.31 311.81,-63.33 311.5,-62.33 311.23,-61.32 310.96,-60.31 310.73,-59.28 310.55,-58.25 310.37,-57.22 310.23,-56.18 310.14,-55.14 310.05,-54.09 310,-53.05 310,-52 310,-50.95 310.05,-49.91 310.14,-48.86 310.23,-47.82 310.37,-46.78 310.55,-45.75 310.73,-44.72 310.96,-43.69 311.23,-42.68 311.5,-41.67 311.81,-40.67 312.17,-39.69 312.17,-39.69 346,-52 346,-52"/>
<path fill="#e6f598" stroke="#d53e4f" stroke-width="0" d="M346,-52C346,-52 312.17,-39.69 312.17,-39.69 312.53,-38.7 312.93,-37.73 313.37,-36.79 313.82,-35.84 314.3,-34.91 314.82,-34 315.35,-33.09 315.91,-32.21 316.51,-31.35 317.11,-30.49 317.75,-29.66 318.42,-28.86 319.1,-28.06 319.8,-27.28 320.54,-26.54 321.28,-25.8 322.06,-25.1 322.86,-24.42 323.66,-23.75 324.49,-23.11 325.35,-22.51 326.21,-21.91 327.09,-21.35 328,-20.82 328,-20.82 346,-52 346,-52"/>
<path fill="#abdda4" stroke="#d53e4f" stroke-width="0" d="M346,-52C346,-52 328,-20.82 328,-20.82 328.91,-20.3 329.84,-19.82 330.79,-19.37 331.73,-18.93 332.7,-18.53 333.69,-18.17 334.67,-17.81 335.67,-17.5 336.68,-17.23 337.69,-16.96 338.72,-16.73 339.75,-16.55 340.78,-16.37 341.82,-16.23 342.86,-16.14 343.91,-16.05 344.95,-16 346,-16 347.05,-16 348.09,-16.05 349.14,-16.14 350.18,-16.23 351.22,-16.37 352.25,-16.55 352.25,-16.55 346,-52 346,-52"/>
<path fill="#66c2a5" stroke="#d53e4f" stroke-width="0" d="M346,-52C346,-52 352.25,-16.55 352.25,-16.55 353.28,-16.73 354.31,-16.96 355.32,-17.23 356.33,-17.5 357.33,-17.81 358.31,-18.17 359.3,-18.53 360.27,-18.93 361.21,-19.37 362.16,-19.82 363.09,-20.3 364,-20.82 364.91,-21.35 365.79,-21.91 366.65,-22.51 367.51,-23.11 368.34,-23.75 369.14,-24.42 369.94,-25.1 370.72,-25.8 371.46,-26.54 372.2,-27.28 372.9,-28.06 373.58,-28.86 373.58,-28.86 346,-52 346,-52"/>
<path fill="#3288bd" stroke="#d53e4f" stroke-width="0" d="M346,-52C346,-52 373.58,-28.86 373.58,-28.86 374.25,-29.66 374.89,-30.49 375.49,-31.35 376.09,-32.21 376.65,-33.09 377.18,-34 377.7,-34.91 378.18,-35.84 378.63,-36.79 379.07,-37.73 379.47,-38.7 379.83,-39.69 380.19,-40.67 380.5,-41.67 380.77,-42.68 381.04,-43.69 381.27,-44.72 381.45,-45.75 381.63,-46.78 381.77,-47.82 381.86,-48.86 381.95,-49.91 382,-50.95 382,-52 382,-52 346,-52 346,-52"/>
<ellipse fill="none" stroke="#d53e4f" stroke-width="0" cx="346" cy="-52" rx="36" ry="36"/>
<text text-anchor="middle" x="346" y="-48.3" font-family="Times,serif" font-size="14.00">c8</text>
</g>
<!-- c7&#45;&gt;c8 -->
<g id="edge6" class="edge">
<title>c7&#45;&gt;c8</title>
<path fill="none" stroke="black" stroke-width="2" d="M346,-124C346,-115.85 346,-107.06 346,-98.54"/>
<polygon fill="black" stroke="black" stroke-width="2" points="349.5,-98.33 346,-88.33 342.5,-98.33 349.5,-98.33"/>
</g>
<!-- c9 -->
<g id="node12" class="node">
<title>c9</title>
<path fill="#67001f" stroke="#67001f" stroke-width="0" d="M256,-160C256,-160 292,-160 292,-160 292,-161.05 291.95,-162.09 291.86,-163.14 291.77,-164.18 291.63,-165.22 291.45,-166.25 291.27,-167.28 291.04,-168.31 290.77,-169.32 290.5,-170.33 290.19,-171.33 289.83,-172.31 289.47,-173.3 289.07,-174.27 288.63,-175.21 288.18,-176.16 287.7,-177.09 287.18,-178 286.65,-178.91 286.09,-179.79 285.49,-180.65 284.89,-181.51 284.25,-182.34 283.58,-183.14 283.58,-183.14 256,-160 256,-160"/>
<path fill="#b2182b" stroke="#67001f" stroke-width="0" d="M256,-160C256,-160 283.58,-183.14 283.58,-183.14 282.9,-183.94 282.2,-184.72 281.46,-185.46 280.72,-186.2 279.94,-186.9 279.14,-187.58 278.34,-188.25 277.51,-188.89 276.65,-189.49 275.79,-190.09 274.91,-190.65 274,-191.18 273.09,-191.7 272.16,-192.18 271.21,-192.63 270.27,-193.07 269.3,-193.47 268.31,-193.83 267.33,-194.19 266.33,-194.5 265.32,-194.77 264.31,-195.04 263.28,-195.27 262.25,-195.45 262.25,-195.45 256,-160 256,-160"/>
<path fill="#d6604d" stroke="#67001f" stroke-width="0" d="M256,-160C256,-160 262.25,-195.45 262.25,-195.45 261.22,-195.63 260.18,-195.77 259.14,-195.86 258.09,-195.95 257.05,-196 256,-196 254.95,-196 253.91,-195.95 252.86,-195.86 251.82,-195.77 250.78,-195.63 249.75,-195.45 248.72,-195.27 247.69,-195.04 246.68,-194.77 245.67,-194.5 244.67,-194.19 243.69,-193.83 242.7,-193.47 241.73,-193.07 240.79,-192.63 239.84,-192.18 238.91,-191.7 238,-191.18 238,-191.18 256,-160 256,-160"/>
<path fill="#f4a582" stroke="#67001f" stroke-width="0" d="M256,-160C256,-160 238,-191.18 238,-191.18 237.09,-190.65 236.21,-190.09 235.35,-189.49 234.49,-188.89 233.66,-188.25 232.86,-187.58 232.06,-186.9 231.28,-186.2 230.54,-185.46 229.8,-184.72 229.1,-183.94 228.42,-183.14 227.75,-182.34 227.11,-181.51 226.51,-180.65 225.91,-179.79 225.35,-178.91 224.82,-178 224.3,-177.09 223.82,-176.16 223.37,-175.21 222.93,-174.27 222.53,-173.3 222.17,-172.31 222.17,-172.31 256,-160 256,-160"/>
<path fill="#fddbc7" stroke="#67001f" stroke-width="0" d="M256,-160C256,-160 222.17,-172.31 222.17,-172.31 221.81,-171.33 221.5,-170.33 221.23,-169.32 220.96,-168.31 220.73,-167.28 220.55,-166.25 220.37,-165.22 220.23,-164.18 220.14,-163.14 220.05,-162.09 220,-161.05 220,-160 220,-158.95 220.05,-157.91 220.14,-156.86 220.23,-155.82 220.37,-154.78 220.55,-153.75 220.73,-152.72 220.96,-151.69 221.23,-150.68 221.5,-149.67 221.81,-148.67 222.17,-147.69 222.17,-147.69 256,-160 256,-160"/>
<path fill="#f7f7f7" stroke="#67001f" stroke-width="0" d="M256,-160C256,-160 222.17,-147.69 222.17,-147.69 222.53,-146.7 222.93,-145.73 223.37,-144.79 223.82,-143.84 224.3,-142.91 224.82,-142 225.35,-141.09 225.91,-140.21 226.51,-139.35 227.11,-138.49 227.75,-137.66 228.42,-136.86 229.1,-136.06 229.8,-135.28 230.54,-134.54 231.28,-133.8 232.06,-133.1 232.86,-132.42 233.66,-131.75 234.49,-131.11 235.35,-130.51 236.21,-129.91 237.09,-129.35 238,-128.82 238,-128.82 256,-160 256,-160"/>
<path fill="#d1e5f0" stroke="#67001f" stroke-width="0" d="M256,-160C256,-160 238,-128.82 238,-128.82 238.91,-128.3 239.84,-127.82 240.79,-127.37 241.73,-126.93 242.7,-126.53 243.69,-126.17 244.67,-125.81 245.67,-125.5 246.68,-125.23 247.69,-124.96 248.72,-124.73 249.75,-124.55 250.78,-124.37 251.82,-124.23 252.86,-124.14 253.91,-124.05 254.95,-124 256,-124 257.05,-124 258.09,-124.05 259.14,-124.14 260.18,-124.23 261.22,-124.37 262.25,-124.55 262.25,-124.55 256,-160 256,-160"/>
<path fill="#92c5de" stroke="#67001f" stroke-width="0" d="M256,-160C256,-160 262.25,-124.55 262.25,-124.55 263.28,-124.73 264.31,-124.96 265.32,-125.23 266.33,-125.5 267.33,-125.81 268.31,-126.17 269.3,-126.53 270.27,-126.93 271.21,-127.37 272.16,-127.82 273.09,-128.3 274,-128.82 274.91,-129.35 275.79,-129.91 276.65,-130.51 277.51,-131.11 278.34,-131.75 279.14,-132.42 279.94,-133.1 280.72,-133.8 281.46,-134.54 282.2,-135.28 282.9,-136.06 283.58,-136.86 283.58,-136.86 256,-160 256,-160"/>
<path fill="#4393c3" stroke="#67001f" stroke-width="0" d="M256,-160C256,-160 283.58,-136.86 283.58,-136.86 284.25,-137.66 284.89,-138.49 285.49,-139.35 286.09,-140.21 286.65,-141.09 287.18,-142 287.7,-142.91 288.18,-143.84 288.63,-144.79 289.07,-145.73 289.47,-146.7 289.83,-147.69 290.19,-148.67 290.5,-149.67 290.77,-150.68 291.04,-151.69 291.27,-152.72 291.45,-153.75 291.63,-154.78 291.77,-155.82 291.86,-156.86 291.95,-157.91 292,-158.95 292,-160 292,-160 256,-160 256,-160"/>
<ellipse fill="none" stroke="#67001f" stroke-width="0" cx="256" cy="-160" rx="36" ry="36"/>
<text text-anchor="middle" x="256" y="-156.3" font-family="Times,serif" font-size="14.00">c9</text>
</g>
<!-- c10 -->
<g id="node13" class="node">
<title>c10</title>
<path fill="#fff7f3" stroke="#fff7f3" stroke-width="0" d="M256,-52C256,-52 292,-52 292,-52 292,-53.05 291.95,-54.09 291.86,-55.14 291.77,-56.18 291.63,-57.22 291.45,-58.25 291.27,-59.28 291.04,-60.31 290.77,-61.32 290.5,-62.33 290.19,-63.33 289.83,-64.31 289.47,-65.3 289.07,-66.27 288.63,-67.21 288.18,-68.16 287.7,-69.09 287.18,-70 286.65,-70.91 286.09,-71.79 285.49,-72.65 284.89,-73.51 284.25,-74.34 283.58,-75.14 283.58,-75.14 256,-52 256,-52"/>
<path fill="#fde0dd" stroke="#fff7f3" stroke-width="0" d="M256,-52C256,-52 283.58,-75.14 283.58,-75.14 282.9,-75.94 282.2,-76.72 281.46,-77.46 280.72,-78.2 279.94,-78.9 279.14,-79.58 278.34,-80.25 277.51,-80.89 276.65,-81.49 275.79,-82.09 274.91,-82.65 274,-83.18 273.09,-83.7 272.16,-84.18 271.21,-84.63 270.27,-85.07 269.3,-85.47 268.31,-85.83 267.33,-86.19 266.33,-86.5 265.32,-86.77 264.31,-87.04 263.28,-87.27 262.25,-87.45 262.25,-87.45 256,-52 256,-52"/>
<path fill="#fcc5c0" stroke="#fff7f3" stroke-width="0" d="M256,-52C256,-52 262.25,-87.45 262.25,-87.45 261.22,-87.63 260.18,-87.77 259.14,-87.86 258.09,-87.95 257.05,-88 256,-88 254.95,-88 253.91,-87.95 252.86,-87.86 251.82,-87.77 250.78,-87.63 249.75,-87.45 248.72,-87.27 247.69,-87.04 246.68,-86.77 245.67,-86.5 244.67,-86.19 243.69,-85.83 242.7,-85.47 241.73,-85.07 240.79,-84.63 239.84,-84.18 238.91,-83.7 238,-83.18 238,-83.18 256,-52 256,-52"/>
<path fill="#fa9fb5" stroke="#fff7f3" stroke-width="0" d="M256,-52C256,-52 238,-83.18 238,-83.18 237.09,-82.65 236.21,-82.09 235.35,-81.49 234.49,-80.89 233.66,-80.25 232.86,-79.58 232.06,-78.9 231.28,-78.2 230.54,-77.46 229.8,-76.72 229.1,-75.94 228.42,-75.14 227.75,-74.34 227.11,-73.51 226.51,-72.65 225.91,-71.79 225.35,-70.91 224.82,-70 224.3,-69.09 223.82,-68.16 223.37,-67.21 222.93,-66.27 222.53,-65.3 222.17,-64.31 222.17,-64.31 256,-52 256,-52"/>
<path fill="#f768a1" stroke="#fff7f3" stroke-width="0" d="M256,-52C256,-52 222.17,-64.31 222.17,-64.31 221.81,-63.33 221.5,-62.33 221.23,-61.32 220.96,-60.31 220.73,-59.28 220.55,-58.25 220.37,-57.22 220.23,-56.18 220.14,-55.14 220.05,-54.09 220,-53.05 220,-52 220,-50.95 220.05,-49.91 220.14,-48.86 220.23,-47.82 220.37,-46.78 220.55,-45.75 220.73,-44.72 220.96,-43.69 221.23,-42.68 221.5,-41.67 221.81,-40.67 222.17,-39.69 222.17,-39.69 256,-52 256,-52"/>
<path fill="#dd3497" stroke="#fff7f3" stroke-width="0" d="M256,-52C256,-52 222.17,-39.69 222.17,-39.69 222.53,-38.7 222.93,-37.73 223.37,-36.79 223.82,-35.84 224.3,-34.91 224.82,-34 225.35,-33.09 225.91,-32.21 226.51,-31.35 227.11,-30.49 227.75,-29.66 228.42,-28.86 229.1,-28.06 229.8,-27.28 230.54,-26.54 231.28,-25.8 232.06,-25.1 232.86,-24.42 233.66,-23.75 234.49,-23.11 235.35,-22.51 236.21,-21.91 237.09,-21.35 238,-20.82 238,-20.82 256,-52 256,-52"/>
<path fill="#ae017e" stroke="#fff7f3" stroke-width="0" d="M256,-52C256,-52 238,-20.82 238,-20.82 238.91,-20.3 239.84,-19.82 240.79,-19.37 241.73,-18.93 242.7,-18.53 243.69,-18.17 244.67,-17.81 245.67,-17.5 246.68,-17.23 247.69,-16.96 248.72,-16.73 249.75,-16.55 250.78,-16.37 251.82,-16.23 252.86,-16.14 253.91,-16.05 254.95,-16 256,-16 257.05,-16 258.09,-16.05 259.14,-16.14 260.18,-16.23 261.22,-16.37 262.25,-16.55 262.25,-16.55 256,-52 256,-52"/>
<path fill="#7a0177" stroke="#fff7f3" stroke-width="0" d="M256,-52C256,-52 262.25,-16.55 262.25,-16.55 263.28,-16.73 264.31,-16.96 265.32,-17.23 266.33,-17.5 267.33,-17.81 268.31,-18.17 269.3,-18.53 270.27,-18.93 271.21,-19.37 272.16,-19.82 273.09,-20.3 274,-20.82 274.91,-21.35 275.79,-21.91 276.65,-22.51 277.51,-23.11 278.34,-23.75 279.14,-24.42 279.94,-25.1 280.72,-25.8 281.46,-26.54 282.2,-27.28 282.9,-28.06 283.58,-28.86 283.58,-28.86 256,-52 256,-52"/>
<path fill="#49006a" stroke="#fff7f3" stroke-width="0" d="M256,-52C256,-52 283.58,-28.86 283.58,-28.86 284.25,-29.66 284.89,-30.49 285.49,-31.35 286.09,-32.21 286.65,-33.09 287.18,-34 287.7,-34.91 288.18,-35.84 288.63,-36.79 289.07,-37.73 289.47,-38.7 289.83,-39.69 290.19,-40.67 290.5,-41.67 290.77,-42.68 291.04,-43.69 291.27,-44.72 291.45,-45.75 291.63,-46.78 291.77,-47.82 291.86,-48.86 291.95,-49.91 292,-50.95 292,-52 292,-52 256,-52 256,-52"/>
<ellipse fill="none" stroke="#fff7f3" stroke-width="0" cx="256" cy="-52" rx="36" ry="36"/>
<text text-anchor="middle" x="256" y="-48.3" font-family="Times,serif" font-size="14.00">c10</text>
</g>
<!-- c9&#45;&gt;c10 -->
<g id="edge7" class="edge">
<title>c9&#45;&gt;c10</title>
<path fill="none" stroke="black" stroke-width="2" d="M256,-124C256,-115.85 256,-107.06 256,-98.54"/>
<polygon fill="black" stroke="black" stroke-width="2" points="259.5,-98.33 256,-88.33 252.5,-98.33 259.5,-98.33"/>
</g>
<!-- c11 -->
<g id="node14" class="node">
<title>c11</title>
<path fill="#fff7fb" stroke="#fff7fb" stroke-width="0" d="M166,-160C166,-160 202,-160 202,-160 202,-161.05 201.95,-162.09 201.86,-163.14 201.77,-164.18 201.63,-165.22 201.45,-166.25 201.27,-167.28 201.04,-168.31 200.77,-169.32 200.5,-170.33 200.19,-171.33 199.83,-172.31 199.47,-173.3 199.07,-174.27 198.63,-175.21 198.18,-176.16 197.7,-177.09 197.18,-178 196.65,-178.91 196.09,-179.79 195.49,-180.65 194.89,-181.51 194.25,-182.34 193.58,-183.14 193.58,-183.14 166,-160 166,-160"/>
<path fill="#ece7f2" stroke="#fff7fb" stroke-width="0" d="M166,-160C166,-160 193.58,-183.14 193.58,-183.14 192.9,-183.94 192.2,-184.72 191.46,-185.46 190.72,-186.2 189.94,-186.9 189.14,-187.58 188.34,-188.25 187.51,-188.89 186.65,-189.49 185.79,-190.09 184.91,-190.65 184,-191.18 183.09,-191.7 182.16,-192.18 181.21,-192.63 180.27,-193.07 179.3,-193.47 178.31,-193.83 177.33,-194.19 176.33,-194.5 175.32,-194.77 174.31,-195.04 173.28,-195.27 172.25,-195.45 172.25,-195.45 166,-160 166,-160"/>
<path fill="#d0d1e6" stroke="#fff7fb" stroke-width="0" d="M166,-160C166,-160 172.25,-195.45 172.25,-195.45 171.22,-195.63 170.18,-195.77 169.14,-195.86 168.09,-195.95 167.05,-196 166,-196 164.95,-196 163.91,-195.95 162.86,-195.86 161.82,-195.77 160.78,-195.63 159.75,-195.45 158.72,-195.27 157.69,-195.04 156.68,-194.77 155.67,-194.5 154.67,-194.19 153.69,-193.83 152.7,-193.47 151.73,-193.07 150.79,-192.63 149.84,-192.18 148.91,-191.7 148,-191.18 148,-191.18 166,-160 166,-160"/>
<path fill="#a6bddb" stroke="#fff7fb" stroke-width="0" d="M166,-160C166,-160 148,-191.18 148,-191.18 147.09,-190.65 146.21,-190.09 145.35,-189.49 144.49,-188.89 143.66,-188.25 142.86,-187.58 142.06,-186.9 141.28,-186.2 140.54,-185.46 139.8,-184.72 139.1,-183.94 138.42,-183.14 137.75,-182.34 137.11,-181.51 136.51,-180.65 135.91,-179.79 135.35,-178.91 134.82,-178 134.3,-177.09 133.82,-176.16 133.37,-175.21 132.93,-174.27 132.53,-173.3 132.17,-172.31 132.17,-172.31 166,-160 166,-160"/>
<path fill="#74a9cf" stroke="#fff7fb" stroke-width="0" d="M166,-160C166,-160 132.17,-172.31 132.17,-172.31 131.81,-171.33 131.5,-170.33 131.23,-169.32 130.96,-168.31 130.73,-167.28 130.55,-166.25 130.37,-165.22 130.23,-164.18 130.14,-163.14 130.05,-162.09 130,-161.05 130,-160 130,-158.95 130.05,-157.91 130.14,-156.86 130.23,-155.82 130.37,-154.78 130.55,-153.75 130.73,-152.72 130.96,-151.69 131.23,-150.68 131.5,-149.67 131.81,-148.67 132.17,-147.69 132.17,-147.69 166,-160 166,-160"/>
<path fill="#3690c0" stroke="#fff7fb" stroke-width="0" d="M166,-160C166,-160 132.17,-147.69 132.17,-147.69 132.53,-146.7 132.93,-145.73 133.37,-144.79 133.82,-143.84 134.3,-142.91 134.82,-142 135.35,-141.09 135.91,-140.21 136.51,-139.35 137.11,-138.49 137.75,-137.66 138.42,-136.86 139.1,-136.06 139.8,-135.28 140.54,-134.54 141.28,-133.8 142.06,-133.1 142.86,-132.42 143.66,-131.75 144.49,-131.11 145.35,-130.51 146.21,-129.91 147.09,-129.35 148,-128.82 148,-128.82 166,-160 166,-160"/>
<path fill="#0570b0" stroke="#fff7fb" stroke-width="0" d="M166,-160C166,-160 148,-128.82 148,-128.82 148.91,-128.3 149.84,-127.82 150.79,-127.37 151.73,-126.93 152.7,-126.53 153.69,-126.17 154.67,-125.81 155.67,-125.5 156.68,-125.23 157.69,-124.96 158.72,-124.73 159.75,-124.55 160.78,-124.37 161.82,-124.23 162.86,-124.14 163.91,-124.05 164.95,-124 166,-124 167.05,-124 168.09,-124.05 169.14,-124.14 170.18,-124.23 171.22,-124.37 172.25,-124.55 172.25,-124.55 166,-160 166,-160"/>
<path fill="#045a8d" stroke="#fff7fb" stroke-width="0" d="M166,-160C166,-160 172.25,-124.55 172.25,-124.55 173.28,-124.73 174.31,-124.96 175.32,-125.23 176.33,-125.5 177.33,-125.81 178.31,-126.17 179.3,-126.53 180.27,-126.93 181.21,-127.37 182.16,-127.82 183.09,-128.3 184,-128.82 184.91,-129.35 185.79,-129.91 186.65,-130.51 187.51,-131.11 188.34,-131.75 189.14,-132.42 189.94,-133.1 190.72,-133.8 191.46,-134.54 192.2,-135.28 192.9,-136.06 193.58,-136.86 193.58,-136.86 166,-160 166,-160"/>
<path fill="#023858" stroke="#fff7fb" stroke-width="0" d="M166,-160C166,-160 193.58,-136.86 193.58,-136.86 194.25,-137.66 194.89,-138.49 195.49,-139.35 196.09,-140.21 196.65,-141.09 197.18,-142 197.7,-142.91 198.18,-143.84 198.63,-144.79 199.07,-145.73 199.47,-146.7 199.83,-147.69 200.19,-148.67 200.5,-149.67 200.77,-150.68 201.04,-151.69 201.27,-152.72 201.45,-153.75 201.63,-154.78 201.77,-155.82 201.86,-156.86 201.95,-157.91 202,-158.95 202,-160 202,-160 166,-160 166,-160"/>
<ellipse fill="none" stroke="#fff7fb" stroke-width="0" cx="166" cy="-160" rx="36" ry="36"/>
<text text-anchor="middle" x="166" y="-156.3" font-family="Times,serif" font-size="14.00">c11</text>
</g>
<!-- c12 -->
<g id="node15" class="node">
<title>c12</title>
<path fill="#7fc97f" stroke="#7fc97f" stroke-width="0" d="M166,-52C166,-52 202,-52 202,-52 202,-53.18 201.94,-54.36 201.83,-55.53 201.71,-56.7 201.54,-57.87 201.31,-59.02 201.08,-60.18 200.79,-61.32 200.45,-62.45 200.11,-63.58 199.71,-64.69 199.26,-65.78 198.81,-66.87 198.3,-67.93 197.75,-68.97 197.19,-70.01 196.59,-71.02 195.93,-72 195.28,-72.98 194.58,-73.93 193.83,-74.84 193.08,-75.75 192.29,-76.62 191.46,-77.46 191.46,-77.46 166,-52 166,-52"/>
<path fill="#beaed4" stroke="#7fc97f" stroke-width="0" d="M166,-52C166,-52 191.46,-77.46 191.46,-77.46 190.62,-78.29 189.75,-79.08 188.84,-79.83 187.93,-80.58 186.98,-81.28 186,-81.93 185.02,-82.59 184.01,-83.19 182.97,-83.75 181.93,-84.3 180.87,-84.81 179.78,-85.26 178.69,-85.71 177.58,-86.11 176.45,-86.45 175.32,-86.79 174.18,-87.08 173.02,-87.31 171.87,-87.54 170.7,-87.71 169.53,-87.83 168.36,-87.94 167.18,-88 166,-88 166,-88 166,-52 166,-52"/>
<path fill="#fdc086" stroke="#7fc97f" stroke-width="0" d="M166,-52C166,-52 166,-88 166,-88 164.82,-88 163.64,-87.94 162.47,-87.83 161.3,-87.71 160.13,-87.54 158.98,-87.31 157.82,-87.08 156.68,-86.79 155.55,-86.45 154.42,-86.11 153.31,-85.71 152.22,-85.26 151.13,-84.81 150.07,-84.3 149.03,-83.75 147.99,-83.19 146.98,-82.59 146,-81.93 145.02,-81.28 144.07,-80.58 143.16,-79.83 142.25,-79.08 141.38,-78.29 140.54,-77.46 140.54,-77.46 166,-52 166,-52"/>
<path fill="#ffff99" stroke="#7fc97f" stroke-width="0" d="M166,-52C166,-52 140.54,-77.46 140.54,-77.46 139.71,-76.62 138.92,-75.75 138.17,-74.84 137.42,-73.93 136.72,-72.98 136.07,-72 135.41,-71.02 134.81,-70.01 134.25,-68.97 133.7,-67.93 133.19,-66.87 132.74,-65.78 132.29,-64.69 131.89,-63.58 131.55,-62.45 131.21,-61.32 130.92,-60.18 130.69,-59.02 130.46,-57.87 130.29,-56.7 130.17,-55.53 130.06,-54.36 130,-53.18 130,-52 130,-52 166,-52 166,-52"/>
<path fill="#386cb0" stroke="#7fc97f" stroke-width="0" d="M166,-52C166,-52 130,-52 130,-52 130,-50.82 130.06,-49.64 130.17,-48.47 130.29,-47.3 130.46,-46.13 130.69,-44.98 130.92,-43.82 131.21,-42.68 131.55,-41.55 131.89,-40.42 132.29,-39.31 132.74,-38.22 133.19,-37.13 133.7,-36.07 134.25,-35.03 134.81,-33.99 135.41,-32.98 136.07,-32 136.72,-31.02 137.42,-30.07 138.17,-29.16 138.92,-28.25 139.71,-27.38 140.54,-26.54 140.54,-26.54 166,-52 166,-52"/>
<path fill="#f0027f" stroke="#7fc97f" stroke-width="0" d="M166,-52C166,-52 140.54,-26.54 140.54,-26.54 141.38,-25.71 142.25,-24.92 143.16,-24.17 144.07,-23.42 145.02,-22.72 146,-22.07 146.98,-21.41 147.99,-20.81 149.03,-20.25 150.07,-19.7 151.13,-19.19 152.22,-18.74 153.31,-18.29 154.42,-17.89 155.55,-17.55 156.68,-17.21 157.82,-16.92 158.98,-16.69 160.13,-16.46 161.3,-16.29 162.47,-16.17 163.64,-16.06 164.82,-16 166,-16 166,-16 166,-52 166,-52"/>
<path fill="#bf5b17" stroke="#7fc97f" stroke-width="0" d="M166,-52C166,-52 166,-16 166,-16 167.18,-16 168.36,-16.06 169.53,-16.17 170.7,-16.29 171.87,-16.46 173.02,-16.69 174.18,-16.92 175.32,-17.21 176.45,-17.55 177.58,-17.89 178.69,-18.29 179.78,-18.74 180.87,-19.19 181.93,-19.7 182.97,-20.25 184.01,-20.81 185.02,-21.41 186,-22.07 186.98,-22.72 187.93,-23.42 188.84,-24.17 189.75,-24.92 190.62,-25.71 191.46,-26.54 191.46,-26.54 166,-52 166,-52"/>
<path fill="#666666" stroke="#7fc97f" stroke-width="0" d="M166,-52C166,-52 191.46,-26.54 191.46,-26.54 192.29,-27.38 193.08,-28.25 193.83,-29.16 194.58,-30.07 195.28,-31.02 195.93,-32 196.59,-32.98 197.19,-33.99 197.75,-35.03 198.3,-36.07 198.81,-37.13 199.26,-38.22 199.71,-39.31 200.11,-40.42 200.45,-41.55 200.79,-42.68 201.08,-43.82 201.31,-44.98 201.54,-46.13 201.71,-47.3 201.83,-48.47 201.94,-49.64 202,-50.82 202,-52 202,-52 166,-52 166,-52"/>
<ellipse fill="none" stroke="#7fc97f" stroke-width="0" cx="166" cy="-52" rx="36" ry="36"/>
<text text-anchor="middle" x="166" y="-48.3" font-family="Times,serif" font-size="14.00">c12</text>
</g>
<!-- c11&#45;&gt;c12 -->
<g id="edge8" class="edge">
<title>c11&#45;&gt;c12</title>
<path fill="none" stroke="black" stroke-width="2" d="M166,-124C166,-115.85 166,-107.06 166,-98.54"/>
<polygon fill="black" stroke="black" stroke-width="2" points="169.5,-98.33 166,-88.33 162.5,-98.33 169.5,-98.33"/>
</g>
</g>
</svg>
