<?xml version="1.0" encoding="UTF-8" standalone="no"?>
<!DOCTYPE svg PUBLIC "-//W3C//DTD SVG 1.1//EN"
 "http://www.w3.org/Graphics/SVG/1.1/DTD/svg11.dtd">
<!-- Generated by graphviz version 2.43.0 (0)
 -->
<!-- Title: mindmap Pages: 1 -->
<svg width="796pt" height="612pt"
 viewBox="0.00 0.00 796.00 612.00" xmlns="http://www.w3.org/2000/svg" xmlns:xlink="http://www.w3.org/1999/xlink">
<g id="graph0" class="graph" transform="scale(1 1) rotate(0) translate(4 585)">
<title>mindmap</title>
<text text-anchor="middle" x="394" y="15.2" font-family="Times,serif" font-size="14.00">Mindmap</text>
<!-- Puppeteer -->
<g id="node1" class="node">
<title>Puppeteer</title>
<defs>
<linearGradient id="l_0" gradientUnits="userSpaceOnUse" x1="279.64" y1="-272.77" x2="528.44" y2="-272.77" >
<stop offset="0" style="stop-color:#fb8072;stop-opacity:1.;"/>
<stop offset="1" style="stop-color:#fdb462;stop-opacity:1.;"/>
</linearGradient>
</defs>
<ellipse fill="url(#l_0)" stroke="black" cx="404.04" cy="-272.77" rx="124.4" ry="28.98"/>
<text text-anchor="middle" x="404.04" y="-265.27" font-family="Times,serif" font-size="30.00">Puppeteer</text>
</g>
<!-- a -->
<g id="node2" class="node">
<title>a</title>
<ellipse fill="#8dd3c7" stroke="black" cx="677.45" cy="-281.69" rx="72.66" ry="21.43"/>
<text text-anchor="middle" x="677.45" y="-276.69" font-family="Times,serif" font-size="20.00">Browser</text>
</g>
<!-- Puppeteer&#45;&gt;a -->
<g id="edge1" class="edge">
<title>Puppeteer&#45;&gt;a</title>
<polygon fill="black" stroke="transparent" stroke-width="20" points="527.22,-286.79 531.21,-286.41 535.21,-286.03 539.21,-285.64 543.21,-285.26 547.22,-284.87 551.21,-284.49 555.2,-284.1 559.17,-283.72 563.14,-283.34 567.08,-282.96 571.01,-282.58 574.91,-282.21 578.78,-281.84 582.63,-281.47 586.44,-281.1 590.22,-280.74 593.96,-280.38 597.66,-280.02 601.31,-279.67 604.92,-279.32 604.92,-279.32 601.34,-278.74 597.72,-278.15 594.05,-277.56 590.34,-276.96 586.6,-276.35 582.82,-275.73 579,-275.11 575.16,-274.49 571.29,-273.86 567.4,-273.23 563.49,-272.59 559.56,-271.95 555.62,-271.31 551.66,-270.67 547.7,-270.03 543.73,-269.38 539.76,-268.74 535.8,-268.09 531.83,-267.45 527.87,-266.8 527.22,-286.79"/>
</g>
<!-- b -->
<g id="node3" class="node">
<title>b</title>
<ellipse fill="#ffffb3" stroke="black" cx="347.29" cy="-214.35" rx="128.89" ry="21.43"/>
<text text-anchor="middle" x="347.29" y="-209.35" font-family="Times,serif" font-size="20.00">BrowserContext</text>
</g>
<!-- Puppeteer&#45;&gt;b -->
<g id="edge2" class="edge">
<title>Puppeteer&#45;&gt;b</title>
<polygon fill="black" stroke="transparent" stroke-width="20" points="383.5,-237.28 382.7,-237.18 381.9,-237.08 381.1,-236.98 380.3,-236.88 379.49,-236.78 378.69,-236.68 377.89,-236.58 377.1,-236.48 376.3,-236.38 375.5,-236.28 374.71,-236.18 373.91,-236.08 373.12,-235.99 372.33,-235.89 371.55,-235.79 370.76,-235.69 369.98,-235.6 369.2,-235.5 368.42,-235.4 367.65,-235.31 367.65,-235.31 367.72,-236.08 367.79,-236.86 367.87,-237.64 367.94,-238.43 368.02,-239.22 368.09,-240.01 368.17,-240.8 368.24,-241.59 368.32,-242.39 368.39,-243.19 368.47,-243.98 368.55,-244.78 368.62,-245.59 368.7,-246.39 368.77,-247.19 368.85,-247.99 368.93,-248.8 369,-249.6 369.08,-250.41 369.16,-251.21 383.5,-237.28"/>
</g>
<!-- c -->
<g id="node4" class="node">
<title>c</title>
<ellipse fill="#bebada" stroke="black" cx="347.91" cy="-331.62" rx="46.84" ry="21.43"/>
<text text-anchor="middle" x="347.91" y="-326.62" font-family="Times,serif" font-size="20.00">Page</text>
</g>
<!-- Puppeteer&#45;&gt;c -->
<g id="edge3" class="edge">
<title>Puppeteer&#45;&gt;c</title>
<polygon fill="black" stroke="transparent" stroke-width="20" points="369.72,-294.26 369.57,-295.16 369.42,-296.05 369.26,-296.95 369.11,-297.85 368.95,-298.74 368.8,-299.64 368.65,-300.53 368.49,-301.43 368.34,-302.32 368.19,-303.21 368.03,-304.1 367.88,-304.98 367.73,-305.86 367.58,-306.74 367.43,-307.62 367.28,-308.49 367.13,-309.36 366.98,-310.22 366.83,-311.08 366.69,-311.93 366.69,-311.93 367.53,-311.75 368.38,-311.56 369.24,-311.37 370.1,-311.18 370.96,-310.99 371.83,-310.8 372.7,-310.6 373.57,-310.41 374.45,-310.22 375.33,-310.02 376.21,-309.83 377.09,-309.63 377.98,-309.44 378.87,-309.24 379.75,-309.04 380.64,-308.85 381.53,-308.65 382.42,-308.46 383.31,-308.26 384.2,-308.06 369.72,-294.26"/>
</g>
<!-- d -->
<g id="node5" class="node">
<title>d</title>
<ellipse fill="#80b1d3" stroke="black" cx="605.17" cy="-444.28" rx="65.11" ry="21.43"/>
<text text-anchor="middle" x="605.17" y="-439.28" font-family="Times,serif" font-size="20.00">Worker</text>
</g>
<!-- Puppeteer&#45;&gt;d -->
<g id="edge4" class="edge">
<title>Puppeteer&#45;&gt;d</title>
<polygon fill="black" stroke="transparent" stroke-width="20" points="430.76,-308.7 437.35,-313.74 444.32,-319.08 451.63,-324.67 459.22,-330.48 467.05,-336.48 475.08,-342.63 483.25,-348.88 491.53,-355.22 499.85,-361.6 508.19,-367.98 516.49,-374.33 524.7,-380.61 532.77,-386.8 540.67,-392.84 548.34,-398.72 555.74,-404.38 562.82,-409.8 569.53,-414.94 575.83,-419.76 581.67,-424.23 581.67,-424.23 576.33,-419.17 570.57,-413.72 564.44,-407.9 557.97,-401.77 551.21,-395.36 544.19,-388.71 536.98,-381.87 529.59,-374.87 522.09,-367.75 514.51,-360.57 506.89,-353.34 499.28,-346.13 491.71,-338.96 484.24,-331.88 476.91,-324.92 469.75,-318.14 462.81,-311.56 456.13,-305.23 449.76,-299.19 443.74,-293.48 430.76,-308.7"/>
</g>
<!-- e -->
<g id="node6" class="node">
<title>e</title>
<ellipse fill="#fdb462" stroke="black" cx="134.76" cy="-403.83" rx="103.48" ry="21.43"/>
<text text-anchor="middle" x="134.76" y="-398.83" font-family="Times,serif" font-size="20.00">Accessibility</text>
</g>
<!-- Puppeteer&#45;&gt;e -->
<g id="edge5" class="edge">
<title>Puppeteer&#45;&gt;e</title>
<polygon fill="black" stroke="transparent" stroke-width="20" points="345.82,-289.98 338.07,-294.26 330,-298.71 321.64,-303.32 313.04,-308.07 304.23,-312.93 295.25,-317.89 286.14,-322.91 276.96,-327.98 267.73,-333.07 258.49,-338.17 249.29,-343.24 240.18,-348.28 231.18,-353.24 222.34,-358.12 213.7,-362.89 205.3,-367.52 197.18,-372 189.39,-376.3 181.96,-380.4 174.93,-384.28 174.93,-384.28 182.32,-381.14 190.13,-377.82 198.32,-374.34 206.85,-370.72 215.68,-366.96 224.76,-363.11 234.06,-359.16 243.52,-355.14 253.1,-351.07 262.77,-346.96 272.48,-342.84 282.18,-338.72 291.84,-334.61 301.41,-330.55 310.85,-326.54 320.11,-322.6 329.16,-318.76 337.95,-315.03 346.43,-311.42 354.57,-307.97 345.82,-289.98"/>
</g>
<!-- f -->
<g id="node7" class="node">
<title>f</title>
<ellipse fill="#b3de69" stroke="black" cx="253.69" cy="-42.51" rx="79.81" ry="21.43"/>
<text text-anchor="middle" x="253.69" y="-37.51" font-family="Times,serif" font-size="20.00">Keyboard</text>
</g>
<!-- Puppeteer&#45;&gt;f -->
<g id="edge6" class="edge">
<title>Puppeteer&#45;&gt;f</title>
<polygon fill="black" stroke="transparent" stroke-width="20" points="393.67,-238.6 388.53,-231.47 382.95,-223.74 377.01,-215.5 370.74,-206.81 364.21,-197.75 357.44,-188.37 350.51,-178.76 343.46,-168.98 336.33,-159.1 329.18,-149.19 322.06,-139.31 315.02,-129.55 308.1,-119.96 301.37,-110.63 294.86,-101.61 288.64,-92.97 282.74,-84.8 277.22,-77.15 272.13,-70.09 267.52,-63.7 267.52,-63.7 271.52,-70.49 275.93,-77.99 280.72,-86.12 285.83,-94.8 291.23,-103.98 296.88,-113.56 302.72,-123.48 308.71,-133.67 314.82,-144.04 320.99,-154.53 327.19,-165.06 333.38,-175.56 339.49,-185.96 345.51,-196.17 351.37,-206.13 357.04,-215.76 362.48,-224.99 367.63,-233.75 372.46,-241.96 376.93,-249.54 393.67,-238.6"/>
</g>
<!-- g -->
<g id="node8" class="node">
<title>g</title>
<ellipse fill="#fccde5" stroke="black" cx="434.75" cy="-21.63" rx="59.29" ry="21.43"/>
<text text-anchor="middle" x="434.75" y="-16.63" font-family="Times,serif" font-size="20.00">Mouse</text>
</g>
<!-- Puppeteer&#45;&gt;g -->
<g id="edge7" class="edge">
<title>Puppeteer&#45;&gt;g</title>
<polygon fill="black" stroke="transparent" stroke-width="20" points="417.55,-244.68 418.13,-236.58 418.77,-227.76 419.45,-218.31 420.18,-208.32 420.93,-197.86 421.72,-187.02 422.52,-175.88 423.34,-164.54 424.17,-153.08 425,-141.57 425.83,-130.12 426.65,-118.79 427.45,-107.68 428.23,-96.87 428.99,-86.45 429.71,-76.49 430.39,-67.1 431.02,-58.34 431.6,-50.3 432.12,-43.08 432.12,-43.08 430.89,-50.22 429.52,-58.15 428.02,-66.81 426.42,-76.09 424.72,-85.93 422.94,-96.22 421.09,-106.9 419.19,-117.88 417.26,-129.07 415.3,-140.39 413.34,-151.75 411.38,-163.08 409.44,-174.28 407.54,-185.28 405.69,-195.99 403.91,-206.33 402.2,-216.2 400.58,-225.54 399.08,-234.25 397.7,-242.25 417.55,-244.68"/>
</g>
<!-- h -->
<g id="node9" class="node">
<title>h</title>
<ellipse fill="#d9d9d9" stroke="black" cx="103.06" cy="-220.92" rx="103.48" ry="21.43"/>
<text text-anchor="middle" x="103.06" y="-215.92" font-family="Times,serif" font-size="20.00">Touchscreen</text>
</g>
<!-- Puppeteer&#45;&gt;h -->
<g id="edge8" class="edge">
<title>Puppeteer&#45;&gt;h</title>
<polygon fill="black" stroke="transparent" stroke-width="20" points="305.52,-245.65 299.47,-245.1 293.35,-244.55 287.18,-244 280.95,-243.44 274.68,-242.88 268.39,-242.31 262.07,-241.74 255.74,-241.17 249.4,-240.61 243.08,-240.04 236.77,-239.47 230.49,-238.91 224.25,-238.35 218.05,-237.79 211.92,-237.24 205.84,-236.69 199.84,-236.15 193.93,-235.62 188.11,-235.1 182.4,-234.58 182.4,-234.58 187.96,-236.01 193.61,-237.47 199.36,-238.94 205.2,-240.44 211.1,-241.96 217.07,-243.5 223.1,-245.04 229.17,-246.61 235.27,-248.17 241.41,-249.75 247.56,-251.33 253.71,-252.91 259.87,-254.5 266.02,-256.08 272.14,-257.65 278.23,-259.22 284.29,-260.77 290.29,-262.32 296.24,-263.85 302.12,-265.36 305.52,-245.65"/>
</g>
<!-- i -->
<g id="node10" class="node">
<title>i</title>
<ellipse fill="#bc80bd" stroke="black" cx="648.95" cy="-34.13" rx="139.1" ry="21.43"/>
<text text-anchor="middle" x="648.95" y="-29.13" font-family="Times,serif" font-size="20.00">ExecutionContext</text>
</g>
<!-- Puppeteer&#45;&gt;i -->
<g id="edge9" class="edge">
<title>Puppeteer&#45;&gt;i</title>
<polygon fill="black" stroke="transparent" stroke-width="20" points="440.07,-251.62 447.61,-243.71 455.8,-235.13 464.56,-225.93 473.82,-216.22 483.51,-206.06 493.54,-195.53 503.84,-184.73 514.33,-173.73 524.93,-162.6 535.57,-151.44 546.17,-140.32 556.66,-129.32 566.95,-118.52 576.97,-108.01 586.65,-97.86 595.9,-88.15 604.65,-78.98 612.82,-70.4 620.34,-62.52 627.12,-55.4 627.12,-55.4 619.83,-62 611.75,-69.31 602.97,-77.25 593.57,-85.76 583.63,-94.76 573.23,-104.17 562.46,-113.91 551.4,-123.92 540.13,-134.12 528.74,-144.43 517.3,-154.78 505.91,-165.09 494.64,-175.29 483.57,-185.3 472.79,-195.06 462.38,-204.48 452.43,-213.48 443.01,-222.01 434.21,-229.97 426.12,-237.29 440.07,-251.62"/>
</g>
<!-- j -->
<g id="node11" class="node">
<title>j</title>
<ellipse fill="#ccebc5" stroke="black" cx="572.74" cy="-190.74" rx="79.39" ry="21.43"/>
<text text-anchor="middle" x="572.74" y="-185.74" font-family="Times,serif" font-size="20.00">JSHandle</text>
</g>
<!-- Puppeteer&#45;&gt;j -->
<g id="edge10" class="edge">
<title>Puppeteer&#45;&gt;j</title>
<polygon fill="black" stroke="transparent" stroke-width="20" points="462.25,-255.58 465.8,-253.31 469.4,-251.01 473.04,-248.68 476.71,-246.32 480.41,-243.95 484.14,-241.56 487.88,-239.17 491.62,-236.77 495.37,-234.37 499.1,-231.98 502.82,-229.6 506.51,-227.23 510.18,-224.89 513.81,-222.56 517.39,-220.27 520.91,-218.01 524.38,-215.79 527.78,-213.61 531.11,-211.48 534.35,-209.41 534.35,-209.41 530.71,-210.67 526.99,-211.97 523.17,-213.3 519.28,-214.66 515.33,-216.04 511.31,-217.44 507.25,-218.86 503.14,-220.29 498.99,-221.73 494.82,-223.19 490.64,-224.65 486.44,-226.11 482.24,-227.58 478.05,-229.04 473.87,-230.49 469.72,-231.94 465.6,-233.38 461.52,-234.8 457.48,-236.21 453.51,-237.6 462.25,-255.58"/>
</g>
<!-- k -->
<g id="node12" class="node">
<title>k</title>
<ellipse fill="#ffed6f" stroke="black" cx="252.32" cy="-558.45" rx="123.99" ry="21.43"/>
<text text-anchor="middle" x="252.32" y="-553.45" font-family="Times,serif" font-size="20.00">ElementHandle</text>
</g>
<!-- Puppeteer&#45;&gt;k -->
<g id="edge11" class="edge">
<title>Puppeteer&#45;&gt;k</title>
<polygon fill="black" stroke="transparent" stroke-width="20" points="379.82,-297.04 375.32,-306.35 370.36,-316.61 364.98,-327.71 359.26,-339.54 353.23,-351.99 346.96,-364.96 340.5,-378.31 333.9,-391.95 327.21,-405.76 320.5,-419.63 313.81,-433.45 307.21,-447.11 300.73,-460.49 294.44,-473.48 288.4,-485.97 282.65,-497.85 277.25,-509.01 272.25,-519.33 267.72,-528.71 263.69,-537.03 263.69,-537.03 268.33,-529.03 273.56,-520.03 279.31,-510.11 285.53,-499.39 292.16,-487.97 299.12,-475.96 306.36,-463.48 313.82,-450.62 321.44,-437.5 329.14,-424.22 336.87,-410.89 344.57,-397.62 352.18,-384.52 359.63,-371.68 366.85,-359.23 373.79,-347.26 380.39,-335.89 386.58,-325.22 392.3,-315.36 397.49,-306.42 379.82,-297.04"/>
</g>
<!-- l -->
<g id="node13" class="node">
<title>l</title>
<ellipse fill="#8dd3c7" stroke="black" cx="485.63" cy="-560.01" rx="98.08" ry="21.43"/>
<text text-anchor="middle" x="485.63" y="-555.01" font-family="Times,serif" font-size="20.00">CDPSession</text>
</g>
<!-- Puppeteer&#45;&gt;l -->
<g id="edge12" class="edge">
<title>Puppeteer&#45;&gt;l</title>
<polygon fill="black" stroke="transparent" stroke-width="20" points="402.69,-304.62 405.67,-313.69 408.95,-323.69 412.51,-334.51 416.29,-346.04 420.28,-358.17 424.43,-370.8 428.7,-383.81 433.07,-397.11 437.49,-410.56 441.93,-424.08 446.36,-437.55 450.73,-450.85 455.01,-463.89 459.17,-476.55 463.17,-488.72 466.97,-500.3 470.54,-511.17 473.84,-521.23 476.85,-530.37 479.51,-538.47 479.51,-538.47 477.51,-530.18 475.26,-520.83 472.79,-510.54 470.11,-499.41 467.26,-487.56 464.26,-475.1 461.14,-462.15 457.93,-448.81 454.66,-435.19 451.34,-421.41 448.01,-407.57 444.7,-393.8 441.43,-380.2 438.22,-366.88 435.11,-353.96 432.13,-341.54 429.29,-329.74 426.62,-318.67 424.16,-308.44 421.93,-299.16 402.69,-304.62"/>
</g>
<!-- m -->
<g id="node14" class="node">
<title>m</title>
<ellipse fill="#ffffb3" stroke="black" cx="492.19" cy="-333.63" rx="79.81" ry="21.43"/>
<text text-anchor="middle" x="492.19" y="-328.63" font-family="Times,serif" font-size="20.00">Coverage</text>
</g>
<!-- Puppeteer&#45;&gt;m -->
<g id="edge13" class="edge">
<title>Puppeteer&#45;&gt;m</title>
<polygon fill="black" stroke="transparent" stroke-width="20" points="438.3,-308.58 439.58,-308.84 440.85,-309.11 442.13,-309.37 443.4,-309.63 444.68,-309.9 445.95,-310.16 447.23,-310.43 448.5,-310.69 449.77,-310.95 451.04,-311.22 452.31,-311.48 453.57,-311.74 454.82,-312 456.07,-312.26 457.32,-312.52 458.56,-312.77 459.79,-313.03 461.02,-313.28 462.24,-313.53 463.45,-313.79 463.45,-313.79 462.78,-312.74 462.11,-311.69 461.44,-310.64 460.77,-309.57 460.09,-308.51 459.41,-307.43 458.72,-306.35 458.03,-305.27 457.34,-304.19 456.65,-303.1 455.95,-302 455.26,-300.91 454.56,-299.81 453.86,-298.71 453.16,-297.61 452.46,-296.51 451.76,-295.41 451.06,-294.31 450.36,-293.22 449.67,-292.12 438.3,-308.58"/>
</g>
</g>
</svg>
