<?xml version="1.0" encoding="UTF-8" standalone="no"?>
<!DOCTYPE svg PUBLIC "-//W3C//DTD SVG 1.1//EN"
 "http://www.w3.org/Graphics/SVG/1.1/DTD/svg11.dtd">
<!-- Generated by graphviz version 2.43.0 (0)
 -->
<!-- Title: structs Pages: 1 -->
<svg width="631pt" height="116pt"
 viewBox="0.00 0.00 630.96 116.38" xmlns="http://www.w3.org/2000/svg" xmlns:xlink="http://www.w3.org/1999/xlink">
<g id="graph0" class="graph" transform="scale(1 1) rotate(0) translate(4 112.38)">
<title>structs</title>
<text text-anchor="middle" x="311.48" y="-10" font-family="Times,serif" font-size="20.00">System Design</text>
<!-- 1 -->
<g id="node1" class="node">
<title>1</title>
<polygon fill="#8dd3c7" stroke="black" stroke-width="2" points="157,-93.19 0,-93.19 0,-45.19 157,-45.19 157,-93.19"/>
<text text-anchor="middle" x="78.5" y="-74.79" font-family="Times,serif" font-size="18.00">List system</text>
<text text-anchor="middle" x="78.5" y="-54.79" font-family="Times,serif" font-size="18.00">Requirement(s)</text>
</g>
<!-- 2 -->
<g id="node2" class="node">
<title>2</title>
<polygon fill="#ffffb3" stroke="black" stroke-width="2" points="410.28,-69.19 355.94,-108.58 247.25,-108.58 192.91,-69.19 247.25,-29.81 355.94,-29.81 410.28,-69.19"/>
<text text-anchor="middle" x="301.59" y="-74.79" font-family="Times,serif" font-size="18.00">Anticipate </text>
<text text-anchor="middle" x="301.59" y="-54.79" font-family="Times,serif" font-size="18.00"> PROBLEMS</text>
</g>
<!-- 1&#45;&gt;2 -->
<g id="edge1" class="edge">
<title>1&#45;&gt;2</title>
<path fill="none" stroke="#e41a1c" stroke-width="5" d="M157.14,-69.19C165.46,-69.19 174.05,-69.19 182.7,-69.19"/>
<polygon fill="#e41a1c" stroke="#e41a1c" stroke-width="5" points="182.87,-73.57 192.87,-69.19 182.87,-64.82 182.87,-73.57"/>
</g>
<!-- 3 -->
<g id="node3" class="node">
<title>3</title>
<ellipse fill="#bebada" stroke="black" stroke-width="2" cx="534.58" cy="-69.19" rx="88.28" ry="33.88"/>
<text text-anchor="middle" x="534.58" y="-74.79" font-family="Times,serif" font-size="18.00">Solve them </text>
<text text-anchor="middle" x="534.58" y="-54.79" font-family="Times,serif" font-size="18.00"> one&#45;by&#45;one</text>
</g>
<!-- 2&#45;&gt;3 -->
<g id="edge2" class="edge">
<title>2&#45;&gt;3</title>
<path fill="none" stroke="#e41a1c" stroke-width="5" d="M410.31,-69.19C418.84,-69.19 427.42,-69.19 435.88,-69.19"/>
<polygon fill="#e41a1c" stroke="#e41a1c" stroke-width="5" points="436.11,-73.57 446.11,-69.19 436.11,-64.82 436.11,-73.57"/>
</g>
</g>
</svg>
